<svg version="1.1" xmlns="http://www.w3.org/2000/svg" xmlns:xlink="http://www.w3.org/1999/xlink" width="34.17311" height="34.17311" viewBox="0,0,34.17311,34.17311"><g transform="translate(-222.91348,-162.91347)"><g data-paper-data="{&quot;isPaintingLayer&quot;:true}" stroke-miterlimit="10" stroke-dasharray="" stroke-dashoffset="0" style="mix-blend-mode: normal"><path d="M229.98315,162.91348h20.03378c3.9166,0 7.06966,3.15307 7.06966,7.06966v20.03379c0,3.91659 -3.15306,7.06966 -7.06966,7.06966h-20.03378c-3.91659,0 -7.06967,-3.15307 -7.06967,-7.06966v-20.03379c0,-3.91659 3.15308,-7.06966 7.06967,-7.06966z" fill-opacity="0.09677" fill="#191919" fill-rule="evenodd" stroke="none" stroke-width="4.43922" stroke-linecap="round" stroke-linejoin="round"/><path d="M251.36591,181.03548c0,6.03115 -5.06593,10.92036 -11.31507,10.92036c-6.24914,0 -11.31507,-4.88921 -11.31507,-10.92036c0,-6.03115 5.06593,-10.92036 11.31507,-10.92036c6.24914,0 11.31507,4.88921 11.31507,10.92036z" fill="#8e8e8e" fill-rule="nonzero" stroke="#000000" stroke-width="0.5" stroke-linecap="butt" stroke-linejoin="miter"/><path d="M223.13095,170.33465c0.04281,-0.59808 0.15009,-2.87859 0.94249,-3.17143c3.67064,-1.35655 5.89443,-2.11146 8.19106,1.73731c0.09238,0.15482 0.1978,0.30399 0.31165,0.44941c2.15494,-1.39308 4.53479,-2.45992 7.14489,-1.65008c1.2017,0.37285 2.76214,0.89989 3.76618,1.62119c0.62263,0.4473 1.396,2.04384 1.82054,1.40547c1.37255,-2.06387 2.92632,-10.55308 7.24175,-6.38843c1.59657,1.54078 -0.87372,12.12324 -3.47774,13.52238c-3.58323,1.92526 -7.56017,-5.35975 -11.45463,-5.36779c-1.11339,-0.0023 -2.17949,0.68382 -3.12883,1.61352c-0.22021,0.65987 -0.64196,1.12481 -1.20217,1.35975c-0.85073,1.08461 -1.54622,2.2152 -2.0118,2.91356c-0.01794,0.12088 -0.04453,0.23893 -0.07913,0.35352c-0.06716,1.41119 -0.92103,1.78877 -1.92844,1.73313c-0.15074,0.02837 -0.30625,0.04321 -0.46522,0.04321c-0.596,0 -1.14329,-0.20856 -1.57287,-0.55668c-0.01687,-0.00665 -0.03364,-0.01331 -0.05033,-0.01998c-3.64427,3.75218 -4.20806,-7.35376 -4.0474,-9.59804z" fill="#d2d2d2" fill-rule="nonzero" stroke="none" stroke-width="0.5" stroke-linecap="butt" stroke-linejoin="miter"/></g></g></svg>