<svg version="1.1" xmlns="http://www.w3.org/2000/svg" xmlns:xlink="http://www.w3.org/1999/xlink" width="130.47404" height="192.65962" viewBox="0,0,130.47404,192.65962"><g transform="translate(-174.83997,-115.84039)"><g data-paper-data="{&quot;isPaintingLayer&quot;:true}" fill-rule="nonzero" stroke-linejoin="miter" stroke-miterlimit="10" stroke-dasharray="" stroke-dashoffset="0" style="mix-blend-mode: normal"><path d="M206.75006,307.5l15.14285,-131.8421l37.78325,-0.15789l13.57389,132z" fill="#4df6ff" stroke="#000000" stroke-width="2" stroke-linecap="butt"/><path d="M219.70029,204.11263l3.12142,-26.32765l35.83075,-0.14203l2.76735,26.1059c0,0 -7.51543,4.19603 -21.55904,4.50964c-12.48458,0.27879 -20.16049,-4.14586 -20.16049,-4.14586z" fill="#45dde6" stroke="#000000" stroke-width="0" stroke-linecap="butt"/><path d="M175.83997,147.94028c0,-27.17474 26.58461,13.00993 62.06173,13.00993c35.47712,0 66.41231,-40.18466 66.41231,-13.00993c0,27.17474 -28.7599,49.20421 -64.23702,49.20421c-35.47712,0 -64.23702,-22.02948 -64.23702,-49.20421z" fill="#4df6ff" stroke="#000000" stroke-width="2" stroke-linecap="butt"/><path d="M191.13041,140.32104c0,-12.968 10.51265,-23.48065 23.48065,-23.48065c12.968,0 23.48065,10.51265 23.48065,23.48065c0,12.968 -10.51265,23.48065 -23.48065,23.48065c-12.968,0 -23.48065,-10.51265 -23.48065,-23.48065z" fill="#ffffff" stroke="#000000" stroke-width="2" stroke-linecap="butt"/><path d="M194.28015,147.44156c0,-9.12808 7.39976,-16.52784 16.52783,-16.52784c9.12808,0 16.52784,7.39977 16.52784,16.52784c0,9.12808 -7.39977,16.52784 -16.52784,16.52784c-9.12808,0 -16.52783,-7.39977 -16.52783,-16.52784z" fill="#000000" stroke="none" stroke-width="0" stroke-linecap="butt"/><path d="M252.61665,176.65643h-25.10959" fill="none" stroke="#000000" stroke-width="2" stroke-linecap="round"/><path d="M269.30461,166.41212c-12.968,0 -23.48065,-10.51265 -23.48065,-23.48065c0,-12.968 10.51265,-23.48065 23.48065,-23.48065c5.53776,0 10.62777,1.91705 14.64259,5.12372c5.38685,4.30252 8.83806,10.92669 8.83806,18.35693c0,12.968 -10.51265,23.48065 -23.48065,23.48065z" data-paper-data="{&quot;index&quot;:null}" fill="#ffffff" stroke="#000000" stroke-width="2" stroke-linecap="butt"/><path d="M273.54276,153.52784c-9.12807,0 -16.52783,-7.39977 -16.52783,-16.52784c0,-9.12808 7.39977,-16.52784 16.52783,-16.52784c9.12807,0 16.52783,7.39977 16.52783,16.52784c0,9.12808 -7.39977,16.52784 -16.52783,16.52784z" data-paper-data="{&quot;index&quot;:null}" fill="#000000" stroke="none" stroke-width="0" stroke-linecap="butt"/><path d="M268.61511,194.85843c0,14.89729 -12.75838,26.97394 -28.49664,26.97394c-15.73826,0 -28.49664,-12.07664 -28.49664,-26.97394c0,-14.89729 12.75838,-26.97394 28.49664,-26.97394c15.73826,0 28.49664,12.07664 28.49664,26.97394z" fill="#000000" stroke="#000000" stroke-width="2" stroke-linecap="butt"/></g></g></svg>