<svg version="1.1" xmlns="http://www.w3.org/2000/svg" xmlns:xlink="http://www.w3.org/1999/xlink" width="101.09134" height="243.06384" viewBox="0,0,101.09134,243.06384"><g transform="translate(-192.53863,-65.43618)"><g data-paper-data="{&quot;isPaintingLayer&quot;:true}" fill-rule="nonzero" stroke-linecap="butt" stroke-linejoin="miter" stroke-miterlimit="10" stroke-dasharray="" stroke-dashoffset="0" style="mix-blend-mode: normal"><path d="M219.7003,204.11268l3.12142,-26.32765l35.83075,-0.14203l2.76735,26.1059c0,0 -7.51543,4.19603 -21.55904,4.50964c-12.48458,0.27879 -20.16049,-4.14586 -20.16049,-4.14586z" fill="#e46300" stroke="#000000" stroke-width="0"/><path d="M206.75008,307.50001l15.14285,-131.8421l37.78325,-0.15789l13.57389,132z" fill="#ff6f00" stroke="#000000" stroke-width="2"/><path d="M194.98423,160.72135c0,-33.30185 20.37837,-60.29833 45.51636,-60.29833c25.13799,0 45.51636,26.99648 45.51636,60.29833c0,13.26154 -2.28686,25.52317 -7.76377,35.47823c-8.27649,15.0437 -22.6251,23.57011 -37.75259,23.57011c-15.46207,0 -30.06819,-8.96367 -38.29421,-24.57601c-5.14771,-9.76995 -7.22215,-21.65405 -7.22215,-34.47233z" fill="#ff6f00" stroke="#000000" stroke-width="2"/><path d="M197.83472,126.73451c0,-33.30185 20.37838,-60.29833 45.51637,-60.29833c25.13799,0 45.51636,26.99648 45.51636,60.29833c0,13.26154 -2.28685,25.52317 -7.76377,35.47823c-8.27649,15.0437 -22.6251,23.57011 -37.75259,23.57011c-15.46207,0 -30.06819,-8.96367 -38.29421,-24.57601c-5.14771,-9.76995 -7.22215,-21.65405 -7.22215,-34.47233z" fill="#ff6f00" stroke="#000000" stroke-width="2"/><path d="M193.53863,103.33294c0,-8.72531 4.75914,-16.33907 11.82319,-20.38706c3.4349,-1.96833 7.41477,-3.09359 11.65745,-3.09359c12.968,0 23.48065,10.51265 23.48065,23.48065c0,12.968 -10.51265,23.48065 -23.48065,23.48065c-12.968,0 -23.48065,-10.51265 -23.48065,-23.48065z" fill="#ffffff" stroke="#000000" stroke-width="2"/><path d="M200.18916,104.30183c0,-9.12808 7.39976,-16.52784 16.52783,-16.52784c9.12808,0 16.52784,7.39977 16.52784,16.52784c0,9.12808 -7.39977,16.52784 -16.52784,16.52784c-9.12808,0 -16.52783,-7.39977 -16.52783,-16.52784z" fill="#000000" stroke="none" stroke-width="0"/><path d="M268.78869,128.88779c-12.968,0 -23.48065,-10.51265 -23.48065,-23.48065c0,-12.968 10.51265,-23.48065 23.48065,-23.48065c12.968,0 23.48065,10.51265 23.48065,23.48065c0,12.968 -10.51265,23.48065 -23.48065,23.48065z" data-paper-data="{&quot;index&quot;:null}" fill="#ffffff" stroke="#000000" stroke-width="2"/><path d="M275.6079,127.04833c-3.48782,0 -5.39738,2.67638 -8.06415,0.83205c-4.3125,-2.98252 -8.46368,-11.71964 -8.46368,-17.35989c0,-9.12808 7.39977,-16.52784 16.52783,-16.52784c9.12807,0 16.52783,7.39977 16.52783,16.52784c0,9.12808 -7.39977,16.52784 -16.52783,16.52784z" data-paper-data="{&quot;index&quot;:null}" fill="#000000" stroke="none" stroke-width="0"/><path d="M205.55765,84.63902c10.35308,-7.80915 25.07648,-5.74688 32.88563,4.60621c7.80915,10.35308 5.74688,25.07648 -4.6062,32.88563c0,0 -1.82413,-2.58392 -7.39119,-9.70254c-8.32859,-10.6498 -21.47755,-27.3448 -20.88824,-27.7893z" fill="#ff6f00" stroke="#000000" stroke-width="2"/><path d="M248.02786,113.77159c-5.31891,-12.31652 0.35379,-26.61289 12.67031,-31.93179c12.31653,-5.31891 26.61289,0.35379 31.93179,12.67032c0.49785,1.15282 -44.60212,19.26148 -44.60212,19.26148z" data-paper-data="{&quot;index&quot;:null}" fill="#ff6f00" stroke="#000000" stroke-width="2"/><path d="M229.09589,157.34137c0,-1.38071 1.11929,-2.5 2.5,-2.5c1.38071,0 2.5,1.11929 2.5,2.5c0,1.38071 -1.11929,2.5 -2.5,2.5c-1.38071,0 -2.5,-1.11929 -2.5,-2.5z" fill="#e46300" stroke="none" stroke-width="0.5"/></g></g></svg>