<svg version="1.1" xmlns="http://www.w3.org/2000/svg" xmlns:xlink="http://www.w3.org/1999/xlink" width="34.17311" height="34.17311" viewBox="0,0,34.17311,34.17311"><g transform="translate(-222.91346,-162.91346)"><g data-paper-data="{&quot;isPaintingLayer&quot;:true}" stroke="none" stroke-miterlimit="10" stroke-dasharray="" stroke-dashoffset="0" style="mix-blend-mode: normal"><path d="M229.98313,162.91346h20.03378c3.9166,0 7.06966,3.15307 7.06966,7.06966v20.03379c0,3.91659 -3.15306,7.06966 -7.06966,7.06966h-20.03378c-3.91659,0 -7.06967,-3.15307 -7.06967,-7.06966v-20.03379c0,-3.91659 3.15308,-7.06966 7.06967,-7.06966z" fill-opacity="0.09677" fill="#191919" fill-rule="evenodd" stroke-width="4.43922" stroke-linecap="round" stroke-linejoin="round"/><path d="M236.55655,172.09948c1.61318,0.23258 0.97903,5.18638 2.3418,4.29233c1.06349,-0.69771 2.14846,-4.78137 4.12923,-4.25752c0.49922,0.13203 2.06964,0.56125 2.31251,0.99998c0.37078,0.66981 0.44824,2.87907 0.74399,2.17291c0.1454,-0.34715 0.7508,-2.03998 1.19511,-2.88533c1.20493,-2.29253 4.276,-3.30183 5.23296,-0.26139c1.02102,3.24397 1.08723,8.6692 0.4589,11.87584c-1.09682,5.59757 -9.01346,1.44984 -11.96823,1.03682c-1.49644,-0.20917 -12.69482,1.17695 -11.54351,-3.57854c-0.00005,-0.0062 -0.00007,-0.01241 -0.00007,-0.01862c0,-0.46583 0.12741,-0.90191 0.34928,-1.27528c1.02959,-3.51347 3.12017,-8.62424 6.74803,-8.1012z" fill="#333333" fill-rule="nonzero" stroke-width="0.5" stroke-linecap="butt" stroke-linejoin="miter"/></g></g></svg>