<svg version="1.1" xmlns="http://www.w3.org/2000/svg" xmlns:xlink="http://www.w3.org/1999/xlink" width="34.17311" height="34.17311" viewBox="0,0,34.17311,34.17311"><g transform="translate(-222.91347,-162.91347)"><g data-paper-data="{&quot;isPaintingLayer&quot;:true}" stroke-miterlimit="10" stroke-dasharray="" stroke-dashoffset="0" style="mix-blend-mode: normal"><path d="M229.98313,162.91348h20.03379c3.9166,0 7.06966,3.15307 7.06966,7.06966v20.03379c0,3.91659 -3.15306,7.06966 -7.06966,7.06966h-20.03379c-3.91659,0 -7.06966,-3.15307 -7.06966,-7.06966v-20.03379c0,-3.91659 3.15307,-7.06966 7.06966,-7.06966z" fill="#ff6f00" fill-rule="evenodd" stroke="none" stroke-width="4.43922" stroke-linecap="round" stroke-linejoin="round"/><path d="M250.82987,177.49724c0,5.64639 -4.87631,10.22371 -10.89153,10.22371c-6.01522,0 -10.89152,-4.57731 -10.89152,-10.22371" data-paper-data="{&quot;index&quot;:null}" fill="#ffa763" fill-rule="nonzero" stroke="#000000" stroke-width="0.5" stroke-linecap="butt" stroke-linejoin="miter"/><path d="M237.62271,178.14087c0,2.0346 -2.1059,3.68398 -4.70365,3.68398c-2.59775,0 -4.70365,-1.64937 -4.70365,-3.68398c0,-2.0346 2.1059,-3.68398 4.70365,-3.68398c2.59775,0 4.70365,1.64937 4.70365,3.68398z" data-paper-data="{&quot;index&quot;:null}" fill="#ffbe8c" fill-rule="nonzero" stroke="#000000" stroke-width="0.5" stroke-linecap="butt" stroke-linejoin="miter"/><path d="M246.24058,177.31854c0,2.48875 -2.07644,4.50629 -4.63786,4.50629c-2.56142,0 -4.63786,-2.01753 -4.63786,-4.50629c0,-2.48875 2.07644,-4.50629 4.63786,-4.50629c2.56142,0 4.63786,2.01753 4.63786,4.50629z" fill="#ffb983" fill-rule="nonzero" stroke="#000000" stroke-width="0.5" stroke-linecap="butt" stroke-linejoin="miter"/><path d="M252.68754,177.48301c0,1.92561 -1.48738,3.48662 -3.32216,3.48662c-1.83478,0 -3.32216,-1.56101 -3.32216,-3.48662c0,-1.92561 1.48738,-3.48662 3.32216,-3.48662c1.83478,0 3.32216,1.56101 3.32216,3.48662z" fill="#ffbd8a" fill-rule="nonzero" stroke="#000000" stroke-width="0.5" stroke-linecap="butt" stroke-linejoin="miter"/></g></g></svg>