<svg version="1.1" xmlns="http://www.w3.org/2000/svg" xmlns:xlink="http://www.w3.org/1999/xlink" width="199.49648" height="294.60572" viewBox="0,0,199.49648,294.60572"><g transform="translate(-134.33719,-19.00679)"><g data-paper-data="{&quot;isPaintingLayer&quot;:true}" fill-rule="nonzero" stroke-linejoin="miter" stroke-miterlimit="10" stroke-dasharray="" stroke-dashoffset="0" style="mix-blend-mode: normal"><path d="M179.48375,313.61251v-267.22501h123.18203v267.22501z" fill-opacity="0.01" fill="#000000" stroke="none" stroke-width="0" stroke-linecap="butt"/><path d="M206.75007,307.5l15.14285,-131.8421l37.78325,-0.15789l13.57389,132z" fill="#804400" stroke="#000000" stroke-width="2" stroke-linecap="butt"/><path d="M219.70029,204.11263l3.12142,-26.32765l35.83075,-0.14203l2.76735,26.1059c0,0 -7.51543,4.19603 -21.55904,4.50964c-12.48458,0.27879 -20.16049,-4.14586 -20.16049,-4.14586z" fill="#663600" stroke="#000000" stroke-width="0" stroke-linecap="butt"/><path d="M176.56303,136.89999c0,-0.72799 5.20666,55.91939 63.36046,56.93429c55.56352,0.9697 63.51358,-57.95314 63.51358,-56.93429c0,32.80479 -28.40173,59.39833 -63.43702,59.39833c-35.03529,0 -63.43702,-26.59354 -63.43702,-59.39833z" fill="#663600" stroke="#000000" stroke-width="0" stroke-linecap="butt"/><path d="M176.28863,136.84616c0,-33.30185 28.7599,-60.29833 64.23702,-60.29833c35.47712,0 64.23702,26.99649 64.23702,60.29833c0,33.30185 -28.7599,60.29833 -64.23702,60.29833c-35.47712,0 -64.23702,-26.99649 -64.23702,-60.29833z" fill="#804400" stroke="#000000" stroke-width="2" stroke-linecap="butt"/><path d="M189.3902,137.27563c0,-12.968 10.51265,-23.48065 23.48065,-23.48065c12.968,0 23.48065,10.51265 23.48065,23.48065c0,12.968 -10.51265,23.48065 -23.48065,23.48065c-12.968,0 -23.48065,-10.51265 -23.48065,-23.48065z" fill="#ffffff" stroke="#000000" stroke-width="2" stroke-linecap="butt"/><path d="M189.95557,139.25c0,-9.12808 7.39976,-16.52784 16.52783,-16.52784c9.12808,0 16.52784,7.39977 16.52784,16.52784c0,9.12808 -7.39977,16.52784 -16.52784,16.52784c-9.12808,0 -16.52783,-7.39977 -16.52783,-16.52784z" fill="#000000" stroke="none" stroke-width="0" stroke-linecap="butt"/><path d="M227.50706,176.65643h25.10959" fill="none" stroke="#000000" stroke-width="2" stroke-linecap="round"/><path d="M267.12926,160.75627c-12.968,0 -23.48065,-10.51265 -23.48065,-23.48065c0,-12.968 10.51265,-23.48065 23.48065,-23.48065c12.968,0 23.48065,10.51265 23.48065,23.48065c0,12.968 -10.51265,23.48065 -23.48065,23.48065z" data-paper-data="{&quot;index&quot;:null}" fill="#ffffff" stroke="#000000" stroke-width="2" stroke-linecap="butt"/><path d="M273.51671,151.02784c-9.12807,0 -16.52783,-7.39977 -16.52783,-16.52784c0,-9.12808 7.39977,-16.52784 16.52783,-16.52784c9.12807,0 16.52783,7.39977 16.52783,16.52784c0,9.12808 -7.39977,16.52784 -16.52783,16.52784z" data-paper-data="{&quot;index&quot;:null}" fill="#000000" stroke="none" stroke-width="0" stroke-linecap="butt"/><path d="M202.02788,108.46716c0,0 6.70895,-5.16922 11.79721,-6.36355c5.08827,-1.19433 12.33413,0.69937 12.33413,0.69937c0,0 -8.03812,-0.06028 -11.96762,0.86207c-4.10648,0.96389 -12.16372,4.80211 -12.16372,4.80211z" fill="#000000" stroke="none" stroke-width="0" stroke-linecap="butt"/><path d="M265.96236,103.66506c-3.9295,-0.92235 -11.96762,-0.86207 -11.96762,-0.86207c0,0 7.24586,-1.8937 12.33413,-0.69937c5.08826,1.19433 11.79721,6.36355 11.79721,6.36355c0,0 -8.05724,-3.83822 -12.16372,-4.80211z" data-paper-data="{&quot;index&quot;:null}" fill="#000000" stroke="none" stroke-width="0" stroke-linecap="butt"/><path d="M217.67795,53.65405c0,-18.58286 9.64121,-33.64725 21.53426,-33.64725c11.89304,0 21.53426,15.06439 21.53426,33.64725c0,18.58286 -9.64121,33.64725 -21.53426,33.64725c-11.89304,0 -21.53426,-15.06439 -21.53426,-33.64725z" fill="#804400" stroke="#000000" stroke-width="2" stroke-linecap="butt"/><path d="M280.2364,112.93004c-7.6423,-7.77484 -2.87943,-24.84895 10.63816,-38.13611c13.51759,-13.28715 30.67106,-17.75577 38.31336,-9.98094c7.6423,7.77484 2.87943,24.84895 -10.63816,38.13611c-13.51759,13.28715 -30.67106,17.75577 -38.31336,9.98094z" fill="#804400" stroke="#000000" stroke-width="2" stroke-linecap="butt"/><path d="M195.24158,203.05866c-13.51759,13.28716 -30.67107,17.75577 -38.31336,9.98094c-7.64229,-7.77483 -2.87943,-24.84894 10.63816,-38.1361c13.51759,-13.28716 30.67108,-17.75578 38.31337,-9.98095c7.6423,7.77484 2.87943,24.84896 -10.63816,38.13611z" fill="#804400" stroke="#000000" stroke-width="2" stroke-linecap="butt"/><path d="M177.29631,82.93434c13.51759,13.28715 18.28046,30.36128 10.63816,38.13611c-7.64229,7.77483 -24.79578,3.30621 -38.31337,-9.98095c-13.51759,-13.28715 -18.28045,-30.36127 -10.63816,-38.1361c7.64229,-7.77483 24.79577,-3.30621 38.31336,9.98094z" data-paper-data="{&quot;index&quot;:null}" fill="#804400" stroke="#000000" stroke-width="2" stroke-linecap="butt"/><path d="M313.74492,184.38982c13.51759,13.28715 18.28046,30.36128 10.63816,38.13611c-7.64229,7.77483 -24.79578,3.30621 -38.31337,-9.98094c-13.51759,-13.28715 -18.28046,-30.36127 -10.63816,-38.1361c7.64229,-7.77483 24.79578,-3.30622 38.31337,9.98094z" data-paper-data="{&quot;index&quot;:null}" fill="#804400" stroke="#000000" stroke-width="2" stroke-linecap="butt"/><path d="M240.28006,175.67189l-0.05068,-0.16612c-0.66082,-0.11178 -1.27755,-0.3532 -1.82313,-0.6972c-0.21723,0.19112 -0.43492,0.38188 -0.65301,0.57233c0.90019,0.25405 1.8029,0.49933 2.70846,0.72786c-0.1247,-0.26603 -0.18164,-0.43687 -0.18164,-0.43687zM228.76181,182.72829c-1.39991,0.58541 -3.54169,0.86389 -5.51458,-1.39087c-3.2925,-3.7629 0.4704,-7.0554 0.4704,-7.0554c3.3387,-2.92117 6.78786,-5.76976 10.063,-8.74973c0.91914,-0.8363 1.58362,-1.97541 2.6361,-2.6361c1.96623,-1.23431 3.99583,-3.26863 6.29843,-2.97256c2.16826,0.2788 3.2637,2.91012 4.85699,4.40695c1.43622,1.34927 2.49002,3.05569 3.68939,4.61927c4.22662,5.51011 11.22799,12.95582 1.75394,18.57667c-1.59038,0.94355 -3.70043,-0.01452 -5.54617,-0.12786c-6.25571,-0.38414 -12.32945,-2.39574 -18.31794,-4.10673z" fill="#000000" stroke="none" stroke-width="0.5" stroke-linecap="butt"/></g></g></svg>