<svg version="1.1" xmlns="http://www.w3.org/2000/svg" xmlns:xlink="http://www.w3.org/1999/xlink" width="34.17311" height="34.17311" viewBox="0,0,34.17311,34.17311"><g transform="translate(-222.91346,-162.91346)"><g data-paper-data="{&quot;isPaintingLayer&quot;:true}" stroke="none" stroke-miterlimit="10" stroke-dasharray="" stroke-dashoffset="0" style="mix-blend-mode: normal"><path d="M229.98313,162.91347h20.03379c3.9166,0 7.06966,3.15307 7.06966,7.06966v20.03379c0,3.91659 -3.15306,7.06966 -7.06966,7.06966h-20.03379c-3.91659,0 -7.06966,-3.15307 -7.06966,-7.06966v-20.03379c0,-3.91659 3.15307,-7.06966 7.06966,-7.06966z" fill="#0b00ff" fill-rule="evenodd" stroke-width="4.43922" stroke-linecap="round" stroke-linejoin="round"/><path d="M234.85264,169.63117c0.6273,-0.10148 2.01484,0.04043 2.47053,0.4941c0.58943,0.58681 0.33135,2.61875 1.07721,2.25068c1.36269,-0.67247 2.16992,-1.52911 3.7423,-0.99076c0.82444,0.28227 1.13085,2.01662 1.95551,1.73503c0.71438,-0.24394 1.45484,-1.8413 2.37224,-1.57213c4.19874,1.23195 4.0543,6.82615 3.29448,10.65145c-0.75426,3.79732 -4.0102,1.85578 -6.5193,1.4881c-3.0253,-0.44332 -14.12565,0.58781 -13.05897,-4.96781c-0.0025,-0.04582 -0.00377,-0.09197 -0.00377,-0.13842c0,-0.44084 0.1141,-0.85503 0.31439,-1.21465c0.69653,-2.4974 2.3385,-7.40932 4.35537,-7.73559z" fill="#ffda00" fill-rule="nonzero" stroke-width="0.5" stroke-linecap="butt" stroke-linejoin="miter"/></g></g></svg>