<svg version="1.1" xmlns="http://www.w3.org/2000/svg" xmlns:xlink="http://www.w3.org/1999/xlink" width="163.06261" height="267.22501" viewBox="0,0,163.06261,267.22501"><g transform="translate(-175.19538,-46.38751)"><g data-paper-data="{&quot;isPaintingLayer&quot;:true}" fill-rule="nonzero" stroke-linecap="butt" stroke-linejoin="miter" stroke-miterlimit="10" stroke-dasharray="" stroke-dashoffset="0" style="mix-blend-mode: normal"><path d="M179.28387,313.61252v-267.22501h123.18203v267.22501z" fill-opacity="0.01" fill="#000000" stroke="none" stroke-width="0"/><path d="M206.75019,307.5l15.14285,-131.8421l37.78325,-0.15789l13.57389,132z" fill="#0b00ff" stroke="#000000" stroke-width="2"/><path d="M176.19538,133.84616c0,-33.30185 28.7599,-60.29833 64.23702,-60.29833c35.47712,0 64.23702,26.99649 64.23702,60.29833c0,33.30185 -28.7599,60.29833 -64.23702,60.29833c-35.47712,0 -64.23702,-26.99649 -64.23702,-60.29833z" fill="#0b00ff" stroke="#000000" stroke-width="2"/><path d="M176.56316,133.9c0,-0.72799 5.20666,55.91939 63.36046,56.93429c55.56352,0.9697 63.51358,-57.95314 63.51358,-56.93429c0,32.80479 -28.40173,59.39833 -63.43702,59.39833c-35.03529,0 -63.43702,-26.59354 -63.43702,-59.39833z" fill="#0b00e6" stroke="#000000" stroke-width="0"/><path d="M189.39031,134.27563c0,-12.968 10.51265,-23.48065 23.48065,-23.48065c12.968,0 23.48065,10.51265 23.48065,23.48065c0,12.968 -10.51265,23.48065 -23.48065,23.48065c-12.968,0 -23.48065,-10.51265 -23.48065,-23.48065z" fill="#ffffff" stroke="#000000" stroke-width="2"/><path d="M196.4557,134c0,-9.12808 7.39976,-16.52784 16.52783,-16.52784c9.12808,0 16.52784,7.39977 16.52784,16.52784c0,9.12808 -7.39977,16.52784 -16.52784,16.52784c-9.12808,0 -16.52783,-7.39977 -16.52783,-16.52784z" fill="#000000" stroke="none" stroke-width="0"/><path d="M267.12933,157.75627c-12.968,0 -23.48065,-10.51265 -23.48065,-23.48065c0,-12.968 10.51265,-23.48065 23.48065,-23.48065c12.968,0 23.48065,10.51265 23.48065,23.48065c0,12.968 -10.51265,23.48065 -23.48065,23.48065z" data-paper-data="{&quot;index&quot;:null}" fill="#ffffff" stroke="#000000" stroke-width="2"/><path d="M267.01671,150.52784c-9.12807,0 -16.52783,-7.39977 -16.52783,-16.52784c0,-9.12808 7.39977,-16.52784 16.52783,-16.52784c9.12807,0 16.52783,7.39977 16.52783,16.52784c0,9.12808 -7.39977,16.52784 -16.52783,16.52784z" data-paper-data="{&quot;index&quot;:null}" fill="#000000" stroke="none" stroke-width="0"/><path d="M189.6402,134.38277c0,-12.96801 10.51265,-23.48065 23.48066,-23.48065c12.96801,0 23.48065,10.51264 23.48065,23.48065c0,0 -5.87479,-10.56517 -24.09973,-9.95546c-16.46595,0.55086 -22.86157,10.57207 -22.86157,9.95546z" fill="#0900cc" stroke="#000000" stroke-width="2"/><path d="M243.64865,133.88277c0,-12.96801 10.51264,-23.48065 23.48065,-23.48065c12.96801,0 23.48066,10.51264 23.48066,23.48065c0,0.60606 -6.03889,-9.84977 -23.59162,-9.94767c-17.30256,-0.0965 -23.36969,9.94767 -23.36969,9.94767z" data-paper-data="{&quot;index&quot;:null}" fill="#0900cc" stroke="#000000" stroke-width="2"/><path d="M202.70118,101.64664c0,0 5.91947,-6.0573 10.79049,-7.95199c4.87103,-1.8947 12.31061,-1.03373 12.31061,-1.03373c0,0 -7.96745,1.06529 -11.72918,2.52851c-3.93116,1.52912 -11.37193,6.45722 -11.37193,6.45722z" fill="#000000" stroke="none" stroke-width="0"/><path d="M266.00721,95.21006c-3.83566,-1.25676 -11.8492,-1.88775 -11.8492,-1.88775c0,0 7.38184,-1.26376 12.34859,0.3636c4.96674,1.62735 11.20645,7.35421 11.20645,7.35421c0,0 -7.69744,-4.5167 -11.70584,-5.83006z" data-paper-data="{&quot;index&quot;:null}" fill="#000000" stroke="none" stroke-width="0"/><path d="M250.00842,173.66667c0,4.44129 -4.48088,8.04167 -10.00834,8.04167c-5.52746,0 -10.00834,-3.60038 -10.00834,-8.04167c0,-4.44129 4.48088,-8.04167 10.00834,-8.04167c5.52746,0 10.00834,3.60038 10.00834,8.04167z" fill="#000000" stroke="none" stroke-width="0"/><path d="M259.87607,81.67073c-2.19459,-5.85203 3.65744,-8.04662 3.65744,-8.04662c5.96317,-2.11692 11.29228,-7.11492 16.64976,-10.46393c0.66376,-0.41492 5.66033,-3.60836 6.31262,-3.6976c2.9792,-0.40756 6.68613,-1.73441 9.01938,0.16234c3.65697,2.97281 2.49106,12.15725 1.57642,16.43305c-0.28587,1.33638 -0.65612,2.65313 -0.99992,3.9761c0.75948,-0.37346 1.52047,-0.74397 2.27739,-1.12238c3.46889,-1.89208 11.38914,-7.36598 15.47308,-4.00791c5.66102,4.65483 3.64993,9.8848 2.44361,15.00782c2.66791,-0.89295 8.80251,-2.92947 9.88189,-3.2881l0.25567,0.03385l-0.02412,-0.09649l2.70686,-0.67673c0.52618,-0.14383 1.08005,-0.22061 1.65185,-0.22061c3.45178,0 6.25,2.79822 6.25,6.25c0,0.92346 -0.20028,1.80015 -0.55978,2.58899l-2.07772,4.84798l-0.2236,-0.09583c-0.10245,0.38228 -0.21699,0.7617 -0.34564,1.13777c-0.61703,1.80382 -2.74228,2.65759 -3.97742,4.10979c-4.69896,5.52468 -9.84971,10.78753 -14.38516,16.47553c-1.54312,1.93526 -3.96805,7.07507 -6.03642,7.60008c-3.19624,0.8113 -6.73055,-0.16206 -9.79667,-1.37577c-1.57203,-0.62228 -6.13026,-6.02499 -7.59379,-7.63918c-7.99471,-8.81771 -15.01971,-18.92982 -20.91062,-29.29202c-1.01644,-1.46478 -2.03289,-2.92956 -3.04933,-4.39435v-0.00001v0.00001l-0.33304,-0.48106c-1.05198,0.32119 -5.89211,1.47678 -7.84274,-3.72473z" fill="#fffa00" stroke="#000000" stroke-width="2.5"/></g></g></svg>