<svg version="1.1" xmlns="http://www.w3.org/2000/svg" xmlns:xlink="http://www.w3.org/1999/xlink" width="34.17311" height="34.17311" viewBox="0,0,34.17311,34.17311"><g transform="translate(-222.91344,-162.91344)"><g data-paper-data="{&quot;isPaintingLayer&quot;:true}" fill="#804400" stroke-miterlimit="10" stroke-dasharray="" stroke-dashoffset="0" style="mix-blend-mode: normal"><path d="M229.98311,162.91345h20.03379c3.9166,0 7.06966,3.15307 7.06966,7.06966v20.03379c0,3.91659 -3.15306,7.06966 -7.06966,7.06966h-20.03379c-3.91659,0 -7.06966,-3.15307 -7.06966,-7.06966v-20.03379c0,-3.91659 3.15307,-7.06966 7.06966,-7.06966z" fill-rule="evenodd" stroke="none" stroke-width="4.43922" stroke-linecap="round" stroke-linejoin="round"/><path d="M229.82079,186.08107c0,-5.67222 4.8986,-10.27046 10.94133,-10.27046c6.04273,0 10.94133,4.59824 10.94133,10.27046" fill-rule="nonzero" stroke="#000000" stroke-width="0.5" stroke-linecap="butt" stroke-linejoin="miter"/><path d="M243.04425,172.77464c0,2.97924 -0.92778,5.3944 -2.07224,5.3944c-1.14447,0 -2.07224,-2.41516 -2.07224,-5.3944c0,-2.97924 0.92777,-5.3944 2.07224,-5.3944c1.00856,0 1.84883,1.8756 2.03418,4.35997c0.02498,0.33479 0.03806,0.68063 0.03806,1.03442z" fill-rule="nonzero" stroke="#000000" stroke-width="0.5" stroke-linecap="butt" stroke-linejoin="miter"/><path d="M231.23687,173.88284c1.96267,2.54691 2.99363,5.04321 2.30271,5.57564c-0.69092,0.53243 -2.84208,-1.10063 -4.80475,-3.64754c-1.96267,-2.54691 -2.99363,-5.0432 -2.30271,-5.57563c0.69092,-0.53243 2.84208,1.10062 4.80475,3.64753z" data-paper-data="{&quot;index&quot;:null}" fill-rule="nonzero" stroke="#000000" stroke-width="0.5" stroke-linecap="butt" stroke-linejoin="miter"/><path d="M229.00049,189.62618c1.96267,-2.54691 2.99363,-5.0432 2.30271,-5.57563c-0.69092,-0.53243 -2.84208,1.10063 -4.80475,3.64753c-1.96267,2.54691 -2.99363,5.0432 -2.30271,5.57563c0.69092,0.53243 2.84208,-1.10063 4.80475,-3.64753z" fill-rule="nonzero" stroke="#000000" stroke-width="0.5" stroke-linecap="butt" stroke-linejoin="miter"/><path d="M241.92622,191.3922c0,2.97924 -0.92777,5.3944 -2.07224,5.3944c-1.14446,0 -2.07224,-2.41516 -2.07224,-5.3944c0,-2.97924 0.92777,-5.3944 2.07224,-5.3944c1.00856,0 1.84883,1.8756 2.03418,4.35997c0.02498,0.33479 0.03806,0.68063 0.03806,1.03442z" fill-rule="nonzero" stroke="#000000" stroke-width="0.5" stroke-linecap="butt" stroke-linejoin="miter"/><path d="M252.34547,189.28378c2.16501,2.80948 3.30226,5.56314 2.54011,6.15046c-0.76215,0.58732 -3.13509,-1.2141 -5.3001,-4.02358c-2.16501,-2.80948 -3.30226,-5.56313 -2.54011,-6.15045c0.76215,-0.58732 3.13509,1.21409 5.3001,4.02357z" data-paper-data="{&quot;index&quot;:null}" fill-rule="nonzero" stroke="#000000" stroke-width="0.5" stroke-linecap="butt" stroke-linejoin="miter"/><path d="M252.02567,174.62744c1.96267,-2.54691 2.99363,-5.0432 2.30271,-5.57563c-0.69092,-0.53243 -2.84208,1.10063 -4.80475,3.64753c-1.96267,2.54691 -2.99363,5.0432 -2.30271,5.57563c0.69092,0.53243 2.84208,-1.10063 4.80475,-3.64753z" fill-rule="nonzero" stroke="#000000" stroke-width="0.5" stroke-linecap="butt" stroke-linejoin="miter"/></g></g></svg>