<svg version="1.1" xmlns="http://www.w3.org/2000/svg" xmlns:xlink="http://www.w3.org/1999/xlink" width="143.57227" height="305.91729" viewBox="0,0,143.57227,305.91729"><g transform="translate(-170.78038,-7.69524)"><g data-paper-data="{&quot;isPaintingLayer&quot;:true}" fill-rule="nonzero" stroke-linejoin="miter" stroke-miterlimit="10" stroke-dasharray="" stroke-dashoffset="0" style="mix-blend-mode: normal"><path d="M184.08626,115.42419c0,0 -29.34739,-102.91997 2.59948,-106.60088c32.62921,-3.75954 30.09158,76.49985 30.09158,76.49985" fill="#ff80ee" stroke="#000000" stroke-width="2" stroke-linecap="round"/><path d="M263.31706,85.32316c0,0 -2.53764,-80.25939 30.09158,-76.49985c31.94687,3.68091 2.59948,106.60088 2.59948,106.60088" data-paper-data="{&quot;index&quot;:null}" fill="#ff80ee" stroke="#000000" stroke-width="2" stroke-linecap="round"/><path d="M179.28374,313.61253v-267.22501h123.18203v267.22501z" fill-opacity="0.01" fill="#000000" stroke="none" stroke-width="0" stroke-linecap="butt"/><path d="M206.75005,307.50003l15.14285,-131.8421l37.78325,-0.15789l13.57389,132z" fill="#ff80ee" stroke="#000000" stroke-width="2" stroke-linecap="butt"/><path d="M219.70028,204.11266l3.12142,-26.32765l35.83075,-0.14203l2.76735,26.1059c0,0 -7.51543,4.19603 -21.55904,4.50964c-12.48458,0.27879 -20.16049,-4.14586 -20.16049,-4.14586z" fill="#e673d6" stroke="#000000" stroke-width="0" stroke-linecap="butt"/><path d="M175.83996,136.84617c0,-33.30185 28.7599,-60.29833 64.23702,-60.29833c35.47712,0 64.23702,26.99649 64.23702,60.29833c0,33.30185 -28.7599,60.29833 -64.23702,60.29833c-35.47712,0 -64.23702,-26.99649 -64.23702,-60.29833z" fill="#ff80ee" stroke="#000000" stroke-width="2" stroke-linecap="butt"/><path d="M176.56303,136.90003c0,-0.72799 5.20666,55.91939 63.36046,56.93429c55.56352,0.9697 63.51358,-57.95314 63.51358,-56.93429c0,32.80479 -28.40173,59.39833 -63.43702,59.39833c-35.03529,0 -63.43702,-26.59354 -63.43702,-59.39833z" fill="#e673d6" stroke="#000000" stroke-width="0" stroke-linecap="butt"/><path d="M173.75455,45.23885c0,-12.968 10.51265,-23.48065 23.48065,-23.48065c12.968,0 23.48065,10.51265 23.48065,23.48065c0,12.968 -10.51265,23.48065 -23.48065,23.48065c-12.968,0 -23.48065,-10.51265 -23.48065,-23.48065z" fill="#ffffff" stroke="#000000" stroke-width="2" stroke-linecap="butt"/><path d="M180.46466,46.38455c0,-9.12808 7.39976,-16.52784 16.52783,-16.52784c9.12808,0 16.52784,7.39977 16.52784,16.52784c0,9.12808 -7.39977,16.52784 -16.52784,16.52784c-9.12808,0 -16.52783,-7.39977 -16.52783,-16.52784z" fill="#000000" stroke="none" stroke-width="0" stroke-linecap="butt"/><path d="M289.872,74.76042c-12.968,0 -23.48065,-10.51265 -23.48065,-23.48065c0,-12.968 10.51265,-23.48065 23.48065,-23.48065c12.968,0 23.48065,10.51265 23.48065,23.48065c0,12.968 -10.51265,23.48065 -23.48065,23.48065z" data-paper-data="{&quot;index&quot;:null}" fill="#ffffff" stroke="#000000" stroke-width="2" stroke-linecap="butt"/><path d="M291.89158,64.68923c-9.12807,0 -16.52783,-7.39977 -16.52783,-16.52784c0,-9.12808 7.39977,-16.52784 16.52783,-16.52784c9.12807,0 16.52783,7.39977 16.52783,16.52784c0,9.12808 -7.39977,16.52784 -16.52783,16.52784z" data-paper-data="{&quot;index&quot;:null}" fill="#000000" stroke="none" stroke-width="0" stroke-linecap="butt"/><path d="M177.83844,160.7205c0,35.03185 17.50075,63.43077 39.08902,63.43077c21.58827,0 39.08902,-28.39892 39.08902,-63.43077c0,-35.03185 -17.50075,-63.43077 -39.08902,-63.43077c-21.58827,0 -39.08902,28.39892 -39.08902,63.43077z" fill="#ffffff" stroke="#000000" stroke-width="2" stroke-linecap="butt"/></g></g></svg>