<svg version="1.1" xmlns="http://www.w3.org/2000/svg" xmlns:xlink="http://www.w3.org/1999/xlink" width="123.47839" height="269.43113" viewBox="0,0,123.47839,269.43113"><g transform="translate(-178.9874,-44.18138)"><g data-paper-data="{&quot;isPaintingLayer&quot;:true}" fill-rule="nonzero" stroke-linejoin="miter" stroke-miterlimit="10" stroke-dasharray="" stroke-dashoffset="0" style="mix-blend-mode: normal"><path d="M273.77673,45.18138l-13.57389,132l-37.78325,-0.15789l-15.14285,-131.8421z" data-paper-data="{&quot;index&quot;:null}" fill="#4dff5b" stroke="#000000" stroke-width="2" stroke-linecap="butt"/><path d="M179.28376,313.61251v-267.22501h123.18203v267.22501z" fill-opacity="0.01" fill="#000000" stroke="none" stroke-width="0" stroke-linecap="butt"/><path d="M206.75007,307.5l15.14285,-131.8421l37.78325,-0.15789l13.57389,132z" fill="#4dff5b" stroke="#000000" stroke-width="2" stroke-linecap="butt"/><path d="M180.07075,102.60717c0,-12.968 10.51265,-23.48065 23.48065,-23.48065c12.968,0 23.48065,10.51265 23.48065,23.48065c0,12.968 -10.51265,23.48065 -23.48065,23.48065c-12.968,0 -23.48065,-10.51265 -23.48065,-23.48065z" fill="#ffffff" stroke="#000000" stroke-width="2" stroke-linecap="butt"/><path d="M193.10057,107.92325c0,-9.12808 7.39976,-16.52784 16.52783,-16.52784c9.12808,0 16.52784,7.39977 16.52784,16.52784c0,9.12808 -7.39977,16.52784 -16.52784,16.52784c-9.12808,0 -16.52783,-7.39977 -16.52783,-16.52784z" fill="#000000" stroke="none" stroke-width="0" stroke-linecap="butt"/><path d="M262.16021,122.36003c-12.968,0 -23.48065,-10.51265 -23.48065,-23.48065c0,-12.968 10.51265,-23.48065 23.48065,-23.48065c12.968,0 23.48065,10.51265 23.48065,23.48065c0,12.968 -10.51265,23.48065 -23.48065,23.48065z" data-paper-data="{&quot;index&quot;:null}" fill="#ffffff" stroke="#000000" stroke-width="2" stroke-linecap="butt"/><path d="M261.42492,112.89497c-9.12807,0 -16.52783,-7.39977 -16.52783,-16.52784c0,-9.12808 7.39977,-16.52784 16.52783,-16.52784c9.12807,0 16.52783,7.39977 16.52783,16.52784c0,9.12808 -7.39977,16.52784 -16.52783,16.52784z" data-paper-data="{&quot;index&quot;:null}" fill="#000000" stroke="none" stroke-width="0" stroke-linecap="butt"/><path d="M179.98741,103.35281c0,-12.968 10.51265,-23.48065 23.48065,-23.48065c12.968,0 23.48065,10.51265 23.48065,23.48065c0,0 -46.96131,1.23155 -46.96131,0z" fill="#00cc11" stroke="#000000" stroke-width="2" stroke-linecap="butt"/><path d="M239.54805,96.26998c0,-12.968 10.51265,-23.48065 23.48065,-23.48065c12.968,0 23.48065,10.51265 23.48065,23.48065c0,1.2138 -46.96131,0 -46.96131,0z" data-paper-data="{&quot;index&quot;:null}" fill="#00cc11" stroke="#000000" stroke-width="2" stroke-linecap="butt"/><path d="M255.89789,137.83263c0,0 -5.208,4.8892 -13.68694,8.94107c-8.47894,4.05188 -15.46274,4.52685 -15.46274,4.52685" fill="none" stroke="#000000" stroke-width="2" stroke-linecap="round"/><path d="M224.3726,145.19799c2.11432,-2.11425 4.2286,-1.69978 5.58677,-1.0249c0.02111,-0.01916 0.04226,-0.03806 0.06345,-0.05671l-0.00002,-0.00001c0.01742,-0.05816 0.03517,-0.11577 0.05323,-0.17279c0.03183,-0.1005 0.06755,-0.1985 0.10691,-0.29416l0.23363,-1.88055c0.7446,-1.44496 0.86596,-3.4566 2.23379,-4.33487c2.29454,-1.4733 5.2867,-3.00055 7.88703,-2.18647c5.62106,-4.23598 13.35289,-8.9671 19.19377,-6.04002c8.74162,4.38075 0.87746,11.30752 -1.9684,13.46406c-4.14654,3.14216 -9.12294,5.22328 -14.16788,6.98038c-1.42818,1.88501 -3.32748,3.38993 -5.41023,4.06622c-1.69535,2.64795 -5.12794,1.96139 -5.12794,1.96139c-1.70256,-0.34054 -3.40512,-0.68105 -5.10769,-1.02156l-3.57652,-2.38894c0,0 -3.53548,-3.53559 0.00011,-7.07107z" fill="#000101" stroke="none" stroke-width="0.5" stroke-linecap="butt"/></g></g></svg>