<svg version="1.1" xmlns="http://www.w3.org/2000/svg" xmlns:xlink="http://www.w3.org/1999/xlink" width="34.17311" height="34.17311" viewBox="0,0,34.17311,34.17311"><g transform="translate(-222.91345,-162.91345)"><g data-paper-data="{&quot;isPaintingLayer&quot;:true}" fill-rule="evenodd" stroke-linecap="round" stroke-linejoin="round" stroke-miterlimit="10" stroke-dasharray="" stroke-dashoffset="0" style="mix-blend-mode: normal"><path d="M229.98313,162.91346h20.03378c3.9166,0 7.06966,3.15307 7.06966,7.06966v20.03379c0,3.91659 -3.15306,7.06966 -7.06966,7.06966h-20.03378c-3.91659,0 -7.06967,-3.15307 -7.06967,-7.06966v-20.03379c0,-3.91659 3.15308,-7.06966 7.06967,-7.06966z" fill-opacity="0.09677" fill="#191919" stroke="none" stroke-width="4.43922"/><path d="M230.65075,175.05089h19.00478c1.15141,0 2.07835,0.92694 2.07835,2.07835v5.88955c0,1.1514 -0.92694,2.07835 -2.07835,2.07835h-19.00478c-1.1514,0 -2.07835,-0.92694 -2.07835,-2.07835v-5.88955c0,-1.1514 0.92694,-2.07835 2.07835,-2.07835z" fill="#919191" stroke="#000000" stroke-width="0.5"/></g></g></svg>