<svg version="1.1" xmlns="http://www.w3.org/2000/svg" xmlns:xlink="http://www.w3.org/1999/xlink" width="123.18203" height="267.22501" viewBox="0,0,123.18203,267.22501"><g transform="translate(-179.28375,-46.38752)"><g data-paper-data="{&quot;isPaintingLayer&quot;:true}" fill-rule="nonzero" stroke-linecap="butt" stroke-linejoin="miter" stroke-miterlimit="10" stroke-dasharray="" stroke-dashoffset="0" style="mix-blend-mode: normal"><path d="M206.75007,307.50001l15.14285,-131.8421l37.78325,-0.15789l13.57389,132z" fill="#ff6f00" stroke="#000000" stroke-width="2"/><path d="M219.70029,204.11265l3.12142,-26.32765l35.83075,-0.14203l2.76735,26.1059c0,0 -7.51543,4.19603 -21.55904,4.50964c-12.48458,0.27879 -20.16049,-4.14586 -20.16049,-4.14586z" fill="#e46300" stroke="#000000" stroke-width="0"/><path d="M213.21842,157.25346c0,-2.67554 -3.28348,-11.6704 -2.92363,-14.2538c4.11913,-29.57171 8.5154,-54.71728 41.14221,-54.71728c35.47712,0 41.6877,25.26196 41.6877,58.5638c0,33.30185 -6.21058,62.03286 -41.6877,62.03286c-35.47712,0 -38.21858,-18.32373 -38.21858,-51.62557z" fill="#ff6f00" stroke="#000000" stroke-width="2"/><path d="M179.28375,313.61253v-267.22501h123.18203v267.22501z" fill-opacity="0.01" fill="#000000" stroke="none" stroke-width="0"/><g data-paper-data="{&quot;index&quot;:null}" fill="none" stroke="none" stroke-width="1" font-family="sans-serif" font-weight="normal" font-size="12" text-anchor="start"/><path d="M206.50667,140.13125c-0.16331,-2.67055 -3.9897,-11.44822 -3.78821,-14.04877c2.30644,-29.768 5.15966,-55.13503 37.72564,-57.12652c35.41097,-2.16547 43.15193,22.6703 45.18462,55.91005c2.03269,33.23976 -2.41261,62.29628 -37.82358,64.46175c-35.41097,2.16547 -39.26578,-15.95676 -41.29847,-49.19651z" fill="#ff6f00" stroke="#000000" stroke-width="2"/><path d="M188.2337,104.11528c0,-12.968 10.51265,-23.48065 23.48065,-23.48065c12.968,0 23.48065,10.51265 23.48065,23.48065c0,12.968 -10.51265,23.48065 -23.48065,23.48065c-12.968,0 -23.48065,-10.51265 -23.48065,-23.48065z" fill="#ffffff" stroke="#000000" stroke-width="2"/><path d="M199.92469,105.57429c0,-9.12808 7.39976,-16.52784 16.52783,-16.52784c9.12808,0 16.52784,7.39977 16.52784,16.52784c0,9.12808 -7.39977,16.52784 -16.52784,16.52784c-9.12808,0 -16.52783,-7.39977 -16.52783,-16.52784z" fill="#000000" stroke="none" stroke-width="0"/><path d="M265.3947,122.97046c-12.968,0 -23.48065,-10.51265 -23.48065,-23.48065c0,-12.968 10.51265,-23.48065 23.48065,-23.48065c12.968,0 23.48065,10.51265 23.48065,23.48065c0,12.968 -10.51265,23.48065 -23.48065,23.48065z" data-paper-data="{&quot;index&quot;:null}" fill="#ffffff" stroke="#000000" stroke-width="2"/><path d="M262.96934,116.32018c-9.12807,0 -16.52783,-7.39977 -16.52783,-16.52784c0,-9.12808 7.39977,-16.52784 16.52783,-16.52784c9.12807,0 16.52783,7.39977 16.52783,16.52784c0,9.12808 -7.39977,16.52784 -16.52783,16.52784z" data-paper-data="{&quot;index&quot;:null}" fill="#000000" stroke="none" stroke-width="0"/><path d="M188.81191,102.95894c0,-12.968 10.51265,-23.48065 23.48065,-23.48065c12.968,0 23.48065,10.51265 23.48065,23.48065c0,0 -12.07121,2.81656 -23.9735,2.9682c-11.57377,0.14745 -22.98781,-2.36104 -22.98781,-2.9682z" fill="#ff6f00" stroke="#000000" stroke-width="2"/><path d="M242.4922,97.75518c0,-12.968 10.51265,-23.48065 23.48065,-23.48065c12.968,0 23.48065,10.51265 23.48065,23.48065c0,0.59472 -11.7739,3.10666 -23.27402,2.96412c-1.82151,-0.02258 -3.63712,-0.10692 -5.40646,-0.23369c-9.85882,-0.70638 -18.28083,-2.73043 -18.28083,-2.73043z" data-paper-data="{&quot;index&quot;:null}" fill="#ff6f00" stroke="#000000" stroke-width="2"/></g></g></svg>