<svg version="1.1" xmlns="http://www.w3.org/2000/svg" xmlns:xlink="http://www.w3.org/1999/xlink" width="34.17311" height="34.17311" viewBox="0,0,34.17311,34.17311"><g transform="translate(-222.91344,-162.91344)"><g data-paper-data="{&quot;isPaintingLayer&quot;:true}" stroke-miterlimit="10" stroke-dasharray="" stroke-dashoffset="0" style="mix-blend-mode: normal"><path d="M229.98312,162.91345h20.03378c3.9166,0 7.06966,3.15307 7.06966,7.06966v20.03379c0,3.91659 -3.15306,7.06966 -7.06966,7.06966h-20.03378c-3.91659,0 -7.06967,-3.15307 -7.06967,-7.06966v-20.03379c0,-3.91659 3.15308,-7.06966 7.06967,-7.06966z" fill-opacity="0.09677" fill="#191919" fill-rule="evenodd" stroke="none" stroke-width="4.43922" stroke-linecap="round" stroke-linejoin="round"/><path d="M230.14974,185.48902c0,-5.67222 4.8986,-10.27046 10.94133,-10.27046c6.04273,0 10.94133,4.59824 10.94133,10.27046" fill="#4d4d4d" fill-rule="nonzero" stroke="#000000" stroke-width="0.5" stroke-linecap="butt" stroke-linejoin="miter"/><path d="M237.51827,171.22869c0,-2.88841 1.28121,-5.22993 2.86166,-5.22993c1.58045,0 2.86166,2.34152 2.86166,5.22993c0,2.88841 -1.28121,5.22993 -2.86166,5.22993c-1.58045,0 -2.86166,-2.34152 -2.86166,-5.22993z" fill="#4d4d4d" fill-rule="nonzero" stroke="#000000" stroke-width="0.5" stroke-linecap="butt" stroke-linejoin="miter"/><path d="M248.21894,171.42367c1.72912,-2.31366 4.15713,-3.42228 5.42309,-2.47615c1.26597,0.94612 0.89051,3.58871 -0.83862,5.90237c-1.72912,2.31366 -4.15713,3.42228 -5.42309,2.47615c-1.26597,-0.94612 -0.89051,-3.58871 0.83862,-5.90237z" data-paper-data="{&quot;index&quot;:null}" fill="#4d4d4d" fill-rule="nonzero" stroke="#000000" stroke-width="0.5" stroke-linecap="butt" stroke-linejoin="miter"/><path d="M227.23375,186.5546c1.72913,-2.31366 4.15713,-3.42227 5.4231,-2.47615c1.26597,0.94612 0.89051,3.58871 -0.83862,5.90237c-1.72913,2.31366 -4.15713,3.42227 -5.42309,2.47615c-1.26596,-0.94612 -0.89051,-3.58871 0.83862,-5.90237z" fill="#4d4d4d" fill-rule="nonzero" stroke="#000000" stroke-width="0.5" stroke-linecap="butt" stroke-linejoin="miter"/><path d="M238.04488,189.51732c0,-2.88841 1.28121,-5.22993 2.86166,-5.22993c1.58045,0 2.86166,2.34152 2.86166,5.22993c0,2.88841 -1.28121,5.22993 -2.86166,5.22993c-1.58045,0 -2.86166,-2.34152 -2.86166,-5.22993z" fill="#4d4d4d" fill-rule="nonzero" stroke="#000000" stroke-width="0.5" stroke-linecap="butt" stroke-linejoin="miter"/><path d="M234.6304,178.83943c-1.26596,0.94612 -3.69397,-0.16249 -5.42309,-2.47615c-1.72913,-2.31366 -2.10459,-4.95624 -0.83862,-5.90237c1.26596,-0.94612 3.69397,0.16249 5.42309,2.47615c1.72913,2.31366 2.10458,4.95624 0.83862,5.90237z" data-paper-data="{&quot;index&quot;:null}" fill="#4d4d4d" fill-rule="nonzero" stroke="#000000" stroke-width="0.5" stroke-linecap="butt" stroke-linejoin="miter"/><path d="M255.08994,192.12837c-1.26596,0.94612 -3.69396,-0.16249 -5.42309,-2.47615c-1.72913,-2.31366 -2.10459,-4.95624 -0.83862,-5.90237c1.26596,-0.94612 3.69397,0.16249 5.4231,2.47615c1.72912,2.31366 2.10458,4.95624 0.83862,5.90237z" data-paper-data="{&quot;index&quot;:null}" fill="#4d4d4d" fill-rule="nonzero" stroke="#000000" stroke-width="0.5" stroke-linecap="butt" stroke-linejoin="miter"/></g></g></svg>