<svg version="1.1" xmlns="http://www.w3.org/2000/svg" xmlns:xlink="http://www.w3.org/1999/xlink" width="199.49648" height="294.60572" viewBox="0,0,199.49648,294.60572"><g transform="translate(-134.33719,-19.00679)"><g data-paper-data="{&quot;isPaintingLayer&quot;:true}" fill-rule="nonzero" stroke-linecap="butt" stroke-linejoin="miter" stroke-miterlimit="10" stroke-dasharray="" stroke-dashoffset="0" style="mix-blend-mode: normal"><path d="M179.48375,313.61251v-267.22501h123.18203v267.22501z" fill-opacity="0.01" fill="#000000" stroke="none" stroke-width="0"/><path d="M206.75007,307.5l15.14285,-131.8421l37.78325,-0.15789l13.57389,132z" fill="#804400" stroke="#000000" stroke-width="2"/><path d="M219.70029,204.11263l3.12142,-26.32765l35.83075,-0.14203l2.76735,26.1059c0,0 -7.51543,4.19603 -21.55904,4.50964c-12.48458,0.27879 -20.16049,-4.14586 -20.16049,-4.14586z" fill="#663600" stroke="#000000" stroke-width="0"/><path d="M176.56303,136.89999c0,-0.72799 5.20666,55.91939 63.36046,56.93429c55.56352,0.9697 63.51358,-57.95314 63.51358,-56.93429c0,32.80479 -28.40173,59.39833 -63.43702,59.39833c-35.03529,0 -63.43702,-26.59354 -63.43702,-59.39833z" fill="#663600" stroke="#000000" stroke-width="0"/><path d="M176.28863,136.84616c0,-33.30185 28.7599,-60.29833 64.23702,-60.29833c35.47712,0 64.23702,26.99649 64.23702,60.29833c0,33.30185 -28.7599,60.29833 -64.23702,60.29833c-35.47712,0 -64.23702,-26.99649 -64.23702,-60.29833z" fill="#804400" stroke="#000000" stroke-width="2"/><path d="M189.3902,137.27563c0,-12.968 10.51265,-23.48065 23.48065,-23.48065c12.968,0 23.48065,10.51265 23.48065,23.48065c0,12.968 -10.51265,23.48065 -23.48065,23.48065c-12.968,0 -23.48065,-10.51265 -23.48065,-23.48065z" fill="#ffffff" stroke="#000000" stroke-width="2"/><path d="M189.95557,139.25c0,-9.12808 7.39976,-16.52784 16.52783,-16.52784c9.12808,0 16.52784,7.39977 16.52784,16.52784c0,9.12808 -7.39977,16.52784 -16.52784,16.52784c-9.12808,0 -16.52783,-7.39977 -16.52783,-16.52784z" fill="#000000" stroke="none" stroke-width="0"/><path d="M267.12926,160.75627c-12.968,0 -23.48065,-10.51265 -23.48065,-23.48065c0,-12.968 10.51265,-23.48065 23.48065,-23.48065c12.968,0 23.48065,10.51265 23.48065,23.48065c0,12.968 -10.51265,23.48065 -23.48065,23.48065z" data-paper-data="{&quot;index&quot;:null}" fill="#ffffff" stroke="#000000" stroke-width="2"/><path d="M273.51671,151.02784c-9.12807,0 -16.52783,-7.39977 -16.52783,-16.52784c0,-9.12808 7.39977,-16.52784 16.52783,-16.52784c9.12807,0 16.52783,7.39977 16.52783,16.52784c0,9.12808 -7.39977,16.52784 -16.52783,16.52784z" data-paper-data="{&quot;index&quot;:null}" fill="#000000" stroke="none" stroke-width="0"/><path d="M202.02788,108.46716c0,0 6.70895,-5.16922 11.79721,-6.36355c5.08827,-1.19433 12.33413,0.69937 12.33413,0.69937c0,0 -8.03812,-0.06028 -11.96762,0.86207c-4.10648,0.96389 -12.16372,4.80211 -12.16372,4.80211z" fill="#000000" stroke="none" stroke-width="0"/><path d="M265.96236,103.66506c-3.9295,-0.92235 -11.96762,-0.86207 -11.96762,-0.86207c0,0 7.24586,-1.8937 12.33413,-0.69937c5.08826,1.19433 11.79721,6.36355 11.79721,6.36355c0,0 -8.05724,-3.83822 -12.16372,-4.80211z" data-paper-data="{&quot;index&quot;:null}" fill="#000000" stroke="none" stroke-width="0"/><path d="M217.67795,53.65405c0,-18.58286 9.64121,-33.64725 21.53426,-33.64725c11.89304,0 21.53426,15.06439 21.53426,33.64725c0,18.58286 -9.64121,33.64725 -21.53426,33.64725c-11.89304,0 -21.53426,-15.06439 -21.53426,-33.64725z" fill="#804400" stroke="#000000" stroke-width="2"/><path d="M280.2364,112.93004c-7.6423,-7.77484 -2.87943,-24.84895 10.63816,-38.13611c13.51759,-13.28715 30.67106,-17.75577 38.31336,-9.98094c7.6423,7.77484 2.87943,24.84895 -10.63816,38.13611c-13.51759,13.28715 -30.67106,17.75577 -38.31336,9.98094z" fill="#804400" stroke="#000000" stroke-width="2"/><path d="M195.24158,203.05866c-13.51759,13.28716 -30.67107,17.75577 -38.31336,9.98094c-7.64229,-7.77483 -2.87943,-24.84894 10.63816,-38.1361c13.51759,-13.28716 30.67108,-17.75578 38.31337,-9.98095c7.6423,7.77484 2.87943,24.84896 -10.63816,38.13611z" fill="#804400" stroke="#000000" stroke-width="2"/><path d="M177.29631,82.93434c13.51759,13.28715 18.28046,30.36128 10.63816,38.13611c-7.64229,7.77483 -24.79578,3.30621 -38.31337,-9.98095c-13.51759,-13.28715 -18.28045,-30.36127 -10.63816,-38.1361c7.64229,-7.77483 24.79577,-3.30621 38.31336,9.98094z" data-paper-data="{&quot;index&quot;:null}" fill="#804400" stroke="#000000" stroke-width="2"/><path d="M313.74492,184.38982c13.51759,13.28715 18.28046,30.36128 10.63816,38.13611c-7.64229,7.77483 -24.79578,3.30621 -38.31337,-9.98094c-13.51759,-13.28715 -18.28046,-30.36127 -10.63816,-38.1361c7.64229,-7.77483 24.79578,-3.30622 38.31337,9.98094z" data-paper-data="{&quot;index&quot;:null}" fill="#804400" stroke="#000000" stroke-width="2"/><path d="M270.0057,182.38864c-3.90432,3.1235 -7.02782,-0.78082 -7.02782,-0.78082l-1.95827,-2.46585c-0.85972,-1.43777 -1.57429,-2.97296 -2.57917,-4.3133c-1.5344,-2.04663 -3.18411,-4.02153 -5.01151,-5.81141c-1.05429,-1.03265 -2.13382,-3.14308 -3.53167,-2.6699c-3.75139,1.26989 -6.57537,4.42001 -9.77638,6.75218c-6.03675,4.3982 -7.44459,3.52828 -8.85132,8.95507c0,0 -1.37353,4.80764 -6.18117,3.43411c-4.80764,-1.37353 -3.43411,-6.18117 -3.43411,-6.18117c2.3429,-7.75611 5.516,-9.10402 12.56151,-14.27832c4.13921,-3.03988 9.60798,-8.17642 15.38195,-8.67738c1.73593,-0.15061 3.47356,0.63395 5.03355,1.4102c6.64491,3.3065 10.89768,9.52306 14.59861,15.67105l1.55662,1.92771c0,0 3.1235,3.90432 -0.78082,7.02782z" fill="#000000" stroke="none" stroke-width="0.5"/></g></g></svg>