<svg version="1.1" xmlns="http://www.w3.org/2000/svg" xmlns:xlink="http://www.w3.org/1999/xlink" width="34.17311" height="34.17311" viewBox="0,0,34.17311,34.17311"><g transform="translate(-222.91347,-162.91348)"><g data-paper-data="{&quot;isPaintingLayer&quot;:true}" stroke-miterlimit="10" stroke-dasharray="" stroke-dashoffset="0" style="mix-blend-mode: normal"><path d="M229.98314,162.91349h20.03379c3.9166,0 7.06966,3.15307 7.06966,7.06966v20.03379c0,3.91659 -3.15306,7.06966 -7.06966,7.06966h-20.03379c-3.91659,0 -7.06966,-3.15307 -7.06966,-7.06966v-20.03379c0,-3.91659 3.15307,-7.06966 7.06966,-7.06966z" fill="#00ff15" fill-rule="evenodd" stroke="none" stroke-width="4.43922" stroke-linecap="round" stroke-linejoin="round"/><path d="M251.30012,181.36441c0,6.21281 -5.15428,11.24929 -11.51242,11.24929c-6.35814,0 -11.51243,-5.03648 -11.51243,-11.24929c0,-6.21281 5.15429,-11.24929 11.51243,-11.24929c6.35814,0 11.51242,5.03648 11.51242,11.24929z" fill="none" fill-rule="nonzero" stroke="#ff0000" stroke-width="2.5" stroke-linecap="butt" stroke-linejoin="miter"/><path d="M242.91268,181.45077c0,1.78028 -1.63465,3.22348 -3.65108,3.22348c-2.01644,0 -3.65108,-1.4432 -3.65108,-3.22348c0,-1.78028 1.63464,-3.22348 3.65108,-3.22348c2.01644,0 3.65108,1.4432 3.65108,3.22348z" fill="#000000" fill-rule="nonzero" stroke="#ffffff" stroke-width="2.5" stroke-linecap="butt" stroke-linejoin="miter"/><path d="M231.66338,173.7539l15.06483,14.60433" fill="none" fill-rule="nonzero" stroke="#ff0000" stroke-width="2.5" stroke-linecap="round" stroke-linejoin="miter"/></g></g></svg>