<svg version="1.1" xmlns="http://www.w3.org/2000/svg" xmlns:xlink="http://www.w3.org/1999/xlink" width="189.25778" height="267.22501" viewBox="0,0,189.25778,267.22501"><g transform="translate(-174.84003,-46.3875)"><g data-paper-data="{&quot;isPaintingLayer&quot;:true}" fill-rule="nonzero" stroke-linecap="butt" stroke-linejoin="miter" stroke-miterlimit="10" stroke-dasharray="" stroke-dashoffset="0" style="mix-blend-mode: normal"><path d="M178.40901,313.61251v-267.22501h123.18203v267.22501z" fill-opacity="0.01" fill="#000000" stroke="none" stroke-width="0"/><path d="M210.41676,307.50003l13.62477,-131.8421l33.99545,-0.15789l12.2131,132z" fill="#0011a6" stroke="#000000" stroke-width="2"/><path d="M175.84004,136.51934c0,-33.30185 28.7599,-60.29833 64.23702,-60.29833c35.47712,0 64.23702,26.99649 64.23702,60.29833c0,33.30185 -28.7599,60.29833 -64.23702,60.29833c-35.47712,0 -64.23702,-26.99649 -64.23702,-60.29833z" fill="#0011a6" stroke="#000000" stroke-width="2"/><path d="M233.71431,132.54719c0,15.3458 -12.44022,27.78603 -27.78601,27.78603c-15.34579,0 -27.78601,-12.44023 -27.78601,-27.78603c0,-15.3458 12.44022,-27.78602 27.78601,-27.78602c15.34579,0 27.78601,12.44022 27.78601,27.78602z" fill="#ffffff" stroke="#000000" stroke-width="3"/><path d="M299.57257,130.75123c0,14.7139 -12.44022,26.64188 -27.78601,26.64188c-15.34579,0 -27.78601,-11.92798 -27.78601,-26.64187c0,-14.7139 12.44022,-26.64187 27.78601,-26.64187c15.34579,0 27.78601,11.92797 27.78601,26.64187z" data-paper-data="{&quot;index&quot;:null}" fill="#000000" stroke="#000000" stroke-width="3"/><path d="M363.15522,171.60936c-1.67269,1.67301 -3.34564,0.70763 -3.97823,0.22467c-8.31178,-2.50099 -16.63673,-5.07236 -24.68916,-8.31612c-3.03821,0.41853 -6.09955,0.6239 -9.44995,0.43295c-2.28776,-0.13039 -4.67577,0.23231 -6.85868,-0.4646c-0.50741,-0.16199 -9.12846,-6.61966 -9.26128,-6.72501c-0.85003,-0.67418 -1.86474,-1.23416 -2.82156,-1.83936c-0.27974,0.07564 -0.55797,0.15463 -0.83414,0.23826c-0.80023,-0.16923 -5.76261,-1.19241 -9.30122,-1.99419c-0.82533,0.28375 -1.65177,0.56426 -2.47985,0.83996c-2.21625,0.73788 -4.33827,2.08778 -6.67359,2.13755c-0.64036,0.01365 -10.75592,-3.72664 -11.30167,-3.92509c-0.94118,-0.34225 -11.45272,-4.13362 -11.9605,-4.45412c-4.69324,-2.96227 -6.45479,-9.18977 -5.70599,-14.27615c0.34021,-2.31094 0.0996,-4.8304 1.16244,-6.91043c0.99714,-1.95145 3.10236,-3.09753 4.71148,-4.58519c1.70774,-1.57885 3.17294,-3.53787 5.23605,-4.61151c1.39671,-0.72684 3.12398,-0.39986 4.69089,-0.55446c0.43608,-0.04303 12.14727,-1.01309 12.34779,-1.00364c0.39904,0.01882 1.1136,0.1216 2.0072,0.27508c7.82387,-2.51251 18.18405,-3.63793 25.61801,0.84647c1.65886,1.00068 2.81502,2.66298 4.18894,4.0288c1.40375,1.39546 2.76277,2.56343 3.87596,3.7869c1.12665,-0.21415 2.26906,-0.26275 3.40956,-0.09509c4.91503,0.72252 7.41876,3.77852 7.71477,7.82597c3.22184,-0.95281 6.63791,-1.94225 6.8207,-1.95673c1.81093,-0.14344 3.58696,0.57978 5.3733,0.90998c2.19117,0.40502 4.538,0.35508 6.55813,1.29547c3.21107,1.49478 7.58393,4.62516 7.57417,8.86933c-0.0046,2.00131 -1.01482,3.87301 -1.60158,5.78638c-0.68439,2.23174 -0.82265,4.76806 -2.21064,6.64491c-0.2124,0.28721 -1.85725,1.45101 -3.82802,2.7926c0.03818,0.14431 0.06948,0.29838 0.09298,0.46287c0.42426,2.96985 -2.54559,3.39411 -2.54559,3.39411l-3.58787,0.51255c5.32919,1.83552 10.73269,3.47201 16.12069,5.08541l1.58604,1.07886c0,0 2.12152,2.12112 0.0004,4.24264zM342.7837,155.52215c1.15057,-0.80688 2.29653,-1.62059 3.46943,-2.39441c1.39175,-0.91821 3.24791,-1.3144 4.23931,-2.655c0.9914,-1.3406 0.8116,-3.23586 1.29679,-4.83106c0.39515,-1.29917 1.07391,-2.51515 1.34247,-3.84627c0.35242,-1.74676 -2.33288,-2.89859 -3.98712,-3.56103c-1.64507,-0.65876 -3.49883,-0.56681 -5.24108,-0.89055c-1.32382,-0.24599 -2.61425,-0.93512 -3.95565,-0.81838c-2.77348,0.2414 -5.69146,1.22445 -8.47433,2.47885c-1.52464,2.59623 -4.32126,4.3757 -6.64664,6.03846c-0.3038,0.21723 -2.97808,2.12023 -5.51063,3.91427c0.58421,0.57781 1.31689,1.11143 1.73208,1.7694c0.51148,0.81059 0.38083,2.13416 1.21508,2.60608c1.39072,0.7867 3.16357,0.45893 4.73303,0.75861c3.44651,0.65809 6.77152,2.20098 10.27972,2.26525c1.82352,0.0334 3.60643,-0.54682 5.40965,-0.82023zM310.25469,140.26899c0.37613,-0.46823 0.75326,-0.93554 1.16361,-1.36335c0.23462,-0.2446 0.46836,-0.49012 0.70182,-0.73594c-0.73825,0.59003 -1.43172,1.21088 -1.83791,2.04169c-0.00936,0.01915 -0.01853,0.03835 -0.02752,0.0576zM315.87772,134.37328c0.81482,-0.61413 1.9717,-0.97702 2.34341,-1.86738c-0.26867,0.06131 -0.52193,0.15496 -0.74235,0.31965c-0.59692,0.446 -1.11199,0.98227 -1.60107,1.54773zM324.34355,130.63028c0.05253,1.00263 -0.04185,2.12902 -0.31385,3.42237c-0.21684,1.03104 -0.9013,1.83344 -1.70848,2.57258c1.71283,-0.97172 3.33738,-1.76151 4.57338,-2.30993c0.15139,-0.80803 0.04958,-1.68787 -0.41733,-2.64871c-0.41375,-0.85144 -1.22008,-1.0961 -2.13372,-1.03632zM295.33453,146.97896c2.50016,-0.86918 5.00946,-1.71272 7.50948,-2.58229c0.31437,-0.10391 0.63556,-0.19354 0.95963,-0.27708c0.23624,-2.20803 0.11708,-4.55704 1.08831,-6.54356c1.01398,-2.07394 3.10672,-3.41624 4.70452,-5.0825c1.64746,-1.71805 3.82494,-3.71878 6.28089,-5.28067c-0.86295,-0.77953 -1.74464,-1.44024 -2.28269,-1.96224c-1.09238,-1.05979 -1.92431,-2.43198 -3.2089,-3.24824c-2.80988,-1.78545 -6.3667,-2.30255 -9.96933,-2.15101c0.21369,0.48365 0.29885,1.09801 0.13538,1.8745c-0.61802,2.93565 -3.55367,2.31763 -3.55367,2.31763c-3.51873,-0.74099 -6.57976,-1.38728 -9.74173,-1.69283c-0.48896,0.11455 -0.95197,0.28116 -1.35023,0.58027c-1.37036,1.02921 -2.03436,2.76148 -3.13616,4.07419c-0.35577,0.42388 -1.17491,0.56996 -1.22446,1.12113c-0.33167,3.68917 1.81468,5.79638 3.58359,8.73474c2.31738,3.84942 5.44952,8.13784 9.83474,9.96896c0.123,0.05137 0.24656,0.101 0.37064,0.149zM288.82061,149.62043c-0.1116,-0.09009 -0.22409,-0.17856 -0.33782,-0.26478c-6.61233,-5.01299 -13.93072,-13.72567 -12.71583,-22.84422c0.17741,-1.33162 1.50595,-2.22809 2.33962,-3.28151c0.20628,-0.26065 0.40684,-0.52797 0.60465,-0.79867c-1.52335,0.13638 -3.04651,0.27585 -4.57266,0.37451c-0.923,0.05967 -1.96893,-0.38781 -2.77397,0.06762c-1.45853,0.82514 -2.34896,2.3926 -3.58155,3.52788c-1.11915,1.03081 -2.78391,1.60798 -3.46932,2.96639c-1.77916,3.52609 -1.19829,11.32974 2.6481,13.46423c3.27542,1.81764 7.07412,2.46756 10.59454,3.74771c1.87959,0.68348 3.77137,1.33431 5.63876,2.05046c1.2311,0.47213 2.33684,1.55968 3.65456,1.51354c0.68829,-0.0241 1.33662,-0.23897 1.97093,-0.52317zM313.63764,152.74848c0.93338,0.67481 1.84819,1.37581 2.76196,2.07769c-0.17382,-0.37336 -0.34943,-0.742 -0.54154,-1.08957c-0.29958,-0.54201 -0.6674,-1.07597 -1.04961,-1.61006c-0.08187,0.05537 -0.13626,0.09101 -0.1595,0.10431c-0.33001,0.18873 -0.66754,0.3603 -1.0113,0.51764zM312.52359,146.33134c-0.17615,0.17713 -0.34141,0.34285 -0.49345,0.49476c0.15245,-0.09043 0.30411,-0.1821 0.45501,-0.2749c0.01124,-0.07336 0.02407,-0.14665 0.03844,-0.21986z" fill="#b6a8a8" stroke="none" stroke-width="0.5"/><path d="M215.71167,126.19758c0,6.95075 -6.14694,12.58545 -13.72957,12.58545c-7.58263,0 -13.72957,-5.6347 -13.72957,-12.58545c0,-6.95075 6.14694,-12.58545 13.72957,-12.58545c7.58263,0 13.72957,5.6347 13.72957,12.58545z" fill="#000000" stroke="#000000" stroke-width="3"/><path d="M219.30665,95.0821c0,3.55978 -2.53439,4.58515 -3.99444,4.8805c-4.541,2.78875 -9.71684,4.26377 -14.57157,6.51029c-2.58586,1.1966 -6.59378,4.02587 -8.83138,5.51836c-1.32777,0.88563 -2.42144,2.3315 -3.98423,2.6555c-0.02562,0.00531 -0.05127,0.01054 -0.07691,0.01569l0.01484,0.02374l-2.5498,1.59358c-0.7819,0.50664 -1.71425,0.80083 -2.71531,0.80083c-2.66613,0 -4.84488,-2.08675 -4.99207,-4.71607c-1.38139,-0.88973 -2.29619,-2.44133 -2.29619,-4.2066c0,-1.05065 0.32406,-2.02562 0.87767,-2.83039l1.8743,-2.81143c1.11363,-1.85101 2.5062,-3.92028 3.47069,-5.99689c0.42041,-1.18849 0.84921,-2.37506 1.28533,-3.55986c0.90457,-2.88434 1.67186,-5.62467 3.21006,-8.39708c3.6258,-9.1847 7.54262,-18.28604 11.24312,-27.3823l0.3243,-0.28066l-0.10817,-0.07437l3.56488,-5.18526c0.67237,-1.00715 1.81927,-1.67054 3.12111,-1.67054c2.07107,0 3.75,1.67893 3.75,3.75c0,0.07243 -0.00206,0.14437 -0.00611,0.21578l-0.37308,7.46212c0.20535,1.80845 -0.2576,3.63329 -0.27497,5.45328c-0.04647,4.87115 -0.03188,9.7506 0.2919,14.61119c0.0694,1.04189 0.22957,2.06669 0.44737,3.08035c0.13669,-0.01122 0.27493,-0.01694 0.41452,-0.01694c2.76143,0 5,2.23857 5,5c0,0.27417 -0.02207,0.54319 -0.06453,0.80538l0.94868,-0.24819c0,0 5,0 5,5z" fill="#ffee00" stroke="none" stroke-width="0.5"/><path d="M266.48769,61.66345c0.79198,-1.74863 1.22483,-3.96388 2.83118,-5.01487c3.27206,-2.14081 7.18866,-0.59159 10.37465,0.2665c3.30812,0.89098 6.64162,1.62857 9.49656,3.7411c3.0553,2.26079 4.33848,4.59589 5.81088,7.78807c4.4747,9.70118 4.40316,19.73238 4.38754,30.1759c-0.37714,3.48978 -0.11595,7.10935 -1.13143,10.46935c-3.27375,10.83204 -6.17908,11.08677 -14.59789,1.12959c-1.39314,-1.64771 -2.14401,-3.69292 -2.82082,-5.78305c-0.46764,0.14469 -0.96461,0.2226 -1.47978,0.2226c-1.89316,0 -3.54058,-1.05216 -4.38939,-2.60362l-2.56696,-4.49226l0.50191,-0.2868c-0.01513,-0.03075 -0.02995,-0.06139 -0.04445,-0.09193l-0.97295,-0.91355c0.00361,-0.23788 0.00329,-0.47619 0.00009,-0.71482c-0.88247,0.78243 -2.04365,1.25753 -3.31579,1.25753c-0.90068,0 -1.74574,-0.23815 -2.47565,-0.65492l-2.97265,-1.62145c-4.96085,-0.77614 -9.85598,-1.13422 -14.80396,-1.39843c-0.46284,0.19939 -0.9618,0.33088 -1.48434,0.38193l-2.78054,0.30893c-8.20945,1.37004 -16.11826,4.05558 -24.30559,5.52366c-1.99408,0.35756 -4.09413,1.31358 -6.03379,0.72882c-0.18345,-0.0553 -0.36457,-0.11582 -0.54357,-0.1811l-0.01567,0.15666l-3.21391,-0.3214c-1.82711,-0.16023 -3.37236,-1.30319 -4.10402,-2.89716c-1.00101,-0.35417 -1.99789,-1.09864 -2.61579,-2.57701c-1.80196,-0.6104 -3.14293,-2.22017 -3.36308,-4.16947c-0.43577,-0.74188 -0.68564,-1.60611 -0.68564,-2.5287c0,-2.57405 1.94508,-4.69379 4.44562,-4.96961l2.32272,-0.29035c0.161,-0.04077 0.32203,-0.08115 0.48307,-0.12116c0.82244,-0.84642 1.94952,-1.15676 3.18549,-1.28453l0.48311,-0.34507l0.14212,0.19897c0.2063,-0.23605 0.42802,-0.45996 0.66783,-0.66966c1.57431,-1.37665 3.83564,-1.51162 5.99703,-1.75831c9.10873,-3.14969 18.53452,-4.90817 28.13545,-4.58786c0.10877,-0.00618 0.21753,-0.01232 0.32628,-0.01842v-0.30703h9.15308c2.76142,0 5,2.23858 5,5c0,0.28173 -0.0233,0.55803 -0.06808,0.82705c0.27772,0.02529 0.55498,0.05372 0.83172,0.08544l0.04907,0.00491l1.37611,-4.23356c1.42964,-4.55309 2.8367,-9.13089 4.78422,-13.43089zM275.75371,66.59122c-0.07985,-0.02787 -0.15876,-0.05683 -0.23665,-0.08697c-0.02903,0.09026 -0.05892,0.18028 -0.08956,0.27011c0.09036,0.0778 0.17791,0.15877 0.26248,0.24275c0.02076,-0.1422 0.04196,-0.28419 0.06373,-0.42589z" fill="#ffee00" stroke="none" stroke-width="0.5"/></g></g></svg>