<svg version="1.1" xmlns="http://www.w3.org/2000/svg" xmlns:xlink="http://www.w3.org/1999/xlink" width="123.53075" height="269.43111" viewBox="0,0,123.53075,269.43111"><g transform="translate(-178.93504,-44.1814)"><g data-paper-data="{&quot;isPaintingLayer&quot;:true}" fill-rule="nonzero" stroke-linejoin="miter" stroke-miterlimit="10" stroke-dasharray="" stroke-dashoffset="0" style="mix-blend-mode: normal"><path d="M273.77673,45.1814l-13.57389,132l-37.78325,-0.15789l-15.14285,-131.8421z" data-paper-data="{&quot;index&quot;:null}" fill="#4dff5b" stroke="#000000" stroke-width="2" stroke-linecap="butt"/><path d="M179.28376,313.61251v-267.22501h123.18203v267.22501z" fill-opacity="0.01" fill="#000000" stroke="none" stroke-width="0" stroke-linecap="butt"/><path d="M206.75007,307.50002l15.14285,-131.8421l37.78325,-0.15789l13.57389,132z" fill="#4dff5b" stroke="#000000" stroke-width="2" stroke-linecap="butt"/><path d="M180.07075,102.60719c0,-12.968 10.51265,-23.48065 23.48065,-23.48065c12.968,0 23.48065,10.51265 23.48065,23.48065c0,12.968 -10.51265,23.48065 -23.48065,23.48065c-12.968,0 -23.48065,-10.51265 -23.48065,-23.48065z" fill="#ffffff" stroke="#000000" stroke-width="2" stroke-linecap="butt"/><path d="M178.93504,104.19548c0,-9.12808 7.39976,-16.52784 16.52783,-16.52784c9.12808,0 16.52784,7.39977 16.52784,16.52784c0,9.12808 -7.39977,16.52784 -16.52784,16.52784c-9.12808,0 -16.52783,-7.39977 -16.52783,-16.52784z" fill="#000000" stroke="none" stroke-width="0" stroke-linecap="butt"/><path d="M262.16021,122.36005c-12.968,0 -23.48065,-10.51265 -23.48065,-23.48065c0,-12.968 10.51265,-23.48065 23.48065,-23.48065c12.968,0 23.48065,10.51265 23.48065,23.48065c0,12.968 -10.51265,23.48065 -23.48065,23.48065z" data-paper-data="{&quot;index&quot;:null}" fill="#ffffff" stroke="#000000" stroke-width="2" stroke-linecap="butt"/><path d="M262.17046,112.89492c-9.12807,0 -16.52783,-7.39977 -16.52783,-16.52784c0,-9.12808 7.39977,-16.52784 16.52783,-16.52784c9.12807,0 16.52783,7.39977 16.52783,16.52784c0,9.12808 -7.39977,16.52784 -16.52783,16.52784z" data-paper-data="{&quot;index&quot;:null}" fill="#000000" stroke="none" stroke-width="0" stroke-linecap="butt"/><path d="M179.98741,103.35283c0,-12.968 10.51265,-23.48065 23.48065,-23.48065c12.968,0 23.48065,10.51265 23.48065,23.48065c0,0 -46.96131,1.23155 -46.96131,0z" fill="#00cc11" stroke="#000000" stroke-width="2" stroke-linecap="butt"/><path d="M239.54805,96.27c0,-12.968 10.51265,-23.48065 23.48065,-23.48065c12.968,0 23.48065,10.51265 23.48065,23.48065c0,1.2138 -46.96131,0 -46.96131,0z" data-paper-data="{&quot;index&quot;:null}" fill="#00cc11" stroke="#000000" stroke-width="2" stroke-linecap="butt"/><path d="M255.89789,137.83265c0,0 -5.208,4.8892 -13.68694,8.94107c-8.47894,4.05188 -15.46274,4.52685 -15.46274,4.52685" fill="none" stroke="#000000" stroke-width="2" stroke-linecap="round"/><path d="M223.69226,162.77905v-26.09451h34.29565v26.09451z" fill="#000000" stroke="#000000" stroke-width="3" stroke-linecap="butt"/><path d="M248.66846,171.16663c0,12.04398 -2.83727,21.80756 -6.33722,21.80756c-3.49995,0 -6.33722,-9.76358 -6.33722,-21.80756c0,-12.04398 2.83727,-21.80756 6.33722,-21.80756c3.49995,0 6.33722,9.76358 6.33722,21.80756z" fill="#ff0000" stroke="#000000" stroke-width="3" stroke-linecap="butt"/><path d="M254.26013,156.81467c0,4.1176 -6.34215,7.45557 -14.16559,7.45557c-7.82344,0 -14.16559,-3.33797 -14.16559,-7.45557c0,-4.1176 6.34215,-7.45557 14.16559,-7.45557c7.82344,0 14.16559,3.33797 14.16559,7.45557z" fill="#ff0000" stroke="#000000" stroke-width="3" stroke-linecap="butt"/></g></g></svg>