<svg version="1.1" xmlns="http://www.w3.org/2000/svg" xmlns:xlink="http://www.w3.org/1999/xlink" width="123.18203" height="267.22501" viewBox="0,0,123.18203,267.22501"><g transform="translate(-179.28375,-46.38751)"><g data-paper-data="{&quot;isPaintingLayer&quot;:true}" fill-rule="nonzero" stroke-linecap="butt" stroke-linejoin="miter" stroke-miterlimit="10" stroke-dasharray="" stroke-dashoffset="0" style="mix-blend-mode: normal"><path d="M219.70029,204.11267l3.12142,-26.32765l35.83075,-0.14203l2.76735,26.1059c0,0 -7.51543,4.19603 -21.55904,4.50964c-12.48458,0.27879 -20.16049,-4.14586 -20.16049,-4.14586z" fill="#e46300" stroke="#000000" stroke-width="0"/><path d="M206.75007,307.50002l15.14285,-131.8421l37.78325,-0.15789l13.57389,132z" fill="#ff6f00" stroke="#000000" stroke-width="2"/><path d="M196.47406,137.26547c0,-33.30185 23.32377,-60.29833 52.09508,-60.29833c28.77133,0 52.09509,26.99648 52.09509,60.29833c0,13.26154 -2.61739,25.52317 -8.88591,35.47823c-9.47273,15.0437 -25.89523,23.57011 -43.20917,23.57011c-17.69689,0 -34.4141,-8.96367 -43.82907,-24.57601c-5.89174,-9.76995 -8.26601,-21.65405 -8.26601,-34.47233z" fill="#ff6f00" stroke="#000000" stroke-width="2"/><path d="M179.28375,313.61253v-267.22501h123.18203v267.22501z" fill-opacity="0.01" fill="#000000" stroke="none" stroke-width="0"/><path d="M190.89581,123.59267c0,-33.30185 23.32377,-60.29833 52.09508,-60.29833c28.77133,0 52.09509,26.99648 52.09509,60.29833c0,13.26154 -2.61739,25.52317 -8.88591,35.47823c-9.47273,15.0437 -25.89523,23.57011 -43.20917,23.57011c-17.69689,0 -34.4141,-8.96367 -43.82907,-24.57601c-5.89174,-9.76995 -8.26601,-21.65405 -8.26601,-34.47233z" fill="#ff6f00" stroke="#000000" stroke-width="2"/><path d="M189.96847,102.47543c0,-12.968 10.51265,-23.48065 23.48065,-23.48065c12.968,0 23.48065,10.51265 23.48065,23.48065c0,12.968 -10.51265,23.48065 -23.48065,23.48065c-12.968,0 -23.48065,-10.51265 -23.48065,-23.48065z" fill="#ffffff" stroke="#000000" stroke-width="2"/><path d="M200.50284,105.6688c0,-9.12808 7.39976,-16.52784 16.52783,-16.52784c9.12808,0 16.52784,7.39977 16.52784,16.52784c0,9.12808 -7.39977,16.52784 -16.52784,16.52784c-9.12808,0 -16.52783,-7.39977 -16.52783,-16.52784z" fill="#000000" stroke="none" stroke-width="0"/><path d="M266.55107,125.95592c-12.968,0 -23.48065,-10.51265 -23.48065,-23.48065c0,-12.968 10.51265,-23.48065 23.48065,-23.48065c12.968,0 23.48065,10.51265 23.48065,23.48065c0,12.968 -10.51265,23.48065 -23.48065,23.48065z" data-paper-data="{&quot;index&quot;:null}" fill="#ffffff" stroke="#000000" stroke-width="2"/><path d="M266.43853,121.61848c-9.12807,0 -16.52783,-7.39977 -16.52783,-16.52784c0,-9.12808 7.39977,-16.52784 16.52783,-16.52784c9.12807,0 16.52783,7.39977 16.52783,16.52784c0,9.12808 -7.39977,16.52784 -16.52783,16.52784z" data-paper-data="{&quot;index&quot;:null}" fill="#000000" stroke="none" stroke-width="0"/><path d="M189.39013,103.63175c0,-12.968 10.51265,-23.48065 23.48065,-23.48065c12.968,0 23.48065,10.51265 23.48065,23.48065c0,0 -20.77266,0.54476 -34.68689,0.54735c-7.0068,0.00131 -12.27443,-0.13488 -12.27443,-0.54735z" fill="#ff6f00" stroke="#000000" stroke-width="2"/><path d="M244.22682,97.2717c0,-12.968 10.51265,-23.48065 23.48065,-23.48065c7.51668,0 12.47386,-1.09351 16.77158,4.40135c3.11684,3.98504 6.70907,13.62797 6.70907,19.0793c0,0.49911 -9.67478,1.16594 -19.02529,1.0973c-13.38942,-0.09829 -27.93602,-1.0973 -27.93602,-1.0973z" data-paper-data="{&quot;index&quot;:null}" fill="#ff6f00" stroke="#000000" stroke-width="2"/><path d="M266.54055,104.78027c-3.9295,-0.92235 -11.96762,-0.86207 -11.96762,-0.86207c0,0 7.24586,-1.8937 12.33413,-0.69937c5.08826,1.19433 11.79721,6.36355 11.79721,6.36355c0,0 -8.05724,-3.83822 -12.16372,-4.80211z" data-paper-data="{&quot;index&quot;:null}" fill="#000000" stroke="none" stroke-width="0"/></g></g></svg>