<svg version="1.1" xmlns="http://www.w3.org/2000/svg" xmlns:xlink="http://www.w3.org/1999/xlink" width="163.41799" height="267.22501" viewBox="0,0,163.41799,267.22501"><g transform="translate(-174.84,-46.38751)"><g data-paper-data="{&quot;isPaintingLayer&quot;:true}" fill-rule="nonzero" stroke-linejoin="miter" stroke-miterlimit="10" stroke-dasharray="" stroke-dashoffset="0" style="mix-blend-mode: normal"><path d="M179.28378,313.61252v-267.22501h123.18203v267.22501z" fill-opacity="0.01" fill="#000000" stroke="none" stroke-width="0" stroke-linecap="butt"/><path d="M206.7501,307.5l15.14285,-131.8421l37.78325,-0.15789l13.57389,132z" fill="#0b00ff" stroke="#000000" stroke-width="2" stroke-linecap="butt"/><path d="M175.84001,136.84616c0,-33.30185 28.7599,-60.29833 64.23702,-60.29833c35.47712,0 64.23702,26.99649 64.23702,60.29833c0,33.30185 -28.7599,60.29833 -64.23702,60.29833c-35.47712,0 -64.23702,-26.99649 -64.23702,-60.29833z" fill="#0b00ff" stroke="#000000" stroke-width="2" stroke-linecap="butt"/><path d="M176.56307,136.9c0,-0.72799 5.20666,55.91939 63.36046,56.93429c55.56352,0.9697 63.51358,-57.95314 63.51358,-56.93429c0,32.80479 -28.40173,59.39833 -63.43702,59.39833c-35.03529,0 -63.43702,-26.59354 -63.43702,-59.39833z" fill="#0b00e6" stroke="#000000" stroke-width="0" stroke-linecap="butt"/><path d="M189.39022,137.27563c0,-12.968 10.51265,-23.48065 23.48065,-23.48065c12.968,0 23.48065,10.51265 23.48065,23.48065c0,12.968 -10.51265,23.48065 -23.48065,23.48065c-12.968,0 -23.48065,-10.51265 -23.48065,-23.48065z" fill="#ffffff" stroke="#000000" stroke-width="2" stroke-linecap="butt"/><path d="M196.45561,137c0,-9.12808 7.39976,-16.52784 16.52783,-16.52784c9.12808,0 16.52784,7.39977 16.52784,16.52784c0,9.12808 -7.39977,16.52784 -16.52784,16.52784c-9.12808,0 -16.52783,-7.39977 -16.52783,-16.52784z" fill="#000000" stroke="none" stroke-width="0" stroke-linecap="butt"/><path d="M227.50709,176.65643c0,0 7.87204,-0.49798 12.15094,-0.49798c4.08165,0 12.95865,0.49798 12.95865,0.49798" fill="none" stroke="#000000" stroke-width="2" stroke-linecap="round"/><path d="M267.1293,160.75627c-12.968,0 -23.48065,-10.51265 -23.48065,-23.48065c0,-12.968 10.51265,-23.48065 23.48065,-23.48065c12.968,0 23.48065,10.51265 23.48065,23.48065c0,12.968 -10.51265,23.48065 -23.48065,23.48065z" data-paper-data="{&quot;index&quot;:null}" fill="#ffffff" stroke="#000000" stroke-width="2" stroke-linecap="butt"/><path d="M267.01671,153.52784c-9.12807,0 -16.52783,-7.39977 -16.52783,-16.52784c0,-9.12808 7.39977,-16.52784 16.52783,-16.52784c9.12807,0 16.52783,7.39977 16.52783,16.52784c0,9.12808 -7.39977,16.52784 -16.52783,16.52784z" data-paper-data="{&quot;index&quot;:null}" fill="#000000" stroke="none" stroke-width="0" stroke-linecap="butt"/><path d="M189.39022,137.27563c0,-12.968 10.51265,-23.48065 23.48065,-23.48065c12.968,0 23.48065,10.51265 23.48065,23.48065c0,0 -46.96131,1.23155 -46.96131,0z" fill="#0900cc" stroke="#000000" stroke-width="2" stroke-linecap="butt"/><path d="M243.64867,137.27563c0,-12.968 10.51265,-23.48065 23.48065,-23.48065c12.968,0 23.48065,10.51265 23.48065,23.48065c0,1.2138 -46.96131,0 -46.96131,0z" data-paper-data="{&quot;index&quot;:null}" fill="#0900cc" stroke="#000000" stroke-width="2" stroke-linecap="butt"/><path d="M201.59798,106.01557c0,0 7.59834,-3.74113 12.82228,-3.90615c5.22395,-0.16501 11.95254,3.12355 11.95254,3.12355c0,0 -7.86762,-1.64791 -11.9019,-1.52047c-4.21598,0.13318 -12.87293,2.30307 -12.87293,2.30307z" fill="#000000" stroke="none" stroke-width="0" stroke-linecap="butt"/><path d="M265.62424,103.73004c-4.03603,0.04644 -11.82537,2.03168 -11.82537,2.03168c0,0 6.58071,-3.57532 11.80692,-3.63546c5.2262,-0.06014 12.97862,3.35026 12.97862,3.35026c0,0 -8.74237,-1.79502 -12.96017,-1.74649z" data-paper-data="{&quot;index&quot;:null}" fill="#000000" stroke="none" stroke-width="0" stroke-linecap="butt"/><path d="M301.02683,98.89702c0.03577,-0.34802 0.09678,-0.70118 0.17619,-1.05802c-0.12083,0.24876 -0.25768,0.4883 -0.4092,0.71728c0.07538,0.11507 0.15312,0.22861 0.23301,0.34074zM259.87606,81.67073c-2.19459,-5.85203 3.65744,-8.04662 3.65744,-8.04662c5.96317,-2.11692 11.29228,-7.11491 16.64976,-10.46393c0.66376,-0.41492 5.66034,-3.60837 6.31262,-3.6976c2.9792,-0.40756 6.68612,-1.7344 9.01938,0.16234c3.65697,2.97281 2.49106,12.15725 1.57642,16.43306c-0.28586,1.33638 -0.65613,2.65312 -0.99992,3.97609c0.75947,-0.37346 1.52047,-0.74397 2.27739,-1.12239c3.46888,-1.89209 11.38914,-7.36598 15.47308,-4.00791c5.66102,4.65483 3.64993,9.8848 2.44361,15.00782c2.66792,-0.89295 8.80251,-2.92948 9.88189,-3.2881l0.25567,0.03385l-0.02412,-0.09648l2.70686,-0.67673c0.52618,-0.14382 1.08005,-0.22061 1.65185,-0.22061c3.45178,0 6.25,2.79822 6.25,6.25c0,0.92347 -0.20028,1.80015 -0.55977,2.589l-2.07771,4.84798l-0.2236,-0.09583c-0.10245,0.38228 -0.217,0.7617 -0.34564,1.13777c-0.61703,1.80381 -2.74227,2.65759 -3.97743,4.10979c-4.69896,5.52467 -9.8497,10.78753 -14.38516,16.47552c-1.54313,1.93526 -3.96805,7.07507 -6.03643,7.60008c-3.19624,0.81129 -6.73055,-0.16207 -9.79667,-1.37577c-1.57203,-0.62228 -6.13026,-6.02499 -7.5938,-7.63919c-7.99471,-8.8177 -15.01971,-18.92982 -20.91062,-29.29202c-1.01644,-1.46478 -2.03288,-2.92956 -3.04933,-4.39434l0,-0.00001l0,0l-0.33304,-0.48106c-1.05198,0.32119 -5.89211,1.47678 -7.84274,-3.72473z" fill="#fffa00" stroke="#000000" stroke-width="2.5" stroke-linecap="butt"/></g></g></svg>