<svg version="1.1" xmlns="http://www.w3.org/2000/svg" xmlns:xlink="http://www.w3.org/1999/xlink" width="123.18203" height="267.22501" viewBox="0,0,123.18203,267.22501"><g transform="translate(-179.28374,-46.3875)"><g data-paper-data="{&quot;isPaintingLayer&quot;:true}" fill-rule="nonzero" stroke-linejoin="miter" stroke-miterlimit="10" stroke-dasharray="" stroke-dashoffset="0" style="mix-blend-mode: normal"><path d="M273.58337,82.50001l-13.57389,132l-37.78325,-0.15789l-15.14285,-131.8421z" data-paper-data="{&quot;index&quot;:null}" fill="#a5ff00" stroke="#000000" stroke-width="2" stroke-linecap="butt"/><path d="M179.28375,313.61251v-267.22501h123.18203v267.22501z" fill-opacity="0.01" fill="#000000" stroke="none" stroke-width="0" stroke-linecap="butt"/><path d="M206.75007,307.5l15.14285,-131.8421l37.78325,-0.15789l13.57389,132z" fill="#a5ff00" stroke="#000000" stroke-width="2" stroke-linecap="butt"/><path d="M219.70029,204.11263l3.12142,-26.32765l35.83075,-0.14203l2.76735,26.1059c0,0 -7.51543,4.19603 -21.55904,4.50964c-12.48458,0.27879 -20.16049,-4.14586 -20.16049,-4.14586z" fill="#95e600" stroke="#000000" stroke-width="0" stroke-linecap="butt"/><path d="M189.39012,141.52563c0,-12.96801 10.51265,-23.48065 23.48066,-23.48065c12.96801,0 23.48065,10.51264 23.48065,23.48065c0,12.96801 -10.51264,23.48066 -23.48065,23.48066c-12.96801,0 -23.48066,-10.51265 -23.48066,-23.48066z" fill="#000000" stroke="#000000" stroke-width="2" stroke-linecap="butt"/><path d="M267.12922,165.00629c-12.96801,0 -23.48065,-10.51265 -23.48065,-23.48066c0,-12.96801 10.51264,-23.48065 23.48065,-23.48065c12.96801,0 23.48066,10.51264 23.48066,23.48065c0,12.96801 -10.51265,23.48066 -23.48066,23.48066z" data-paper-data="{&quot;index&quot;:null}" fill="#000000" stroke="#000000" stroke-width="2" stroke-linecap="butt"/><path d="M189.39019,140.27563c0,-12.968 10.51265,-23.48065 23.48065,-23.48065c12.968,0 23.48065,10.51265 23.48065,23.48065c0,12.968 -10.51265,23.48065 -23.48065,23.48065c-12.968,0 -23.48065,-10.51265 -23.48065,-23.48065z" fill="#ffffff" stroke="#000000" stroke-width="2" stroke-linecap="butt"/><path d="M193.70558,140c0,-10.64686 8.63098,-19.27784 19.27783,-19.27784c10.64686,0 19.27784,8.63099 19.27784,19.27784c0,10.64686 -8.63099,19.27784 -19.27784,19.27784c-10.64686,0 -19.27783,-8.63099 -19.27783,-19.27784z" fill="#000000" stroke="none" stroke-width="0" stroke-linecap="butt"/><path d="M267.12926,163.75627c-12.968,0 -23.48065,-10.51265 -23.48065,-23.48065c0,-12.968 10.51265,-23.48065 23.48065,-23.48065c12.968,0 23.48065,10.51265 23.48065,23.48065c0,12.968 -10.51265,23.48065 -23.48065,23.48065z" data-paper-data="{&quot;index&quot;:null}" fill="#000000" stroke="#000000" stroke-width="2" stroke-linecap="butt"/><path d="M267.01671,156.69451c-9.22012,0 -16.69449,-7.47439 -16.69449,-16.69451c0,-9.22013 7.47439,-16.69451 16.69449,-16.69451c9.22012,0 16.69449,7.47439 16.69449,16.69451c0,9.22013 -7.47439,16.69451 -16.69449,16.69451z" data-paper-data="{&quot;index&quot;:null}" fill="#000000" stroke="none" stroke-width="0" stroke-linecap="butt"/><path d="M236.13889,144.10902l-5.6,17.6" fill="none" stroke="#000000" stroke-width="2" stroke-linecap="round"/><path d="M243.73889,142.30901l3.6,20.4" fill="none" stroke="#000000" stroke-width="2" stroke-linecap="round"/><path d="M224.20139,196.44317c0,0 -10.33673,4.41262 -16.78218,-1.17095c-6.08563,-5.27186 -4.50354,-8.97191 -4.50354,-8.97191" fill="#95e600" stroke="#000000" stroke-width="2" stroke-linecap="round"/><path d="M276.9756,186.58602c0,0 2.58209,3.70005 -3.78925,8.6862c-6.34069,4.96216 -14.49647,1.02809 -14.49647,1.02809" data-paper-data="{&quot;index&quot;:null}" fill="#95e600" stroke="#000000" stroke-width="2" stroke-linecap="round"/><path d="M208.24231,192.21406c-6.34088,-5.87456 0.57347,-10.20209 1.15,-12.25c0.39867,-1.41616 -5.61058,-3.35077 -1.75,-9.75c3.58584,-5.9438 21.7774,3.5 32.75,3.5c10.5977,0 23.79921,-13.02959 32,-3.5c4.84876,5.63442 -1.76025,8.90894 -1.75,10.5c0.01504,2.33447 5.99727,4.11526 1.75,10.5c-4.90753,7.37729 -20.97924,-0.75 -31.75,-0.75c-10.81242,0 -24.14356,9.39926 -32.4,1.75z" fill="#ffffff" stroke="#000000" stroke-width="2" stroke-linecap="butt"/><path d="M270.51979,181.17605c0,0 -19.85999,1.11379 -29.99847,0.91988c-10.19454,-0.19498 -31.00153,-2.08655 -31.00153,-2.08655" fill="none" stroke="#000000" stroke-width="1" stroke-linecap="round"/><path d="M275.5,151c0,-2.76143 2.23858,-5 5,-5c2.76142,0 5,2.23857 5,5c0,2.76143 -2.23858,5 -5,5c-2.76142,0 -5,-2.23857 -5,-5z" fill="#000000" stroke="none" stroke-width="0.5" stroke-linecap="butt"/></g></g></svg>