<svg version="1.1" xmlns="http://www.w3.org/2000/svg" xmlns:xlink="http://www.w3.org/1999/xlink" width="224" height="330" viewBox="0,0,224,330"><g transform="translate(-128,-15)"><g data-paper-data="{&quot;isPaintingLayer&quot;:true}" fill-rule="nonzero" stroke-linecap="butt" stroke-linejoin="miter" stroke-miterlimit="10" stroke-dasharray="" stroke-dashoffset="0" style="mix-blend-mode: normal"><path d="M128,345v-330h224v330z" fill="none" stroke="none" stroke-width="0"/><path d="M178.40899,313.61251v-267.22501h123.18203v267.22501z" fill-opacity="0.01" fill="#000000" stroke="none" stroke-width="0"/><path d="M174.35217,275.60153c0,-33.30185 28.7599,-60.29833 64.23702,-60.29833c35.47712,0 64.23702,26.99649 64.23702,60.29833c0,33.30185 -28.7599,60.29833 -64.23702,60.29833c-35.47712,0 -64.23702,-26.99649 -64.23702,-60.29833z" fill="#0016ff" stroke="#000000" stroke-width="2"/><path d="M183.80486,263.73834c0,-12.968 10.51265,-23.48065 23.48065,-23.48065c12.968,0 23.48065,10.51265 23.48065,23.48065c0,12.968 -10.51265,23.48065 -23.48065,23.48065c-12.968,0 -23.48065,-10.51265 -23.48065,-23.48065z" fill="#ffffff" stroke="#000000" stroke-width="2"/><path d="M263.5927,289.77995c-12.968,0 -23.48065,-10.51265 -23.48065,-23.48065c0,-12.968 10.51265,-23.48065 23.48065,-23.48065c12.968,0 23.48065,10.51265 23.48065,23.48065c0,12.968 -10.51265,23.48065 -23.48065,23.48065z" data-paper-data="{&quot;index&quot;:null}" fill="#ffffff" stroke="#000000" stroke-width="2"/><path d="M263.48014,282.53691c-9.12807,0 -16.52783,-7.39977 -16.52783,-16.52784c0,-9.12808 7.39977,-16.52784 16.52783,-16.52784c9.12807,0 16.52783,7.39977 16.52783,16.52784c0,9.12808 -7.39977,16.52784 -16.52783,16.52784z" data-paper-data="{&quot;index&quot;:null}" fill="#000000" stroke="none" stroke-width="0"/><path d="M184.74586,262.80638c0,-12.96801 10.51265,-23.48065 23.48066,-23.48065c12.96801,0 23.48065,10.51264 23.48065,23.48065c0,0 -6.95852,-14.64634 -23.43307,-14.78879c-16.22494,-0.14029 -23.52823,15.4054 -23.52823,14.78879z" fill="#0016ff" stroke="#000000" stroke-width="2"/><path d="M240.62427,266.29174c0,-12.96801 10.51264,-23.48065 23.48065,-23.48065c12.96801,0 23.48066,10.51264 23.48066,23.48065c0,0.60606 -7.87275,-14.38438 -22.92496,-14.781c-15.05221,-0.39662 -24.03635,14.781 -24.03635,14.781z" data-paper-data="{&quot;index&quot;:null}" fill="#0016ff" stroke="#000000" stroke-width="2"/><path d="M210.52594,248.78156c9.12807,0 12.7782,-1.61065 12.7782,9.26167c0,10.8723 -4.21708,17.299 -13.34516,17.299c-9.12807,0 -11.35583,-4.03966 -11.35583,-14.91198c0,-10.8723 2.79471,-11.64869 11.92279,-11.64869z" data-paper-data="{&quot;index&quot;:null}" fill="#000000" stroke="none" stroke-width="0"/></g></g></svg>