<svg version="1.1" xmlns="http://www.w3.org/2000/svg" xmlns:xlink="http://www.w3.org/1999/xlink" width="35.12498" height="35.12434" viewBox="0,0,35.12498,35.12434"><g transform="translate(-222.43754,-162.43783)"><g data-paper-data="{&quot;isPaintingLayer&quot;:true}" stroke="none" stroke-miterlimit="10" stroke-dasharray="" stroke-dashoffset="0" style="mix-blend-mode: normal"><path d="M257.56251,169.8317v20.49804c0,4.00745 -3.22497,7.23243 -7.23242,7.23243h-20.5c-3.66107,0 -6.66147,-2.69385 -7.1543,-6.21484c0.7952,3.03475 3.54108,5.26367 6.83204,5.26367h20.0332c3.9166,0 7.07032,-3.15372 7.07032,-7.07031v-20.03321c0,-3.2976 -2.23906,-6.0451 -5.28321,-6.83398c3.52994,0.48496 6.23438,3.49081 6.23438,7.15821z" fill-opacity="0.29839" fill="#000000" fill-rule="evenodd" stroke-width="4.54219" stroke-linecap="round" stroke-linejoin="round"/><path d="M229.50721,162.43783h20.03378c3.9166,0 7.06966,3.15307 7.06966,7.06966v20.03379c0,3.91659 -3.15307,7.06966 -7.06966,7.06966h-20.03378c-3.91659,0 -7.06967,-3.15307 -7.06967,-7.06966v-20.03379c0,-3.91659 3.15308,-7.06966 7.06967,-7.06966z" fill="#0b00ff" fill-rule="evenodd" stroke-width="4.43922" stroke-linecap="round" stroke-linejoin="round"/><path d="M230.28568,174.25809c1.02344,-1.45095 2.43542,-4.4627 4.69542,-4.15216c1.16251,0.15973 2.35776,1.38324 2.68646,2.38425c0.06069,0.18482 -0.03768,0.62486 0.14731,0.5647c0.95284,-0.30988 2.01752,-2.74376 3.404,-2.25441c1.15086,0.40619 2.02583,1.48753 2.62845,2.54881c0.38354,0.67544 0.93168,-1.28223 1.57526,-1.71712c0.43355,-0.29296 1.98807,0.10251 2.5089,0.23043c1.78654,0.4388 1.72573,7.14749 1.76697,7.72655c0.05807,0.81539 0.38869,3.81447 -0.07319,5.00767c-0.99935,2.58166 -3.00973,1.58632 -4.85477,1.00794c-4.81276,-1.5087 -9.77546,-2.45267 -14.60171,-3.94012c-1.27396,-0.39263 -2.36327,-2.46378 -1.41229,-3.45611z" fill="#ffda00" fill-rule="nonzero" stroke-width="0.5" stroke-linecap="butt" stroke-linejoin="miter"/></g></g></svg>