<svg version="1.1" xmlns="http://www.w3.org/2000/svg" xmlns:xlink="http://www.w3.org/1999/xlink" width="34.17311" height="34.37741" viewBox="0,0,34.17311,34.37741"><g transform="translate(-222.91347,-162.70918)"><g data-paper-data="{&quot;isPaintingLayer&quot;:true}" stroke-miterlimit="10" stroke-dasharray="" stroke-dashoffset="0" style="mix-blend-mode: normal"><path d="M229.98313,162.91348h20.03379c3.9166,0 7.06966,3.15307 7.06966,7.06966v20.03379c0,3.91659 -3.15306,7.06966 -7.06966,7.06966h-20.03379c-3.91659,0 -7.06966,-3.15307 -7.06966,-7.06966v-20.03379c0,-3.91659 3.15307,-7.06966 7.06966,-7.06966z" fill="#babebf" fill-rule="evenodd" stroke="none" stroke-width="4.43922" stroke-linecap="round" stroke-linejoin="round"/><path d="M251.76062,183.23928c0,5.50433 -4.96285,9.96647 -11.08483,9.96647c-6.12198,0 -11.08483,-4.46214 -11.08483,-9.96647c0,-5.50433 4.96285,-9.96647 11.08483,-9.96647c6.12198,0 11.08483,4.46214 11.08483,9.96647z" fill="#2b00ff" fill-rule="nonzero" stroke="#000000" stroke-width="0.5" stroke-linecap="butt" stroke-linejoin="miter"/><path d="M228.95547,172.88193c1.16529,-2.31521 2.82544,-7.09859 6.24428,-7.1282c2.70577,-0.02343 2.77902,3.10921 2.99239,4.98109c0.09471,0.83085 1.62877,-0.51965 2.4637,-0.47301c1.00769,0.05629 2.24461,0.23611 3.15134,0.68119c0.47931,0.23528 0.98854,1.09269 1.40847,0.76293c1.88074,-1.4769 1.68213,-9.65549 5.33885,-8.95422c3.33469,0.63951 2.75706,3.43589 2.91197,6.61777c0.08866,1.82111 -0.41716,3.62271 -0.65139,5.43087c-0.69322,5.35145 -3.48793,6.02573 -7.85955,3.73496c-1.17665,-0.61658 -2.7753,-4.38574 -4.74759,-3.22568c-3.24246,1.90715 -8.00582,10.33841 -11.57991,5.17627c-0.48829,-0.22074 -0.89299,-0.59378 -1.15352,-1.05854c-0.1282,-0.15444 -0.21417,-0.32569 -0.22109,-0.52986c-0.06295,-0.2194 -0.09667,-0.45117 -0.09667,-0.6908c0,-0.26237 0.04042,-0.51531 0.11537,-0.75291c0.3033,-1.59779 0.9567,-3.12816 1.68335,-4.57186z" fill="#fdff00" fill-rule="nonzero" stroke="none" stroke-width="0.5" stroke-linecap="butt" stroke-linejoin="miter"/></g></g></svg>