<svg version="1.1" xmlns="http://www.w3.org/2000/svg" xmlns:xlink="http://www.w3.org/1999/xlink" width="199.49648" height="294.60572" viewBox="0,0,199.49648,294.60572"><g transform="translate(-134.33719,-19.0068)"><g data-paper-data="{&quot;isPaintingLayer&quot;:true}" fill-rule="nonzero" stroke-linejoin="miter" stroke-miterlimit="10" stroke-dasharray="" stroke-dashoffset="0" style="mix-blend-mode: normal"><path d="M179.48375,313.61252v-267.22501h123.18203v267.22501z" fill-opacity="0.01" fill="#000000" stroke="none" stroke-width="0" stroke-linecap="butt"/><path d="M206.75007,307.5l15.14285,-131.8421l37.78325,-0.15789l13.57389,132z" fill="#804400" stroke="#000000" stroke-width="2" stroke-linecap="butt"/><path d="M219.70029,204.11263l3.12142,-26.32765l35.83075,-0.14203l2.76735,26.1059c0,0 -7.51543,4.19603 -21.55904,4.50964c-12.48458,0.27879 -20.16049,-4.14586 -20.16049,-4.14586z" fill="#663600" stroke="#000000" stroke-width="0" stroke-linecap="butt"/><path d="M176.56303,136.9c0,-0.72799 5.20666,55.91939 63.36046,56.93429c55.56352,0.9697 63.51358,-57.95314 63.51358,-56.93429c0,32.80479 -28.40173,59.39833 -63.43702,59.39833c-35.03529,0 -63.43702,-26.59354 -63.43702,-59.39833z" fill="#663600" stroke="#000000" stroke-width="0" stroke-linecap="butt"/><path d="M176.28863,136.84616c0,-33.30185 28.7599,-60.29833 64.23702,-60.29833c35.47712,0 64.23702,26.99649 64.23702,60.29833c0,33.30185 -28.7599,60.29833 -64.23702,60.29833c-35.47712,0 -64.23702,-26.99649 -64.23702,-60.29833z" fill="#804400" stroke="#000000" stroke-width="2" stroke-linecap="butt"/><path d="M189.3902,137.27563c0,-12.968 10.51265,-23.48065 23.48065,-23.48065c12.968,0 23.48065,10.51265 23.48065,23.48065c0,12.968 -10.51265,23.48065 -23.48065,23.48065c-12.968,0 -23.48065,-10.51265 -23.48065,-23.48065z" fill="#ffffff" stroke="#000000" stroke-width="2" stroke-linecap="butt"/><path d="M189.95557,139.25c0,-9.12808 7.39976,-16.52784 16.52783,-16.52784c9.12808,0 16.52784,7.39977 16.52784,16.52784c0,9.12808 -7.39977,16.52784 -16.52784,16.52784c-9.12808,0 -16.52783,-7.39977 -16.52783,-16.52784z" fill="#000000" stroke="none" stroke-width="0" stroke-linecap="butt"/><path d="M227.50706,176.65643h25.10959" fill="none" stroke="#000000" stroke-width="2" stroke-linecap="round"/><path d="M267.12927,160.75627c-12.968,0 -23.48065,-10.51265 -23.48065,-23.48065c0,-12.968 10.51265,-23.48065 23.48065,-23.48065c12.968,0 23.48065,10.51265 23.48065,23.48065c0,12.968 -10.51265,23.48065 -23.48065,23.48065z" data-paper-data="{&quot;index&quot;:null}" fill="#ffffff" stroke="#000000" stroke-width="2" stroke-linecap="butt"/><path d="M273.51671,151.02784c-9.12807,0 -16.52783,-7.39977 -16.52783,-16.52784c0,-9.12808 7.39977,-16.52784 16.52783,-16.52784c9.12807,0 16.52783,7.39977 16.52783,16.52784c0,9.12808 -7.39977,16.52784 -16.52783,16.52784z" data-paper-data="{&quot;index&quot;:null}" fill="#000000" stroke="none" stroke-width="0" stroke-linecap="butt"/><path d="M202.02788,108.46716c0,0 6.70895,-5.16922 11.79721,-6.36355c5.08827,-1.19433 12.33413,0.69937 12.33413,0.69937c0,0 -8.03812,-0.06028 -11.96762,0.86207c-4.10648,0.96389 -12.16372,4.80211 -12.16372,4.80211z" fill="#000000" stroke="none" stroke-width="0" stroke-linecap="butt"/><path d="M265.96236,103.66506c-3.9295,-0.92235 -11.96762,-0.86207 -11.96762,-0.86207c0,0 7.24586,-1.8937 12.33413,-0.69937c5.08826,1.19433 11.79721,6.36355 11.79721,6.36355c0,0 -8.05724,-3.83822 -12.16372,-4.80211z" data-paper-data="{&quot;index&quot;:null}" fill="#000000" stroke="none" stroke-width="0" stroke-linecap="butt"/><path d="M217.67795,53.65405c0,-18.58286 9.64121,-33.64725 21.53426,-33.64725c11.89304,0 21.53426,15.06439 21.53426,33.64725c0,18.58286 -9.64121,33.64725 -21.53426,33.64725c-11.89304,0 -21.53426,-15.06439 -21.53426,-33.64725z" fill="#804400" stroke="#000000" stroke-width="2" stroke-linecap="butt"/><path d="M280.2364,112.93004c-7.6423,-7.77484 -2.87943,-24.84895 10.63816,-38.13611c13.51759,-13.28715 30.67106,-17.75577 38.31336,-9.98094c7.6423,7.77484 2.87943,24.84895 -10.63816,38.13611c-13.51759,13.28715 -30.67106,17.75577 -38.31336,9.98094z" fill="#804400" stroke="#000000" stroke-width="2" stroke-linecap="butt"/><path d="M195.24158,203.05866c-13.51759,13.28716 -30.67107,17.75577 -38.31336,9.98094c-7.64229,-7.77483 -2.87943,-24.84894 10.63816,-38.1361c13.51759,-13.28716 30.67108,-17.75578 38.31337,-9.98095c7.6423,7.77484 2.87943,24.84896 -10.63816,38.13611z" fill="#804400" stroke="#000000" stroke-width="2" stroke-linecap="butt"/><path d="M177.29631,82.93435c13.51759,13.28715 18.28046,30.36128 10.63816,38.13611c-7.64229,7.77483 -24.79578,3.30621 -38.31337,-9.98095c-13.51759,-13.28715 -18.28045,-30.36127 -10.63816,-38.1361c7.64229,-7.77483 24.79577,-3.30621 38.31336,9.98094z" data-paper-data="{&quot;index&quot;:null}" fill="#804400" stroke="#000000" stroke-width="2" stroke-linecap="butt"/><path d="M313.74492,184.38982c13.51759,13.28715 18.28046,30.36128 10.63816,38.13611c-7.64229,7.77483 -24.79578,3.30621 -38.31337,-9.98094c-13.51759,-13.28715 -18.28046,-30.36127 -10.63816,-38.1361c7.64229,-7.77483 24.79578,-3.30622 38.31337,9.98094z" data-paper-data="{&quot;index&quot;:null}" fill="#804400" stroke="#000000" stroke-width="2" stroke-linecap="butt"/><path d="M237.03329,184.34597c-0.12884,-0.06822 -0.2565,-0.13831 -0.38305,-0.21014l-0.02652,0.15915l-2.55504,-0.42582c-1.03079,-0.15311 -1.95894,-0.62082 -2.6837,-1.30236l-0.43256,-0.07973c-2.19706,0.73544 -4.41625,1.41198 -6.74399,1.80791c0,0 -4.93198,0.82196 -5.75393,-4.11002c-0.51285,-3.07724 1.21429,-4.55447 2.58585,-5.23033c-0.01176,-0.13993 -0.01777,-0.28151 -0.01777,-0.42448c0,-2.76142 2.23858,-5 5,-5c0.26959,0 0.5342,0.02134 0.79223,0.06241l2.99029,0.42717l-0.01018,0.07123l0.14726,-0.0497c1.44283,0.28815 2.88284,0.59083 4.32826,0.86565c0.97227,-0.30505 1.95445,-0.58398 2.95433,-0.81503c3.53337,-0.81649 7.27544,-1.03507 10.86731,-1.43939l0.6681,0.37861l0.05194,-0.31162l2.55503,0.42585c2.41006,0.35801 4.25906,2.43581 4.25906,4.94548c0,1.59625 -0.74801,3.0178 -1.91264,3.93323l-2.16071,1.72853l-0.16169,-0.20212c-0.23299,0.27157 -0.47953,0.53185 -0.74265,0.77833c-0.74969,0.70228 -1.81346,0.84819 -2.88366,0.97909c-0.75872,1.79529 -2.53606,3.05513 -4.60765,3.05513h-3.07544c-1.01616,-0.00568 -2.15044,0.4585 -3.04849,-0.01704z" fill="#000000" stroke="none" stroke-width="0.5" stroke-linecap="butt"/></g></g></svg>