<svg version="1.1" xmlns="http://www.w3.org/2000/svg" xmlns:xlink="http://www.w3.org/1999/xlink" width="199.49648" height="294.60572" viewBox="0,0,199.49648,294.60572"><g transform="translate(-134.33719,-19.0068)"><g data-paper-data="{&quot;isPaintingLayer&quot;:true}" fill-rule="nonzero" stroke-linejoin="miter" stroke-miterlimit="10" stroke-dasharray="" stroke-dashoffset="0" style="mix-blend-mode: normal"><path d="M179.48375,313.61252v-267.22501h123.18203v267.22501z" fill-opacity="0.01" fill="#000000" stroke="none" stroke-width="0" stroke-linecap="butt"/><path d="M206.75007,307.5l15.14285,-131.8421l37.78325,-0.15789l13.57389,132z" fill="#804400" stroke="#000000" stroke-width="2" stroke-linecap="butt"/><path d="M219.70029,204.11263l3.12142,-26.32765l35.83075,-0.14203l2.76735,26.1059c0,0 -7.51543,4.19603 -21.55904,4.50964c-12.48458,0.27879 -20.16049,-4.14586 -20.16049,-4.14586z" fill="#663600" stroke="#000000" stroke-width="0" stroke-linecap="butt"/><path d="M176.56303,136.9c0,-0.72799 5.20666,55.91939 63.36046,56.93429c55.56352,0.9697 63.51358,-57.95314 63.51358,-56.93429c0,32.80479 -28.40173,59.39833 -63.43702,59.39833c-35.03529,0 -63.43702,-26.59354 -63.43702,-59.39833z" fill="#663600" stroke="#000000" stroke-width="0" stroke-linecap="butt"/><path d="M176.28863,136.84616c0,-33.30185 28.7599,-60.29833 64.23702,-60.29833c35.47712,0 64.23702,26.99649 64.23702,60.29833c0,33.30185 -28.7599,60.29833 -64.23702,60.29833c-35.47712,0 -64.23702,-26.99649 -64.23702,-60.29833z" fill="#804400" stroke="#000000" stroke-width="2" stroke-linecap="butt"/><path d="M189.3902,137.27563c0,-12.968 10.51265,-23.48065 23.48065,-23.48065c12.968,0 23.48065,10.51265 23.48065,23.48065c0,12.968 -10.51265,23.48065 -23.48065,23.48065c-12.968,0 -23.48065,-10.51265 -23.48065,-23.48065z" fill="#ffffff" stroke="#000000" stroke-width="2" stroke-linecap="butt"/><path d="M189.95557,139.25c0,-9.12808 7.39976,-16.52784 16.52783,-16.52784c9.12808,0 16.52784,7.39977 16.52784,16.52784c0,9.12808 -7.39977,16.52784 -16.52784,16.52784c-9.12808,0 -16.52783,-7.39977 -16.52783,-16.52784z" fill="#000000" stroke="none" stroke-width="0" stroke-linecap="butt"/><path d="M227.50706,176.65643h25.10959" fill="none" stroke="#000000" stroke-width="2" stroke-linecap="round"/><path d="M267.12927,160.75627c-12.968,0 -23.48065,-10.51265 -23.48065,-23.48065c0,-12.968 10.51265,-23.48065 23.48065,-23.48065c12.968,0 23.48065,10.51265 23.48065,23.48065c0,12.968 -10.51265,23.48065 -23.48065,23.48065z" data-paper-data="{&quot;index&quot;:null}" fill="#ffffff" stroke="#000000" stroke-width="2" stroke-linecap="butt"/><path d="M273.51671,151.02784c-9.12807,0 -16.52783,-7.39977 -16.52783,-16.52784c0,-9.12808 7.39977,-16.52784 16.52783,-16.52784c9.12807,0 16.52783,7.39977 16.52783,16.52784c0,9.12808 -7.39977,16.52784 -16.52783,16.52784z" data-paper-data="{&quot;index&quot;:null}" fill="#000000" stroke="none" stroke-width="0" stroke-linecap="butt"/><path d="M202.02788,108.46716c0,0 6.70895,-5.16922 11.79721,-6.36355c5.08827,-1.19433 12.33413,0.69937 12.33413,0.69937c0,0 -8.03812,-0.06028 -11.96762,0.86207c-4.10648,0.96389 -12.16372,4.80211 -12.16372,4.80211z" fill="#000000" stroke="none" stroke-width="0" stroke-linecap="butt"/><path d="M265.96236,103.66506c-3.9295,-0.92235 -11.96762,-0.86207 -11.96762,-0.86207c0,0 7.24586,-1.8937 12.33413,-0.69937c5.08826,1.19433 11.79721,6.36355 11.79721,6.36355c0,0 -8.05724,-3.83822 -12.16372,-4.80211z" data-paper-data="{&quot;index&quot;:null}" fill="#000000" stroke="none" stroke-width="0" stroke-linecap="butt"/><path d="M217.67795,53.65405c0,-18.58286 9.64121,-33.64725 21.53426,-33.64725c11.89304,0 21.53426,15.06439 21.53426,33.64725c0,18.58286 -9.64121,33.64725 -21.53426,33.64725c-11.89304,0 -21.53426,-15.06439 -21.53426,-33.64725z" fill="#804400" stroke="#000000" stroke-width="2" stroke-linecap="butt"/><path d="M280.2364,112.93004c-7.6423,-7.77484 -2.87943,-24.84895 10.63816,-38.13611c13.51759,-13.28715 30.67106,-17.75577 38.31336,-9.98094c7.6423,7.77484 2.87943,24.84895 -10.63816,38.13611c-13.51759,13.28715 -30.67106,17.75577 -38.31336,9.98094z" fill="#804400" stroke="#000000" stroke-width="2" stroke-linecap="butt"/><path d="M195.24158,203.05866c-13.51759,13.28716 -30.67107,17.75577 -38.31336,9.98094c-7.64229,-7.77483 -2.87943,-24.84894 10.63816,-38.1361c13.51759,-13.28716 30.67108,-17.75578 38.31337,-9.98095c7.6423,7.77484 2.87943,24.84896 -10.63816,38.13611z" fill="#804400" stroke="#000000" stroke-width="2" stroke-linecap="butt"/><path d="M177.29631,82.93435c13.51759,13.28715 18.28046,30.36128 10.63816,38.13611c-7.64229,7.77483 -24.79578,3.30621 -38.31337,-9.98095c-13.51759,-13.28715 -18.28045,-30.36127 -10.63816,-38.1361c7.64229,-7.77483 24.79577,-3.30621 38.31336,9.98094z" data-paper-data="{&quot;index&quot;:null}" fill="#804400" stroke="#000000" stroke-width="2" stroke-linecap="butt"/><path d="M313.74492,184.38982c13.51759,13.28715 18.28046,30.36128 10.63816,38.13611c-7.64229,7.77483 -24.79578,3.30621 -38.31337,-9.98094c-13.51759,-13.28715 -18.28046,-30.36127 -10.63816,-38.1361c7.64229,-7.77483 24.79578,-3.30622 38.31337,9.98094z" data-paper-data="{&quot;index&quot;:null}" fill="#804400" stroke="#000000" stroke-width="2" stroke-linecap="butt"/><path d="M230.09848,174.94817c0.39254,-0.56274 0.80305,-1.11417 1.22481,-1.65099c-0.09919,0.07889 -0.19887,0.15685 -0.29912,0.2337c-0.35443,0.27173 -0.95456,0.49933 -0.94889,0.9459c0.00201,0.15827 0.00982,0.31543 0.0232,0.47138zM253.78782,167.80037c0.42568,0.32357 0.84533,0.67068 1.25502,1.03877c0.71316,-0.42511 1.90085,-0.83459 1.34685,-1.05526c-0.81648,-0.32522 -1.70518,-0.16231 -2.60188,0.01649zM227.31477,188.50836c-4.56427,-3.75099 -7.47278,-9.41604 -7.10232,-15.68223c0.13919,-2.35428 1.84189,-4.48001 3.51931,-6.13781c7.72913,-7.63868 19.16587,-11.28482 29.91171,-8.51351c3.98258,1.02709 9.24782,1.16226 11.42936,4.64891c1.97463,3.15594 -0.00936,7.68902 -1.60529,11.05237c-0.64513,1.35958 -1.61061,2.73864 -2.78082,4.08709c0.30851,1.44019 0.3561,2.9112 0.06447,4.36173c-0.71848,3.57362 -5.22302,5.08606 -7.83453,7.62909c-3.96768,1.06523 -7.79903,3.0106 -11.90305,3.1957c-2.21596,0.09995 -4.39058,-0.18371 -6.44935,-0.79071c-2.23494,-0.0049 -4.54314,-0.47081 -5.94572,-2.01098c-0.53763,-0.59038 -0.96863,-1.20536 -1.30378,-1.83965z" fill="#000000" stroke="none" stroke-width="0.5" stroke-linecap="butt"/></g></g></svg>