<svg version="1.1" xmlns="http://www.w3.org/2000/svg" xmlns:xlink="http://www.w3.org/1999/xlink" width="34.17311" height="34.17311" viewBox="0,0,34.17311,34.17311"><g transform="translate(-222.91347,-162.91347)"><g data-paper-data="{&quot;isPaintingLayer&quot;:true}" stroke-miterlimit="10" stroke-dasharray="" stroke-dashoffset="0" style="mix-blend-mode: normal"><path d="M229.98315,162.91348h20.03378c3.9166,0 7.06966,3.15307 7.06966,7.06966v20.03379c0,3.91659 -3.15306,7.06966 -7.06966,7.06966h-20.03378c-3.91659,0 -7.06967,-3.15307 -7.06967,-7.06966v-20.03379c0,-3.91659 3.15308,-7.06966 7.06967,-7.06966z" fill-opacity="0.09677" fill="#191919" fill-rule="evenodd" stroke="none" stroke-width="4.43922" stroke-linecap="round" stroke-linejoin="round"/><path d="M251.79368,180.92449c0,7.37544 -5.65499,13.35441 -12.63077,13.35441c-6.97579,0 -12.63077,-5.97897 -12.63077,-13.35441c0,-7.37544 5.65499,-13.35442 12.63078,-13.35442c6.97579,0 12.63078,5.97898 12.63078,13.35442z" fill="none" fill-rule="nonzero" stroke="#3b3b3b" stroke-width="2.5" stroke-linecap="butt" stroke-linejoin="miter"/><path d="M244.16258,181.65566c0,2.72492 -2.03226,4.9339 -4.53919,4.9339c-2.50692,0 -4.53919,-2.20898 -4.53919,-4.9339c0,-2.72492 2.03226,-4.9339 4.53919,-4.9339c2.50692,0 4.53919,2.20898 4.53919,4.9339z" fill="#000000" fill-rule="nonzero" stroke="#ffffff" stroke-width="2.5" stroke-linecap="butt" stroke-linejoin="miter"/><path d="M230.47925,173.62985l17.30155,16.71004" fill="none" fill-rule="nonzero" stroke="#3b3b3b" stroke-width="2.5" stroke-linecap="round" stroke-linejoin="miter"/></g></g></svg>