<svg version="1.1" xmlns="http://www.w3.org/2000/svg" xmlns:xlink="http://www.w3.org/1999/xlink" width="123.47839" height="269.43113" viewBox="0,0,123.47839,269.43113"><g transform="translate(-178.9874,-44.18138)"><g data-paper-data="{&quot;isPaintingLayer&quot;:true}" fill-rule="nonzero" stroke-linejoin="miter" stroke-miterlimit="10" stroke-dasharray="" stroke-dashoffset="0" style="mix-blend-mode: normal"><path d="M273.77673,45.18138l-13.57389,132l-37.78325,-0.15789l-15.14285,-131.8421z" data-paper-data="{&quot;index&quot;:null}" fill="#4dff5b" stroke="#000000" stroke-width="2" stroke-linecap="butt"/><path d="M179.28376,313.61251v-267.22501h123.18203v267.22501z" fill-opacity="0.01" fill="#000000" stroke="none" stroke-width="0" stroke-linecap="butt"/><path d="M206.75007,307.5l15.14285,-131.8421l37.78325,-0.15789l13.57389,132z" fill="#4dff5b" stroke="#000000" stroke-width="2" stroke-linecap="butt"/><path d="M180.07075,102.60717c0,-12.968 10.51265,-23.48065 23.48065,-23.48065c12.968,0 23.48065,10.51265 23.48065,23.48065c0,12.968 -10.51265,23.48065 -23.48065,23.48065c-12.968,0 -23.48065,-10.51265 -23.48065,-23.48065z" fill="#ffffff" stroke="#000000" stroke-width="2" stroke-linecap="butt"/><path d="M193.10063,102.70438c0,-9.12808 7.39976,-16.52784 16.52783,-16.52784c9.12808,0 16.52784,7.39977 16.52784,16.52784c0,9.12808 -7.39977,16.52784 -16.52784,16.52784c-9.12808,0 -16.52783,-7.39977 -16.52783,-16.52784z" fill="#000000" stroke="none" stroke-width="0" stroke-linecap="butt"/><path d="M262.16021,122.36003c-12.968,0 -23.48065,-10.51265 -23.48065,-23.48065c0,-12.968 10.51265,-23.48065 23.48065,-23.48065c12.968,0 23.48065,10.51265 23.48065,23.48065c0,12.968 -10.51265,23.48065 -23.48065,23.48065z" data-paper-data="{&quot;index&quot;:null}" fill="#ffffff" stroke="#000000" stroke-width="2" stroke-linecap="butt"/><path d="M261.79766,114.75874c-9.12807,0 -16.52783,-7.39977 -16.52783,-16.52784c0,-9.12808 7.39977,-16.52784 16.52783,-16.52784c9.12807,0 16.52783,7.39977 16.52783,16.52784c0,9.12808 -7.39977,16.52784 -16.52783,16.52784z" data-paper-data="{&quot;index&quot;:null}" fill="#000000" stroke="none" stroke-width="0" stroke-linecap="butt"/><path d="M179.98741,103.35281c0,-12.968 10.51265,-23.48065 23.48065,-23.48065c12.968,0 23.48065,10.51265 23.48065,23.48065c0,0 -46.96131,1.23155 -46.96131,0z" fill="#00cc11" stroke="#000000" stroke-width="2" stroke-linecap="butt"/><path d="M239.54805,96.26998c0,-12.968 10.51265,-23.48065 23.48065,-23.48065c12.968,0 23.48065,10.51265 23.48065,23.48065c0,1.2138 -46.96131,0 -46.96131,0z" data-paper-data="{&quot;index&quot;:null}" fill="#00cc11" stroke="#000000" stroke-width="2" stroke-linecap="butt"/><path d="M255.89789,137.83263c0,0 -5.208,4.8892 -13.68694,8.94107c-8.47894,4.05188 -15.46274,4.52685 -15.46274,4.52685" fill="none" stroke="#000000" stroke-width="2" stroke-linecap="round"/><path d="M231.67333,159.51972c-4.72122,-1.96192 -8.54022,-5.67911 -5.90634,-11.99519c1.39275,-3.33983 4.25159,-5.8915 6.7913,-8.46911c6.07434,-6.16499 10.06428,-8.60644 19.41836,-8.05838c2.83041,0.16584 5.40925,1.78754 7.91584,3.11259c1.77967,0.94079 3.82818,1.87917 4.82997,3.62524c6.79403,11.84165 -7.84867,22.92153 -16.46721,28.11545c-2.03436,1.226 -4.26998,2.35747 -6.63221,2.60557c-2.59565,0.27262 -5.72989,0.55431 -7.75288,-1.0947c-2.23922,-1.82527 -2.56389,-4.86345 -2.19682,-7.84147z" fill="#000101" stroke="none" stroke-width="0.5" stroke-linecap="butt"/></g></g></svg>