<svg version="1.1" xmlns="http://www.w3.org/2000/svg" xmlns:xlink="http://www.w3.org/1999/xlink" width="123.18203" height="267.44583" viewBox="0,0,123.18203,267.44583"><g transform="translate(-179.28375,-46.38751)"><g data-paper-data="{&quot;isPaintingLayer&quot;:true}" fill-rule="nonzero" stroke-linejoin="miter" stroke-miterlimit="10" stroke-dasharray="" stroke-dashoffset="0" style="mix-blend-mode: normal"><path d="M280.58338,47.83334l-13.57389,132l-37.78325,-0.15789l-15.14285,-131.8421z" data-paper-data="{&quot;index&quot;:null}" fill="#a5ff00" stroke="#000000" stroke-width="2" stroke-linecap="butt"/><path d="M211.75007,312.83333l15.14285,-131.8421l37.78325,-0.15789l13.57389,132z" fill="#a5ff00" stroke="#000000" stroke-width="2" stroke-linecap="butt"/><path d="M179.28375,313.61252v-267.22501h123.18203v267.22501z" fill-opacity="0.01" fill="#000000" stroke="none" stroke-width="0" stroke-linecap="butt"/><path d="M189.39012,138.52563c0,-12.96801 10.51265,-23.48065 23.48066,-23.48065c12.96801,0 23.48065,10.51264 23.48065,23.48065c0,12.96801 -10.51264,23.48066 -23.48065,23.48066c-12.96801,0 -23.48066,-10.51265 -23.48066,-23.48066z" fill="#000000" stroke="#000000" stroke-width="2" stroke-linecap="butt"/><path d="M267.12922,162.00629c-12.96801,0 -23.48065,-10.51265 -23.48065,-23.48066c0,-12.96801 10.51264,-23.48065 23.48065,-23.48065c12.96801,0 23.48066,10.51264 23.48066,23.48065c0,12.96801 -10.51265,23.48066 -23.48066,23.48066z" data-paper-data="{&quot;index&quot;:null}" fill="#000000" stroke="#000000" stroke-width="2" stroke-linecap="butt"/><path d="M189.39019,137.27563c0,-12.968 10.51265,-23.48065 23.48065,-23.48065c12.968,0 23.48065,10.51265 23.48065,23.48065c0,12.968 -10.51265,23.48065 -23.48065,23.48065c-12.968,0 -23.48065,-10.51265 -23.48065,-23.48065z" fill="#ffffff" stroke="#000000" stroke-width="2" stroke-linecap="butt"/><path d="M193.70558,137c0,-10.64686 8.63098,-19.27784 19.27783,-19.27784c10.64686,0 19.27784,8.63099 19.27784,19.27784c0,10.64686 -8.63099,19.27784 -19.27784,19.27784c-10.64686,0 -19.27783,-8.63099 -19.27783,-19.27784z" fill="#000000" stroke="none" stroke-width="0" stroke-linecap="butt"/><path d="M267.12927,160.75627c-12.968,0 -23.48065,-10.51265 -23.48065,-23.48065c0,-12.968 10.51265,-23.48065 23.48065,-23.48065c12.968,0 23.48065,10.51265 23.48065,23.48065c0,12.968 -10.51265,23.48065 -23.48065,23.48065z" data-paper-data="{&quot;index&quot;:null}" fill="#000000" stroke="#000000" stroke-width="2" stroke-linecap="butt"/><path d="M230.53889,158.70902l5.6,-17.6" fill="none" stroke="#000000" stroke-width="2" stroke-linecap="round"/><path d="M243.73889,139.30902l3.6,20.4" fill="none" stroke="#000000" stroke-width="2" stroke-linecap="round"/></g></g></svg>