<svg version="1.1" xmlns="http://www.w3.org/2000/svg" xmlns:xlink="http://www.w3.org/1999/xlink" width="35.125" height="35.12434" viewBox="0,0,35.125,35.12434"><g transform="translate(-222.43752,-162.43783)"><g data-paper-data="{&quot;isPaintingLayer&quot;:true}" stroke-miterlimit="10" stroke-dasharray="" stroke-dashoffset="0" style="mix-blend-mode: normal"><path d="M257.56251,169.8317v20.49804c0,4.00745 -3.22497,7.23243 -7.23242,7.23243h-20.5c-3.66107,0 -6.66147,-2.69385 -7.1543,-6.21484c0.7952,3.03475 3.54108,5.26367 6.83204,5.26367h20.0332c3.9166,0 7.07032,-3.15372 7.07032,-7.07031v-20.03321c0,-3.2976 -2.23906,-6.0451 -5.28321,-6.83398c3.52994,0.48496 6.23438,3.49081 6.23438,7.15821z" fill-opacity="0.29839" fill="#000000" fill-rule="evenodd" stroke="none" stroke-width="4.54219" stroke-linecap="round" stroke-linejoin="round"/><path d="M229.50719,162.43783h20.03378c3.9166,0 7.06966,3.15307 7.06966,7.06966v20.03379c0,3.91659 -3.15307,7.06966 -7.06966,7.06966h-20.03378c-3.91659,0 -7.06967,-3.15307 -7.06967,-7.06966v-20.03379c0,-3.91659 3.15308,-7.06966 7.06967,-7.06966z" fill="#babebf" fill-rule="evenodd" stroke="none" stroke-width="4.43922" stroke-linecap="round" stroke-linejoin="round"/><path d="M252.94475,185.4102c0,6.08565 -5.24265,11.01904 -11.70978,11.01904c-6.46713,0 -11.70978,-4.93339 -11.70978,-11.01904c0,-6.08565 5.24265,-11.01904 11.70978,-11.01904c6.46713,0 11.70978,4.93339 11.70978,11.01904z" fill="#2b00ff" fill-rule="nonzero" stroke="#000000" stroke-width="0.5" stroke-linecap="butt" stroke-linejoin="miter"/><path d="M228.18185,176.86931c0.15424,-2.4775 1.40911,-8.11878 4.58716,-8.70863c2.95769,-0.54895 3.28012,3.36745 4.99938,4.11118c1.22089,0.52814 4.32214,0.18068 5.92391,0.74187c0.76365,0.26755 1.61373,0.55952 2.33568,0.95634c0.26933,0.14804 0.62982,0.74644 0.7861,0.48181c0.55831,-0.94536 3.40902,-11.26908 6.71493,-6.5705c1.29212,1.83645 0.54985,5.96252 0.465,7.5625c-0.02403,0.45316 0.25415,7.81279 -1.15433,8.37087c-3.30362,1.30899 -3.51253,-0.81079 -6.56007,-1.42283c-2.10418,-0.42259 -6.32467,-0.88578 -8.38268,-0.79937c-0.55821,0.02344 -0.86084,0.7129 -1.30505,1.05177c-0.31789,0.24251 -0.94493,-0.53797 -1.37892,-0.50236c-0.46023,0.03777 -0.55583,0.85905 -1.00864,0.94962c-2.41209,0.48245 -3.71667,-0.66565 -5.05655,-1.97873c-0.29397,-0.20535 -0.54174,-0.47228 -0.72459,-0.7821c-0.69867,-0.39924 -0.28835,-2.70676 -0.24136,-3.46144z" fill="#fff100" fill-rule="nonzero" stroke="none" stroke-width="0.5" stroke-linecap="butt" stroke-linejoin="miter"/></g></g></svg>