<svg version="1.1" xmlns="http://www.w3.org/2000/svg" xmlns:xlink="http://www.w3.org/1999/xlink" width="130.47404" height="267.22501" viewBox="0,0,130.47404,267.22501"><g transform="translate(-174.83996,-47.58751)"><g data-paper-data="{&quot;isPaintingLayer&quot;:true}" fill-rule="nonzero" stroke-linejoin="miter" stroke-miterlimit="10" stroke-dasharray="" stroke-dashoffset="0" style="mix-blend-mode: normal"><path d="M179.28374,314.81252c0,0 0,-87.48255 0,-131.69609c0,-44.85231 0,-135.52892 0,-135.52892h123.18203v267.22501z" fill-opacity="0.01" fill="#000000" stroke="none" stroke-width="0" stroke-linecap="butt"/><path d="M206.75005,307.5l15.14285,-131.8421l37.78325,-0.15789l13.57389,132z" fill="#ffffff" stroke="#000000" stroke-width="2" stroke-linecap="butt"/><path d="M219.70028,204.11263l3.12142,-26.32765l35.83075,-0.14203l2.76735,26.1059c0,0 -7.51543,4.19603 -21.55904,4.50964c-12.48458,0.27879 -20.16049,-4.14586 -20.16049,-4.14586z" fill="#ffffff" stroke="#000000" stroke-width="0" stroke-linecap="butt"/><path d="M175.83996,140.84616c0,-33.30185 28.7599,-60.29833 64.23702,-60.29833c35.47712,0 64.23702,26.99649 64.23702,60.29833c0,33.30185 -28.7599,60.29833 -64.23702,60.29833c-35.47712,0 -64.23702,-26.99649 -64.23702,-60.29833z" fill="#ff0000" stroke="#000000" stroke-width="2" stroke-linecap="butt"/><path d="M176.56302,140.9c0,-0.72799 5.20666,55.91939 63.36046,56.93429c55.56352,0.9697 63.51358,-57.95314 63.51358,-56.93429c0,32.80479 -28.40173,59.39833 -63.43702,59.39833c-35.03529,0 -63.43702,-26.59354 -63.43702,-59.39833z" fill="#e60000" stroke="#000000" stroke-width="0" stroke-linecap="butt"/><path d="M189.39017,141.27563c0,-12.968 10.51265,-23.48065 23.48065,-23.48065c12.968,0 23.48065,10.51265 23.48065,23.48065c0,12.968 -10.51265,23.48065 -23.48065,23.48065c-12.968,0 -23.48065,-10.51265 -23.48065,-23.48065z" fill="#ffffff" stroke="#000000" stroke-width="2" stroke-linecap="butt"/><path d="M196.45556,141c0,-9.12808 7.39976,-16.52784 16.52783,-16.52784c9.12808,0 16.52784,7.39977 16.52784,16.52784c0,9.12808 -7.39977,16.52784 -16.52784,16.52784c-9.12808,0 -16.52783,-7.39977 -16.52783,-16.52784z" fill="#000000" stroke="none" stroke-width="0" stroke-linecap="butt"/><path d="M232.33889,188.25643c-5.30563,-0.2 -5.63184,-6.75 -5.63184,-6.75c0,0 9.0676,-2 13.23184,-2c4.20523,0 12.67775,1.4 12.67775,1.4c0,0 -11.17858,7.693 -20.27775,7.35z" fill="#ffffff" stroke="#000000" stroke-width="2" stroke-linecap="round"/><path d="M267.12926,164.75627c-12.968,0 -23.48065,-10.51265 -23.48065,-23.48065c0,-12.968 10.51265,-23.48065 23.48065,-23.48065c12.968,0 23.48065,10.51265 23.48065,23.48065c0,12.968 -10.51265,23.48065 -23.48065,23.48065z" data-paper-data="{&quot;index&quot;:null}" fill="#ffffff" stroke="#000000" stroke-width="2" stroke-linecap="butt"/><path d="M267.01669,157.52784c-9.12807,0 -16.52783,-7.39977 -16.52783,-16.52784c0,-9.12808 7.39977,-16.52784 16.52783,-16.52784c9.12807,0 16.52783,7.39977 16.52783,16.52784c0,9.12808 -7.39977,16.52784 -16.52783,16.52784z" data-paper-data="{&quot;index&quot;:null}" fill="#000000" stroke="none" stroke-width="0" stroke-linecap="butt"/><path d="M189.54014,141.34426c0,-12.96801 10.51265,-23.48065 23.48066,-23.48065c12.96801,0 23.48065,10.51264 23.48065,23.48065c0,0 -5.87479,7.43483 -24.09973,8.04454c-16.46595,0.55086 -22.86157,-7.42793 -22.86157,-8.04454z" fill="#ff0000" stroke="#000000" stroke-width="2" stroke-linecap="butt"/><path d="M243.54859,141.24426c0,-12.96801 10.51264,-23.48065 23.48065,-23.48065c12.96801,0 23.48066,10.51264 23.48066,23.48065c0,0.60606 -6.03889,8.15023 -23.59162,8.05233c-17.30256,-0.0965 -23.36969,-8.05233 -23.36969,-8.05233z" data-paper-data="{&quot;index&quot;:null}" fill="#ff0000" stroke="#000000" stroke-width="2" stroke-linecap="butt"/><path d="M196.78758,110.52533c0,0 11.81231,-1.986 18.95687,-0.09021c7.14457,1.89579 14.92657,9.08106 14.92657,9.08106c0,0 -9.99081,-5.42456 -15.50833,-6.8886c-5.76602,-1.52998 -18.37512,-2.10225 -18.37512,-2.10225z" fill="#000000" stroke="none" stroke-width="0" stroke-linecap="butt"/><path d="M265.02549,112.60664c-5.54555,1.35397 -15.64234,6.57864 -15.64234,6.57864c0,0 7.92344,-7.029 15.10432,-8.78225c7.18086,-1.75325 18.95133,0.4674 18.95133,0.4674c0,0 -12.61799,0.32125 -18.41331,1.7362z" data-paper-data="{&quot;index&quot;:null}" fill="#000000" stroke="none" stroke-width="0" stroke-linecap="butt"/><path d="M251.44907,181.10937c0,0 -11.24648,3.23996 -15.84867,2.87027c-4.38945,-0.35259 -9.318,-2.03693 -9.318,-2.03693" fill="none" stroke="#000000" stroke-width="0.5" stroke-linecap="round"/><path d="M229.23642,119.43764l-2.27217,-1.81872c-0.17435,-0.15261 -0.34868,-0.30529 -0.5229,-0.45813c-1.53196,1.48899 -3.53742,0.28568 -3.53742,0.28568l-2.12113,-1.27529c-6.28316,-3.16495 -11.11877,-2.98782 -17.89475,-1.47805c0,0 -2.92856,0.65081 -3.57937,-2.27774c-0.01739,-0.07825 -0.03222,-0.15488 -0.04462,-0.22991c-1.39653,0.29538 -2.7913,0.60015 -4.20619,0.7791c0,0 -2.97683,0.37211 -3.34894,-2.60472c-0.37212,-2.97683 2.60471,-3.34895 2.60471,-3.34895c2.39409,-0.29537 4.7218,-1.0142 7.11284,-1.3333c6.42534,-0.85751 13.47957,1.45653 19.71754,2.95901c0.08731,-0.10846 0.1849,-0.21721 0.29365,-0.32597c2.1213,-2.12134 4.24264,-0.00004 4.24264,-0.00004c0.727,0.72799 1.47473,1.43488 2.23412,2.12943c0.09721,0.03621 0.19404,0.07313 0.2905,0.11081c0.0793,-0.00629 0.15946,-0.00949 0.24038,-0.00949c1.06949,0 2.00827,0.55964 2.53947,1.40205c0.90673,0.57317 1.79714,1.27062 2.69127,2.14192l1.5525,3.22814c0,0 1.11418,2.78542 -1.67124,3.89961c-2.2945,0.91781 -3.45495,-0.81052 -3.79273,-1.44826c-0.32885,-0.16775 -0.52815,-0.32719 -0.52815,-0.32719z" fill="#ff0000" stroke="none" stroke-width="0.5" stroke-linecap="butt"/><path d="M282.94986,111.24824c-0.37209,2.97684 -3.34892,2.60475 -3.34892,2.60475l-3.55366,-0.44418c-1.18455,-0.14807 -2.36911,-0.29614 -3.55366,-0.44422c0,0 -1.41535,-0.17692 -2.1722,-1.26271c-6.59883,1.51801 -13.04139,4.71538 -18.44601,8.3335c0,0 -2.49615,1.66411 -4.16025,-0.83204c-1.66411,-2.49615 0.83204,-4.16025 0.83204,-4.16025c8.59619,-5.70961 19.22166,-10.25803 29.64897,-10.27638h2.22107c0,0 3,0 3,3c0,0.87459 -0.25497,1.49421 -0.61625,1.93319c0.15781,0.4155 0.22681,0.92477 0.14887,1.54833z" fill="#ff0000" stroke="none" stroke-width="0.5" stroke-linecap="butt"/><path d="M250.02291,177.41731c0.56993,0.16364 1.13623,0.33872 1.69113,0.52616c0.53652,-0.16322 1.07363,-0.32434 1.61171,-0.48187c0.35426,-0.10371 0.79671,-0.25945 1.28737,-0.4205c-0.45738,-0.02229 -0.91448,-0.02896 -1.37096,0.00087c-1.00803,0.06588 -2.0978,0.18998 -3.21924,0.37533zM226.40973,179.50084c-0.01057,-2.34249 10.91438,-4.52103 11.24765,-4.54757c0.32064,-0.02554 0.64001,-0.01891 0.95846,0.00996c4.5298,-2.44112 9.98565,-3.77889 14.35349,-3.91505c2.73644,-0.0853 13.09038,-0.38073 12.21302,6.38098c-0.12849,0.99028 -0.82269,1.82828 -1.80931,2.53884c0.48515,0.53296 0.78091,1.24137 0.78091,2.01885c0,1.44317 -1.01903,2.64833 -2.3768,2.93518l-1.88067,0.43923c0.00621,0.30431 -0.03077,0.60575 -0.11957,0.89978c-0.60624,2.00725 -3.32313,2.55797 -4.98469,3.83695c-0.38155,0.0715 -0.76379,0.14198 -1.14666,0.21057c-0.54127,0.53141 -1.28317,0.85916 -2.10162,0.85916c-0.11449,0 -0.22748,-0.00641 -0.33863,-0.0189l-1.91896,-0.19187c-1.24237,0.13403 -2.48846,0.21407 -3.73594,0.21077c-0.20013,-0.00053 -0.40046,0.00136 -0.60092,0.00499c-0.03044,0.07323 -0.0506,0.11355 -0.0506,0.11355l-2.79618,2.52837c-2.89911,0.21722 -10.04735,2.03547 -9.98182,-4.58859c0.00268,-0.27112 0.05759,-0.51837 0.1551,-0.74569c-1.4499,0.37474 -2.90044,0.7531 -4.33239,0.46582c-0.16599,-0.0333 -0.33057,-0.07091 -0.49384,-0.11245l-0.01141,0.05975l-5.27189,-1.00676c-1.41408,-0.24202 -2.4903,-1.47377 -2.4903,-2.95688c0,-1.39413 0.95096,-2.56616 2.2396,-2.90279l4.67946,-1.33699c-0.11801,-0.38496 -0.18366,-0.78193 -0.1855,-1.1892z" fill="#ff0000" stroke="none" stroke-width="0.5" stroke-linecap="butt"/><path d="M232.87152,306.34055v-106.16486h15.10297v106.16486z" fill="#000000" stroke="#000000" stroke-width="2" stroke-linecap="butt"/></g></g></svg>