<svg version="1.1" xmlns="http://www.w3.org/2000/svg" xmlns:xlink="http://www.w3.org/1999/xlink" width="199.49648" height="294.60572" viewBox="0,0,199.49648,294.60572"><g transform="translate(-134.33719,-19.0068)"><g data-paper-data="{&quot;isPaintingLayer&quot;:true}" fill-rule="nonzero" stroke-linecap="butt" stroke-linejoin="miter" stroke-miterlimit="10" stroke-dasharray="" stroke-dashoffset="0" style="mix-blend-mode: normal"><path d="M179.48375,313.61252v-267.22501h123.18203v267.22501z" fill-opacity="0.01" fill="#000000" stroke="none" stroke-width="0"/><path d="M206.75007,307.5l15.14285,-131.8421l37.78325,-0.15789l13.57389,132z" fill="#804400" stroke="#000000" stroke-width="2"/><path d="M219.70029,204.11263l3.12142,-26.32765l35.83075,-0.14203l2.76735,26.1059c0,0 -7.51543,4.19603 -21.55904,4.50964c-12.48458,0.27879 -20.16049,-4.14586 -20.16049,-4.14586z" fill="#663600" stroke="#000000" stroke-width="0"/><path d="M176.56303,136.9c0,-0.72799 5.20666,55.91939 63.36046,56.93429c55.56352,0.9697 63.51358,-57.95314 63.51358,-56.93429c0,32.80479 -28.40173,59.39833 -63.43702,59.39833c-35.03529,0 -63.43702,-26.59354 -63.43702,-59.39833z" fill="#663600" stroke="#000000" stroke-width="0"/><path d="M176.28863,136.84616c0,-33.30185 28.7599,-60.29833 64.23702,-60.29833c35.47712,0 64.23702,26.99649 64.23702,60.29833c0,33.30185 -28.7599,60.29833 -64.23702,60.29833c-35.47712,0 -64.23702,-26.99649 -64.23702,-60.29833z" fill="#804400" stroke="#000000" stroke-width="2"/><path d="M189.3902,137.27563c0,-12.968 10.51265,-23.48065 23.48065,-23.48065c12.968,0 23.48065,10.51265 23.48065,23.48065c0,12.968 -10.51265,23.48065 -23.48065,23.48065c-12.968,0 -23.48065,-10.51265 -23.48065,-23.48065z" fill="#ffffff" stroke="#000000" stroke-width="2"/><path d="M189.95557,139.25c0,-9.12808 7.39976,-16.52784 16.52783,-16.52784c9.12808,0 16.52784,7.39977 16.52784,16.52784c0,9.12808 -7.39977,16.52784 -16.52784,16.52784c-9.12808,0 -16.52783,-7.39977 -16.52783,-16.52784z" fill="#000000" stroke="none" stroke-width="0"/><path d="M267.12927,160.75627c-12.968,0 -23.48065,-10.51265 -23.48065,-23.48065c0,-12.968 10.51265,-23.48065 23.48065,-23.48065c12.968,0 23.48065,10.51265 23.48065,23.48065c0,12.968 -10.51265,23.48065 -23.48065,23.48065z" data-paper-data="{&quot;index&quot;:null}" fill="#ffffff" stroke="#000000" stroke-width="2"/><path d="M273.51671,151.02784c-9.12807,0 -16.52783,-7.39977 -16.52783,-16.52784c0,-9.12808 7.39977,-16.52784 16.52783,-16.52784c9.12807,0 16.52783,7.39977 16.52783,16.52784c0,9.12808 -7.39977,16.52784 -16.52783,16.52784z" data-paper-data="{&quot;index&quot;:null}" fill="#000000" stroke="none" stroke-width="0"/><path d="M202.02788,108.46716c0,0 6.70895,-5.16922 11.79721,-6.36355c5.08827,-1.19433 12.33413,0.69937 12.33413,0.69937c0,0 -8.03812,-0.06028 -11.96762,0.86207c-4.10648,0.96389 -12.16372,4.80211 -12.16372,4.80211z" fill="#000000" stroke="none" stroke-width="0"/><path d="M265.96236,103.66506c-3.9295,-0.92235 -11.96762,-0.86207 -11.96762,-0.86207c0,0 7.24586,-1.8937 12.33413,-0.69937c5.08826,1.19433 11.79721,6.36355 11.79721,6.36355c0,0 -8.05724,-3.83822 -12.16372,-4.80211z" data-paper-data="{&quot;index&quot;:null}" fill="#000000" stroke="none" stroke-width="0"/><path d="M217.67795,53.65405c0,-18.58286 9.64121,-33.64725 21.53426,-33.64725c11.89304,0 21.53426,15.06439 21.53426,33.64725c0,18.58286 -9.64121,33.64725 -21.53426,33.64725c-11.89304,0 -21.53426,-15.06439 -21.53426,-33.64725z" fill="#804400" stroke="#000000" stroke-width="2"/><path d="M280.2364,112.93004c-7.6423,-7.77484 -2.87943,-24.84895 10.63816,-38.13611c13.51759,-13.28715 30.67106,-17.75577 38.31336,-9.98094c7.6423,7.77484 2.87943,24.84895 -10.63816,38.13611c-13.51759,13.28715 -30.67106,17.75577 -38.31336,9.98094z" fill="#804400" stroke="#000000" stroke-width="2"/><path d="M195.24158,203.05866c-13.51759,13.28716 -30.67107,17.75577 -38.31336,9.98094c-7.64229,-7.77483 -2.87943,-24.84894 10.63816,-38.1361c13.51759,-13.28716 30.67108,-17.75578 38.31337,-9.98095c7.6423,7.77484 2.87943,24.84896 -10.63816,38.13611z" fill="#804400" stroke="#000000" stroke-width="2"/><path d="M177.29631,82.93435c13.51759,13.28715 18.28046,30.36128 10.63816,38.13611c-7.64229,7.77483 -24.79578,3.30621 -38.31337,-9.98095c-13.51759,-13.28715 -18.28045,-30.36127 -10.63816,-38.1361c7.64229,-7.77483 24.79577,-3.30621 38.31336,9.98094z" data-paper-data="{&quot;index&quot;:null}" fill="#804400" stroke="#000000" stroke-width="2"/><text transform="translate(234.47913,171.89404) scale(0.5,0.5)" font-size="40" xml:space="preserve" fill="none" fill-rule="nonzero" stroke="none" stroke-width="1" stroke-linecap="butt" stroke-linejoin="miter" stroke-miterlimit="10" stroke-dasharray="" stroke-dashoffset="0" font-family="Sans Serif" font-weight="normal" text-anchor="start" style="mix-blend-mode: normal"><tspan x="0" dy="0">🖤</tspan></text><path d="M313.74492,184.38982c13.51759,13.28715 18.28046,30.36128 10.63816,38.13611c-7.64229,7.77483 -24.79578,3.30621 -38.31337,-9.98094c-13.51759,-13.28715 -18.28046,-30.36127 -10.63816,-38.1361c7.64229,-7.77483 24.79578,-3.30622 38.31337,9.98094z" data-paper-data="{&quot;index&quot;:null}" fill="#804400" stroke="#000000" stroke-width="2"/><path d="M262.92804,172.69446c0,7.52205 -10.72037,13.61987 -23.94461,13.61987c-13.22424,0 -23.94461,-6.09782 -23.94461,-13.61987c0,-7.52205 10.72037,-13.61987 23.94461,-13.61987c13.22424,0 23.94461,6.09782 23.94461,13.61987z" fill="#000000" stroke="#000000" stroke-width="2"/></g></g></svg>