<svg version="1.1" xmlns="http://www.w3.org/2000/svg" xmlns:xlink="http://www.w3.org/1999/xlink" width="130.47404" height="267.22501" viewBox="0,0,130.47404,267.22501"><g transform="translate(-174.76299,-46.38751)"><g data-paper-data="{&quot;isPaintingLayer&quot;:true}" fill-rule="nonzero" stroke-linejoin="miter" stroke-miterlimit="10" stroke-dasharray="" stroke-dashoffset="0" style="mix-blend-mode: normal"><path d="M179.28372,313.61252v-267.22501h123.18203v267.22501z" fill-opacity="0.01" fill="#000000" stroke="none" stroke-width="0" stroke-linecap="butt"/><path d="M206.75002,307.5l15.14285,-131.8421l37.78325,-0.15789l13.57389,132z" fill="#ffffff" stroke="#000000" stroke-width="2" stroke-linecap="butt"/><path d="M219.70026,204.11263l3.12142,-26.32765l35.83075,-0.14203l2.76735,26.1059c0,0 -7.51543,4.19603 -21.55904,4.50964c-12.48458,0.27879 -20.16049,-4.14586 -20.16049,-4.14586z" fill="#e6e6e6" stroke="#000000" stroke-width="0" stroke-linecap="butt"/><path d="M175.763,137c0,-33.30185 31.59492,-29.51827 67.07204,-29.51827c35.47713,0 61.402,-3.78358 61.402,29.51827c0,33.30185 -28.75989,60.29834 -64.23702,60.29834c-35.47712,0 -64.23702,-26.99649 -64.23702,-60.29834z" fill="#ffffff" stroke="#000000" stroke-width="2" stroke-linecap="butt"/><path d="M239.92347,193.83429c22.75803,0.39718 39.31767,-10.24678 38.34372,-9.55603c-10.63726,7.54427 -23.89398,12.02007 -38.26716,12.02007c-14.23449,0 -27.37396,-4.38984 -37.9585,-11.80253c-0.40164,-0.28128 15.12391,8.94132 37.88194,9.33849z" fill="#e6e6e6" stroke="#000000" stroke-width="0" stroke-linecap="butt"/><path d="M189.39014,137.27563c0,-12.96801 10.51265,-23.48065 23.48066,-23.48065c12.96801,0 23.48065,10.51264 23.48065,23.48065c0,12.96801 -10.51264,23.48066 -23.48065,23.48066c-12.96801,0 -23.48066,-10.51265 -23.48066,-23.48066z" fill="#ffffff" stroke="#000000" stroke-width="2" stroke-linecap="butt"/><path d="M197.95554,137c0,-8.29964 6.72818,-15.02784 15.02783,-15.02784c8.29964,0 15.02784,6.72819 15.02784,15.02785c0,8.29964 -6.72819,15.02785 -15.02784,15.02785c-8.29964,0 -15.02783,-6.72819 -15.02783,-15.02785z" fill="none" stroke="#000000" stroke-width="5" stroke-linecap="butt"/><path d="M263.61661,171.15644c0,0 -14.04576,5.45117 -23.44298,5.5c-9.39722,0.04883 -24.66662,-5.25 -24.66662,-5.25" fill="none" stroke="#000000" stroke-width="2" stroke-linecap="round"/><path d="M189.39014,136.94229c0,-12.96801 10.51265,-23.48065 23.48066,-23.48065c12.96801,0 23.48065,10.51264 23.48065,23.48065c0,0 -7.7034,-14.393 -23.92315,-14.28244c-15.92464,0.10855 -23.03816,14.89048 -23.03816,14.28244z" fill="#ffffff" stroke="#000000" stroke-width="2" stroke-linecap="butt"/><path d="M267.12924,160.75629c-12.96801,0 -23.48065,-10.51265 -23.48065,-23.48066c0,-12.96801 10.51264,-23.48065 23.48065,-23.48065c12.96801,0 23.48066,10.51264 23.48066,23.48065c0,12.96801 -10.51265,23.48066 -23.48066,23.48066z" data-paper-data="{&quot;index&quot;:null}" fill="#ffffff" stroke="#000000" stroke-width="2" stroke-linecap="butt"/><path d="M282.0445,137c0,8.29966 -6.72818,15.02785 -15.02783,15.02785c-8.29964,0 -15.02784,-6.72821 -15.02784,-15.02785c0,-8.29966 6.7282,-15.02785 15.02784,-15.02785c8.29964,0 15.02783,6.7282 15.02783,15.02784z" data-paper-data="{&quot;index&quot;:null}" fill="none" stroke="#000000" stroke-width="5" stroke-linecap="butt"/><path d="M267.57174,122.99319c-16.21975,-0.11056 -23.92315,14.28244 -23.92315,14.28244c0,-12.96801 10.51264,-23.48065 23.48065,-23.48065c12.96801,0 23.48066,10.51264 23.48066,23.48065c0,0.60804 -7.11352,-14.17389 -23.03816,-14.28244z" data-paper-data="{&quot;index&quot;:null}" fill="#ffffff" stroke="#000000" stroke-width="2" stroke-linecap="butt"/><path d="M252.60165,171.06126c1.9526,-0.80126 3.82556,-1.834 5.85781,-2.40377c6.05138,-1.69657 20.88764,-0.38389 14.65377,10.52186c-1.57662,2.75819 -5.42771,3.3047 -8.10113,5.02114c-1.91414,1.22895 -3.96638,2.29397 -5.65913,3.81346c-6.44988,5.78969 -8.98633,13.14652 -13.57476,20.27834c-3.57424,5.55546 -4.47776,8.38456 -12.15132,5.99638c-1.30319,-0.40558 -6.84826,-8.31667 -7.05087,-8.6218c-3.10347,-4.67378 -3.30353,-6.13596 -5.52651,-10.44472l-0.90313,-0.12901c-2.46194,-0.31168 -4.36571,-2.41359 -4.36571,-4.96015c0,-0.92901 0.25336,-1.79884 0.69476,-2.54417c-1.95448,-2.7682 -4.15006,-5.37604 -6.48213,-7.82119c0,0 -3.43872,-3.62977 0.19105,-7.06849c1.69926,-1.60982 3.35665,-1.67051 4.63896,-1.2797c0.8591,-0.69608 1.95355,-1.11309 3.1454,-1.11309c0.98935,0 1.91158,0.28734 2.6878,0.78313l3.25591,2.00361l-0.00011,0.00017c4.08209,2.53249 11.34215,4.55924 16.40937,3.86905l0.19775,-0.26367c0.90984,-1.24089 2.37829,-2.04656 4.03492,-2.04656c0.53305,0 1.04661,0.08341 1.52835,0.2379c2.27894,-1.21515 4.48021,-2.70922 6.51896,-3.82874z" fill="#000000" stroke="none" stroke-width="0.5" stroke-linecap="butt"/></g></g></svg>