<svg version="1.1" xmlns="http://www.w3.org/2000/svg" xmlns:xlink="http://www.w3.org/1999/xlink" width="131.51783" height="267.22501" viewBox="0,0,131.51783,267.22501"><g transform="translate(-170.94792,-46.38751)"><g data-paper-data="{&quot;isPaintingLayer&quot;:true}" fill-rule="nonzero" stroke-linecap="butt" stroke-linejoin="miter" stroke-miterlimit="10" stroke-dasharray="" stroke-dashoffset="0" style="mix-blend-mode: normal"><path d="M179.28372,313.61252v-267.22501h123.18203v267.22501z" fill-opacity="0.01" fill="#000000" stroke="none" stroke-width="0"/><path d="M206.75002,307.5l15.14285,-131.8421l37.78325,-0.15789l13.57389,132z" fill="#ffffff" stroke="#000000" stroke-width="2"/><path d="M219.70026,204.11263l3.12142,-26.32765l35.83075,-0.14203l2.76735,26.1059c0,0 -7.51543,4.19603 -21.55904,4.50964c-12.48458,0.27879 -20.16049,-4.14586 -20.16049,-4.14586z" fill="#e6e6e6" stroke="#000000" stroke-width="0"/><path d="M174.47463,160.55198c-11.70309,-31.17773 19.20622,-38.73872 52.42048,-51.20625c33.21426,-12.46754 56.1559,-25.12043 67.85899,6.0573c11.70309,31.17773 -5.73515,66.55922 -38.94941,79.02676c-33.21425,12.46754 -69.62697,-2.70007 -81.33006,-33.8778z" fill="#ffffff" stroke="#000000" stroke-width="2"/><path d="M239.92347,193.83429c22.75803,0.39718 39.31767,-10.24678 38.34372,-9.55603c-10.63726,7.54427 -23.89398,12.02007 -38.26716,12.02007c-14.23449,0 -27.37396,-4.38984 -37.9585,-11.80253c-0.40164,-0.28128 15.12391,8.94132 37.88194,9.33849z" fill="#e6e6e6" stroke="#000000" stroke-width="0"/><path d="M181.95453,154.77124c0,-12.96801 10.51265,-23.48065 23.48066,-23.48065c12.96801,0 23.48065,10.51264 23.48065,23.48065c0,12.96801 -10.51264,23.48066 -23.48065,23.48066c-12.96801,0 -23.48066,-10.51265 -23.48066,-23.48066z" fill="#ffffff" stroke="#000000" stroke-width="2"/><path d="M193.14426,156.24515c0,-8.29964 6.72818,-15.02784 15.02783,-15.02784c8.29964,0 15.02784,6.72819 15.02784,15.02785c0,8.29964 -6.72819,15.02785 -15.02784,15.02785c-8.29964,0 -15.02783,-6.72819 -15.02783,-15.02785z" fill="none" stroke="#000000" stroke-width="5"/><path d="M186.58848,168.04133c-7.13116,-10.83124 -4.13165,-25.39264 6.69959,-32.5238c10.83124,-7.13116 25.39264,-4.13166 32.5238,6.69959c0,0 -14.34886,-7.7853 -27.83525,1.22635c-13.24101,8.84769 -11.05378,25.10572 -11.38814,24.59787z" fill="#ffffff" stroke="#000000" stroke-width="2"/><path d="M256.63186,156.81977c-12.96801,0 -23.48065,-10.51265 -23.48065,-23.48066c0,-12.96801 10.51264,-23.48065 23.48065,-23.48065c12.96801,0 23.48066,10.51264 23.48066,23.48065c0,12.96801 -10.51265,23.48066 -23.48066,23.48066z" data-paper-data="{&quot;index&quot;:null}" fill="#ffffff" stroke="#000000" stroke-width="2"/><path d="M272.42188,131.7514c0,8.29966 -6.72818,15.02785 -15.02783,15.02785c-8.29964,0 -15.02784,-6.72821 -15.02784,-15.02785c0,-8.29966 6.7282,-15.02785 15.02784,-15.02785c8.29964,0 15.02783,6.7282 15.02783,15.02784z" data-paper-data="{&quot;index&quot;:null}" fill="none" stroke="#000000" stroke-width="5"/><path d="M250.67074,119.85777c-14.64991,6.8719 -15.31843,22.97142 -15.31843,22.97142c-5.64602,-11.52293 -0.75905,-25.38171 10.91535,-30.95448c11.6744,-5.57276 25.71538,-0.74921 31.3614,10.77372c0.26473,0.54028 -12.57496,-9.53753 -26.95832,-2.79066z" data-paper-data="{&quot;index&quot;:null}" fill="#ffffff" stroke="#000000" stroke-width="2"/><path d="M246.49161,168.80982c1.65476,-1.31012 3.16896,-2.82066 4.9643,-3.93036c5.34594,-3.3043 19.9664,-6.14686 16.99253,6.05776c-0.75213,3.08669 -4.30177,4.67716 -6.39607,7.06615c-1.4995,1.71049 -3.17705,3.30164 -4.38343,5.23009c-4.59665,7.34794 -4.99908,15.11934 -7.43566,23.24212c-1.89802,6.32739 -1.98369,9.29603 -10.01845,9.1237c-1.36453,-0.02926 -8.8816,-6.09778 -9.16071,-6.33496c-4.27523,-3.63292 -4.87196,-4.98271 -8.20008,-8.50841l-0.90358,0.12585c-2.45209,0.3815 -4.86301,-1.11177 -5.56744,-3.55896c-0.25698,-0.89276 -0.25412,-1.79873 -0.03612,-2.63708c-2.64396,-2.11953 -5.47524,-4.01827 -8.39269,-5.72291c0,0 -4.30861,-2.53691 -1.77169,-6.84552c1.18764,-2.01705 2.76357,-2.53384 4.10395,-2.513c0.63303,-0.90656 1.56942,-1.61005 2.71476,-1.93974c0.95074,-0.27367 1.91647,-0.25265 2.79955,0.00907l3.6831,1.02478l-0.00006,0.00019c4.62334,1.30448 12.16075,1.24386 16.83932,-0.82109l0.1171,-0.30808c0.53108,-1.44415 1.71937,-2.62459 3.31135,-3.08284c0.51225,-0.14745 1.02884,-0.20936 1.53452,-0.19416c1.85388,-1.79814 3.55596,-3.84282 5.20548,-5.48262z" fill="#000000" stroke="none" stroke-width="0.5"/></g></g></svg>