<svg version="1.1" xmlns="http://www.w3.org/2000/svg" xmlns:xlink="http://www.w3.org/1999/xlink" width="175" height="296" viewBox="0,0,175,296"><g transform="translate(-152.5,-32)"><g data-paper-data="{&quot;isPaintingLayer&quot;:true}" fill-rule="nonzero" stroke-linecap="butt" stroke-linejoin="miter" stroke-miterlimit="10" stroke-dasharray="" stroke-dashoffset="0" style="mix-blend-mode: normal"><path d="M152.5,328v-296h175v296z" fill="none" stroke="#000000" stroke-width="0"/><path d="M165.09328,266.37174c0,-33.30185 28.7599,-60.29833 64.23702,-60.29833c35.47712,0 64.23702,26.99649 64.23702,60.29833c0,33.30185 -28.7599,60.29833 -64.23702,60.29833c-35.47712,0 -64.23702,-26.99649 -64.23702,-60.29833z" fill="#fff400" stroke="#000000" stroke-width="2"/><path d="M158.84701,256.05454c0,-12.968 10.51265,-23.48065 23.48065,-23.48065c12.968,0 23.48065,10.51265 23.48065,23.48065c0,12.968 -10.51265,23.48065 -23.48065,23.48065c-12.968,0 -23.48065,-10.51265 -23.48065,-23.48065z" fill="#ffffff" stroke="#000000" stroke-width="2"/><path d="M263.7356,281.23215c-12.968,0 -23.48065,-10.51265 -23.48065,-23.48065c0,-12.968 10.51265,-23.48065 23.48065,-23.48065c12.968,0 23.48065,10.51265 23.48065,23.48065c0,12.968 -10.51265,23.48065 -23.48065,23.48065z" data-paper-data="{&quot;index&quot;:null}" fill="#ffffff" stroke="#000000" stroke-width="2"/><path d="M181.04321,272.87231c-9.12807,0 -16.52783,-7.39977 -16.52783,-16.52784c0,-9.12808 7.39977,-16.52784 16.52783,-16.52784c9.12807,0 16.52783,7.39977 16.52783,16.52784c0,9.12808 -7.39977,16.52784 -16.52783,16.52784z" data-paper-data="{&quot;index&quot;:null}" fill="#000000" stroke="none" stroke-width="0"/><path d="M158.69708,253.88455c0,-12.96801 10.51265,-23.48065 23.48066,-23.48065c12.96801,0 23.48065,10.51264 23.48065,23.48065c0,0 -11.70863,-7.69294 -23.43307,-7.53879c-11.75617,0.15456 -23.52823,8.1554 -23.52823,7.53879z" fill="#fff400" stroke="#000000" stroke-width="2"/><path d="M248.49208,260.30399c0,-9.12808 7.39976,-16.52784 16.52783,-16.52784c9.12808,0 16.52784,7.39977 16.52784,16.52784c0,9.12808 -7.39977,16.52784 -16.52784,16.52784c-9.12808,0 -16.52783,-7.39977 -16.52783,-16.52784z" fill="#000000" stroke="none" stroke-width="0"/><path d="M239.68928,258.87516c0,-12.96801 10.51264,-23.48065 23.48065,-23.48065c12.96801,0 23.48066,10.51264 23.48066,23.48065c0,0.60606 -11.37275,-7.38438 -22.92496,-7.531c-11.92261,-0.15132 -24.03635,7.531 -24.03635,7.531z" data-paper-data="{&quot;index&quot;:null}" fill="#fff400" stroke="#000000" stroke-width="2"/></g></g></svg>