<svg version="1.1" xmlns="http://www.w3.org/2000/svg" xmlns:xlink="http://www.w3.org/1999/xlink" width="130.47404" height="267.22501" viewBox="0,0,130.47404,267.22501"><g transform="translate(-174.83997,-47.58751)"><g data-paper-data="{&quot;isPaintingLayer&quot;:true}" fill-rule="nonzero" stroke-linecap="butt" stroke-linejoin="miter" stroke-miterlimit="10" stroke-dasharray="" stroke-dashoffset="0" style="mix-blend-mode: normal"><path d="M179.28376,314.81252v-267.22501h123.18203v267.22501z" fill-opacity="0.01" fill="#000000" stroke="none" stroke-width="0"/><path d="M206.75007,307.5l15.14285,-131.8421l37.78325,-0.15789l13.57389,132z" fill="#ffffff" stroke="#000000" stroke-width="2"/><path d="M219.7003,204.11263l3.12142,-26.32765l35.83075,-0.14203l2.76735,26.1059c0,0 -7.51543,4.19603 -21.55904,4.50964c-12.48458,0.27879 -20.16049,-4.14586 -20.16049,-4.14586z" fill="#ffffff" stroke="#000000" stroke-width="0"/><path d="M175.83998,136.84616c0,-33.30185 28.7599,-60.29833 64.23702,-60.29833c35.47712,0 64.23702,26.99649 64.23702,60.29833c0,33.30185 -28.7599,60.29833 -64.23702,60.29833c-35.47712,0 -64.23702,-26.99649 -64.23702,-60.29833z" fill="#ff0000" stroke="#000000" stroke-width="2"/><path d="M176.56304,136.9c0,-0.72799 5.20666,55.91939 63.36046,56.93429c55.56352,0.9697 63.51358,-57.95314 63.51358,-56.93429c0,32.80479 -28.40173,59.39833 -63.43702,59.39833c-35.03529,0 -63.43702,-26.59354 -63.43702,-59.39833z" fill="#e60000" stroke="#000000" stroke-width="0"/><path d="M189.39019,137.27563c0,-12.968 10.51265,-23.48065 23.48065,-23.48065c12.968,0 23.48065,10.51265 23.48065,23.48065c0,12.968 -10.51265,23.48065 -23.48065,23.48065c-12.968,0 -23.48065,-10.51265 -23.48065,-23.48065z" fill="#ffffff" stroke="#000000" stroke-width="2"/><path d="M196.45558,137c0,-9.12808 7.39976,-16.52784 16.52783,-16.52784c9.12808,0 16.52784,7.39977 16.52784,16.52784c0,9.12808 -7.39977,16.52784 -16.52784,16.52784c-9.12808,0 -16.52783,-7.39977 -16.52783,-16.52784z" fill="#000000" stroke="none" stroke-width="0"/><path d="M267.12928,160.75627c-12.968,0 -23.48065,-10.51265 -23.48065,-23.48065c0,-12.968 10.51265,-23.48065 23.48065,-23.48065c12.968,0 23.48065,10.51265 23.48065,23.48065c0,12.968 -10.51265,23.48065 -23.48065,23.48065z" data-paper-data="{&quot;index&quot;:null}" fill="#ffffff" stroke="#000000" stroke-width="2"/><path d="M267.01671,153.52784c-9.12807,0 -16.52783,-7.39977 -16.52783,-16.52784c0,-9.12808 7.39977,-16.52784 16.52783,-16.52784c9.12807,0 16.52783,7.39977 16.52783,16.52784c0,9.12808 -7.39977,16.52784 -16.52783,16.52784z" data-paper-data="{&quot;index&quot;:null}" fill="#000000" stroke="none" stroke-width="0"/><path d="M189.39019,137.27563c0,-12.968 10.51265,-23.48065 23.48065,-23.48065c12.968,0 23.48065,10.51265 23.48065,23.48065c0,0 -46.96131,1.23155 -46.96131,0z" fill="#ff0000" stroke="#000000" stroke-width="2"/><path d="M243.64864,137.27563c0,-12.968 10.51265,-23.48065 23.48065,-23.48065c12.968,0 23.48065,10.51265 23.48065,23.48065c0,1.2138 -46.96131,0 -46.96131,0z" data-paper-data="{&quot;index&quot;:null}" fill="#ff0000" stroke="#000000" stroke-width="2"/><path d="M196.7876,103.27533c0,0 11.81231,-1.986 18.95687,-0.09021c7.14457,1.89579 14.92657,9.08106 14.92657,9.08106c0,0 -9.99081,-5.42456 -15.50833,-6.8886c-5.76602,-1.52998 -18.37512,-2.10225 -18.37512,-2.10225z" fill="#000000" stroke="none" stroke-width="0"/><path d="M265.02549,105.35664c-5.54555,1.35397 -15.64234,6.57864 -15.64234,6.57864c0,0 7.92344,-7.029 15.10432,-8.78225c7.18086,-1.75325 18.95133,0.4674 18.95133,0.4674c0,0 -12.61799,0.32125 -18.41331,1.7362z" data-paper-data="{&quot;index&quot;:null}" fill="#000000" stroke="none" stroke-width="0"/><path d="M241.33267,104.43438c0.84561,0.40086 1.43041,1.26228 1.43041,2.26029c0,1.22887 -0.88664,2.25066 -2.05511,2.46053l-3.27844,0.65571l-0.00593,-0.02964c-0.07886,0.02327 -0.1582,0.04531 -0.23803,0.06602c-0.22282,0.05781 -0.44757,0.1021 -0.67386,0.13523c2.03372,0.78412 4.0463,1.62363 6.1086,2.29007c7.62191,-5.70148 15.39564,-11.18436 24.1176,-14.98912c0.21504,-0.29522 0.53298,-0.57234 0.9927,-0.8022c2.23607,-1.11803 3.3541,1.11803 3.3541,1.11803c0.02604,0.05232 0.05214,0.10451 0.0783,0.15655c0.12508,-0.06187 0.25006,-0.12411 0.37493,-0.18675l0.45042,-0.22521c0.27917,-0.23001 0.57282,-0.36283 0.86066,-0.43033l2.19408,-1.09705c0,0 2.23606,-1.11804 3.35411,1.11802c0.57582,1.15163 0.26196,2.0067 -0.1779,2.56522c3.48017,2.48717 6.5734,5.23631 10.07836,7.85405l1.59731,1.56177c0,0 1.76777,1.76777 0,3.53553c-1.76777,1.76777 -3.53553,0 -3.53553,0l-0.86746,-0.89649c-0.93661,1.37299 -2.70501,0.86774 -2.70501,0.86774l-2.1047,-0.60231c0.08319,0.63572 -0.07825,1.40008 -0.91742,2.10598c-1.91313,1.60933 -3.52246,-0.3038 -3.52246,-0.3038l-1.18775,-1.41197c-0.61856,-0.7359 -1.21629,-1.46238 -1.79451,-2.18713c-1.22914,-0.29181 -2.45643,-0.59513 -3.68837,-0.90312c0,0 -2.42536,-0.60634 -1.81902,-3.0317c0.25685,-1.02741 0.84012,-1.51079 1.42716,-1.72669c-0.03186,-0.05011 -0.06365,-0.1003 -0.09537,-0.15057c-5.25322,2.28941 -10.57236,4.28502 -15.56915,7.28647c0,0 -0.87164,0.523 -1.83681,0.3462c-1.65227,1.16827 -3.28715,2.36508 -4.91315,3.57427c-0.01335,0.16475 -0.04198,0.3396 -0.08835,0.52509c-0.60631,2.42536 -3.03168,1.81905 -3.03168,1.81905c-3.94446,-1.00686 -7.59426,-2.74026 -11.46401,-4.03528c-6.42133,-2.1489 -13.3877,-2.153 -19.80237,-4.46544c-2.26367,-0.81604 -4.40408,-2.11709 -6.43809,-3.57199c-0.82645,0.15759 -1.54524,0.23576 -2.03452,0.17283c-0.06901,-0.00888 -0.13774,-0.01887 -0.20621,-0.02993v0.03845h-2.65906c-1.38071,0 -2.5,-1.11929 -2.5,-2.5c0,-1.00891 0.59764,-1.87823 1.45821,-2.27326l-3.13225,-2.38577c0,0 -1.98877,-1.51486 -0.47391,-3.50363c1.51486,-1.98877 3.50363,-0.47391 3.50363,-0.47391l3.81765,2.90805c0.67823,0.53595 1.37428,1.10328 2.08775,1.67695c2.24872,-0.2143 4.45351,-0.32106 6.67301,-0.36195c0.66539,-0.16794 1.33061,-0.33639 1.996,-0.50414l-2.27605,-1.70698c-0.62046,-0.45492 -1.02331,-1.18915 -1.02331,-2.01748c0,-1.38071 1.11929,-2.5 2.5,-2.5h2.65918v0.0914l0.24634,-0.07923c5.2678,1.03897 10.39713,2.56547 15.47051,4.29981c-1.62389,-1.01952 -3.2696,-2.00971 -4.96497,-2.95051c0,0 -2.18539,-1.21412 -0.97127,-3.39951c1.21412,-2.18539 3.39951,-0.97127 3.39951,-0.97127c4.57646,2.54533 8.7994,5.41304 13.13491,8.34679l0.16908,0.40045l0.11268,-0.08451l1.97923,2.63895c0.32312,0.42124 0.51516,0.9483 0.51516,1.52021c0,1.38071 -1.11929,2.5 -2.5,2.5c-0.1348,0 -0.26711,-0.01067 -0.39613,-0.03121l-1.45897,-0.20843zM276.10218,105.54987c0.86548,0.19665 1.73334,0.38628 2.60596,0.56675c-1.50052,-1.18797 -3.02903,-2.34563 -4.66791,-3.43618c0.65456,0.97701 1.34064,1.92585 2.06195,2.86944z" fill="#ff0000" stroke="none" stroke-width="0.5"/><path d="M229.76208,307.01154v-109.27429h21.32178v109.27429z" fill="#000000" stroke="#000000" stroke-width="2"/></g></g></svg>