<svg version="1.1" xmlns="http://www.w3.org/2000/svg" xmlns:xlink="http://www.w3.org/1999/xlink" width="34.17311" height="34.17311" viewBox="0,0,34.17311,34.17311"><g transform="translate(-222.91348,-162.91347)"><g data-paper-data="{&quot;isPaintingLayer&quot;:true}" stroke-miterlimit="10" stroke-dasharray="" stroke-dashoffset="0" style="mix-blend-mode: normal"><path d="M229.98315,162.91348h20.03378c3.9166,0 7.06966,3.15307 7.06966,7.06966v20.03379c0,3.91659 -3.15306,7.06966 -7.06966,7.06966h-20.03378c-3.91659,0 -7.06967,-3.15307 -7.06967,-7.06966v-20.03379c0,-3.91659 3.15308,-7.06966 7.06967,-7.06966z" fill-opacity="0.09677" fill="#191919" fill-rule="evenodd" stroke="none" stroke-width="4.43922" stroke-linecap="round" stroke-linejoin="round"/><g fill="#000000" fill-rule="nonzero" stroke="#000000" stroke-width="0.5" stroke-linecap="butt" stroke-linejoin="miter" font-family="&quot;Helvetica Neue&quot;, Helvetica, Arial, sans-serif" font-weight="400" font-size="16" text-anchor="start"/><g data-paper-data="{&quot;index&quot;:null}" fill="#000000" fill-rule="nonzero" stroke="#000000" stroke-width="0.5" stroke-linecap="butt" stroke-linejoin="miter" font-family="&quot;Helvetica Neue&quot;, Helvetica, Arial, sans-serif" font-weight="400" font-size="16" text-anchor="start"/><path d="M250.96626,177.3609c0,5.64639 -4.87631,10.22371 -10.89153,10.22371c-6.01522,0 -10.89152,-4.57731 -10.89152,-10.22371" data-paper-data="{&quot;index&quot;:null}" fill="#808080" fill-rule="nonzero" stroke="#000000" stroke-width="0.5" stroke-linecap="butt" stroke-linejoin="miter"/><path d="M239.45877,176.42769c0,1.94378 -2.28261,3.51952 -5.09836,3.51952c-2.81575,0 -5.09836,-1.57574 -5.09836,-3.51952c0,-1.94378 2.28261,-3.51952 5.09836,-3.51952c2.81575,0 5.09836,1.57574 5.09836,3.51952z" fill="#b5b5b5" fill-rule="nonzero" stroke="#000000" stroke-width="0.5" stroke-linecap="butt" stroke-linejoin="miter"/><path d="M246.49779,176.13165c0,1.92561 -1.98808,3.48662 -4.44051,3.48662c-2.45242,0 -4.44051,-1.56101 -4.44051,-3.48662c0,-1.92561 1.98808,-3.48662 4.44051,-3.48662c2.45242,0 4.44051,1.56101 4.44051,3.48662z" fill="#b5b5b5" fill-rule="nonzero" stroke="#000000" stroke-width="0.5" stroke-linecap="butt" stroke-linejoin="miter"/><path d="M251.16854,176.3619c0,1.72578 -1.82609,3.1248 -4.07869,3.1248c-2.2526,0 -4.07869,-1.39902 -4.07869,-3.1248c0,-1.72578 1.82609,-3.1248 4.07869,-3.1248c2.2526,0 4.07869,1.39902 4.07869,3.1248z" fill="#b5b5b5" fill-rule="nonzero" stroke="#000000" stroke-width="0.5" stroke-linecap="butt" stroke-linejoin="miter"/></g></g></svg>