<svg version="1.1" xmlns="http://www.w3.org/2000/svg" xmlns:xlink="http://www.w3.org/1999/xlink" width="123.47839" height="269.43113" viewBox="0,0,123.47839,269.43113"><g transform="translate(-178.9874,-44.18138)"><g data-paper-data="{&quot;isPaintingLayer&quot;:true}" fill-rule="nonzero" stroke-linejoin="miter" stroke-miterlimit="10" stroke-dasharray="" stroke-dashoffset="0" style="mix-blend-mode: normal"><path d="M273.77673,45.18138l-13.57389,132l-37.78325,-0.15789l-15.14285,-131.8421z" data-paper-data="{&quot;index&quot;:null}" fill="#4dff5b" stroke="#000000" stroke-width="2" stroke-linecap="butt"/><path d="M179.28376,313.61251v-267.22501h123.18203v267.22501z" fill-opacity="0.01" fill="#000000" stroke="none" stroke-width="0" stroke-linecap="butt"/><path d="M206.75007,307.5l15.14285,-131.8421l37.78325,-0.15789l13.57389,132z" fill="#4dff5b" stroke="#000000" stroke-width="2" stroke-linecap="butt"/><path d="M180.07075,102.60717c0,-12.968 10.51265,-23.48065 23.48065,-23.48065c12.968,0 23.48065,10.51265 23.48065,23.48065c0,12.968 -10.51265,23.48065 -23.48065,23.48065c-12.968,0 -23.48065,-10.51265 -23.48065,-23.48065z" fill="#ffffff" stroke="#000000" stroke-width="2" stroke-linecap="butt"/><path d="M193.47337,103.44996c0,-9.12808 7.39976,-16.52784 16.52783,-16.52784c9.12808,0 16.52784,7.39977 16.52784,16.52784c0,9.12808 -7.39977,16.52784 -16.52784,16.52784c-9.12808,0 -16.52783,-7.39977 -16.52783,-16.52784z" fill="#000000" stroke="none" stroke-width="0" stroke-linecap="butt"/><path d="M262.16021,122.36003c-12.968,0 -23.48065,-10.51265 -23.48065,-23.48065c0,-12.968 10.51265,-23.48065 23.48065,-23.48065c12.968,0 23.48065,10.51265 23.48065,23.48065c0,12.968 -10.51265,23.48065 -23.48065,23.48065z" data-paper-data="{&quot;index&quot;:null}" fill="#ffffff" stroke="#000000" stroke-width="2" stroke-linecap="butt"/><path d="M263.66168,111.77659c-9.12807,0 -16.52783,-7.39977 -16.52783,-16.52784c0,-9.12808 7.39977,-16.52784 16.52783,-16.52784c9.12807,0 16.52783,7.39977 16.52783,16.52784c0,9.12808 -7.39977,16.52784 -16.52783,16.52784z" data-paper-data="{&quot;index&quot;:null}" fill="#000000" stroke="none" stroke-width="0" stroke-linecap="butt"/><path d="M179.98741,103.35281c0,-12.968 10.51265,-23.48065 23.48065,-23.48065c12.968,0 23.48065,10.51265 23.48065,23.48065c0,0 -46.96131,1.23155 -46.96131,0z" fill="#00cc11" stroke="#000000" stroke-width="2" stroke-linecap="butt"/><path d="M239.54805,96.26998c0,-12.968 10.51265,-23.48065 23.48065,-23.48065c12.968,0 23.48065,10.51265 23.48065,23.48065c0,1.2138 -46.96131,0 -46.96131,0z" data-paper-data="{&quot;index&quot;:null}" fill="#00cc11" stroke="#000000" stroke-width="2" stroke-linecap="butt"/><path d="M255.89789,137.83263c0,0 -5.208,4.8892 -13.68694,8.94107c-8.47894,4.05188 -15.46274,4.52685 -15.46274,4.52685" fill="none" stroke="#000000" stroke-width="2" stroke-linecap="round"/><path d="M235.92788,138.02996c0.65881,-4.2789 3.05041,-8.41099 6.23875,-11.13483c2.27981,-1.94767 4.76221,-4.93918 7.73964,-4.58439c7.11284,0.84756 6.35436,6.33486 5.13517,10.33694c1.04143,0.30602 2.09611,1.04962 2.87765,2.61268c2.23607,4.47214 -2.23607,6.7082 -2.23607,6.7082l-1.13346,0.36139c-0.57883,1.53005 -1.88676,2.70186 -3.49984,3.09152c-0.00857,0.29393 -0.02042,0.58759 -0.03555,0.88085c-2.27977,1.9661 -3.86258,5.44896 -6.83932,5.89831c-0.01416,0.00214 -0.02854,0.0039 -0.04315,0.00529c-0.42419,0.49162 -0.85207,0.96523 -1.28226,1.41825c-1.62418,1.71038 -3.27466,3.75638 -5.54501,4.39579c-8.50282,2.39472 -13.04075,-4.09338 -10.55029,-11.41985c1.5756,-4.63514 2.29013,-4.51512 5.6921,-7.38948c0,0 1.55192,-1.24152 3.48163,-1.18067z" fill="#000101" stroke="none" stroke-width="0.5" stroke-linecap="butt"/></g></g></svg>