<svg version="1.1" xmlns="http://www.w3.org/2000/svg" xmlns:xlink="http://www.w3.org/1999/xlink" width="680.18009" height="455.74008" viewBox="0,0,680.18009,455.74008"><defs><radialGradient cx="233.84485" cy="184.58811" r="246.997" gradientUnits="userSpaceOnUse" id="color-1"><stop offset="0" stop-color="#ffffff" stop-opacity="0"/><stop offset="1" stop-color="#ffffff" stop-opacity="0.49992"/></radialGradient><linearGradient x1="266.66678" y1="265.65764" x2="266.66678" y2="337.72972" gradientUnits="userSpaceOnUse" id="color-2"><stop offset="0" stop-color="#ffffff" stop-opacity="0"/><stop offset="1" stop-color="#ffffff"/></linearGradient></defs><g transform="translate(86.28454,5.98597)"><g data-paper-data="{&quot;isPaintingLayer&quot;:true}" fill-rule="nonzero" stroke-linejoin="miter" stroke-miterlimit="10" stroke-dasharray="" stroke-dashoffset="0" style="mix-blend-mode: normal"><path d="M184.2838,318.61252v-267.22501h123.18203v267.22501z" fill-opacity="0.01" fill="#000000" stroke="none" stroke-width="0" stroke-linecap="butt"/><path d="M211.75012,312.5l15.14285,-131.8421l37.78325,-0.15789l13.57389,132z" fill="#0b00ff" stroke="#000000" stroke-width="2" stroke-linecap="butt"/><path d="M180.84002,141.84616c0,-33.30185 28.7599,-60.29833 64.23702,-60.29833c35.47712,0 64.23702,26.99649 64.23702,60.29833c0,33.30185 -28.7599,60.29833 -64.23702,60.29833c-35.47712,0 -64.23702,-26.99649 -64.23702,-60.29833z" fill="#0b00ff" stroke="#000000" stroke-width="2" stroke-linecap="butt"/><path d="M181.56309,141.9c0,-0.72799 5.20666,55.91939 63.36046,56.93429c55.56352,0.9697 63.51358,-57.95314 63.51358,-56.93429c0,32.80479 -28.40173,59.39833 -63.43702,59.39833c-35.03529,0 -63.43702,-26.59354 -63.43702,-59.39833z" fill="#0b00e6" stroke="#000000" stroke-width="0" stroke-linecap="butt"/><path d="M194.39023,142.27563c0,-12.968 10.51265,-23.48065 23.48065,-23.48065c12.968,0 23.48065,10.51265 23.48065,23.48065c0,12.968 -10.51265,23.48065 -23.48065,23.48065c-12.968,0 -23.48065,-10.51265 -23.48065,-23.48065z" fill="#ffffff" stroke="#000000" stroke-width="2" stroke-linecap="butt"/><path d="M201.45563,142c0,-9.12808 7.39976,-16.52784 16.52783,-16.52784c9.12808,0 16.52784,7.39977 16.52784,16.52784c0,9.12808 -7.39977,16.52784 -16.52784,16.52784c-9.12808,0 -16.52783,-7.39977 -16.52783,-16.52784z" fill="#000000" stroke="none" stroke-width="0" stroke-linecap="butt"/><path d="M232.50711,181.65643c0,0 7.87204,-0.49798 12.15094,-0.49798c4.08165,0 12.95865,0.49798 12.95865,0.49798" fill="none" stroke="#000000" stroke-width="2" stroke-linecap="round"/><path d="M272.12931,165.75627c-12.968,0 -23.48065,-10.51265 -23.48065,-23.48065c0,-12.968 10.51265,-23.48065 23.48065,-23.48065c12.968,0 23.48065,10.51265 23.48065,23.48065c0,12.968 -10.51265,23.48065 -23.48065,23.48065z" data-paper-data="{&quot;index&quot;:null}" fill="#ffffff" stroke="#000000" stroke-width="2" stroke-linecap="butt"/><path d="M272.01671,158.52784c-9.12807,0 -16.52783,-7.39977 -16.52783,-16.52784c0,-9.12808 7.39977,-16.52784 16.52783,-16.52784c9.12807,0 16.52783,7.39977 16.52783,16.52784c0,9.12808 -7.39977,16.52784 -16.52783,16.52784z" data-paper-data="{&quot;index&quot;:null}" fill="#000000" stroke="none" stroke-width="0" stroke-linecap="butt"/><path d="M194.39023,142.27563c0,-12.968 10.51265,-23.48065 23.48065,-23.48065c12.968,0 23.48065,10.51265 23.48065,23.48065c0,0 -46.96131,1.23155 -46.96131,0z" fill="#0900cc" stroke="#000000" stroke-width="2" stroke-linecap="butt"/><path d="M248.64869,142.27563c0,-12.968 10.51265,-23.48065 23.48065,-23.48065c12.968,0 23.48065,10.51265 23.48065,23.48065c0,1.2138 -46.96131,0 -46.96131,0z" data-paper-data="{&quot;index&quot;:null}" fill="#0900cc" stroke="#000000" stroke-width="2" stroke-linecap="butt"/><path d="M206.59799,111.01557c0,0 7.59834,-3.74113 12.82228,-3.90615c5.22395,-0.16501 11.95254,3.12355 11.95254,3.12355c0,0 -7.86762,-1.64791 -11.9019,-1.52047c-4.21598,0.13318 -12.87293,2.30307 -12.87293,2.30307z" fill="#000000" stroke="none" stroke-width="0" stroke-linecap="butt"/><path d="M270.62424,108.73004c-4.03603,0.04644 -11.82537,2.03168 -11.82537,2.03168c0,0 6.58071,-3.57532 11.80692,-3.63546c5.2262,-0.06014 12.97862,3.35026 12.97862,3.35026c0,0 -8.74237,-1.79502 -12.96017,-1.74649z" data-paper-data="{&quot;index&quot;:null}" fill="#000000" stroke="none" stroke-width="0" stroke-linecap="butt"/><path d="M306.02684,103.89702c0.03577,-0.34802 0.09678,-0.70118 0.17619,-1.05802c-0.12083,0.24876 -0.25768,0.4883 -0.4092,0.71728c0.07538,0.11507 0.15312,0.22861 0.23301,0.34074zM264.87608,86.67073c-2.19459,-5.85203 3.65744,-8.04662 3.65744,-8.04662c5.96317,-2.11692 11.29228,-7.11491 16.64976,-10.46393c0.66376,-0.41492 5.66034,-3.60837 6.31262,-3.6976c2.9792,-0.40756 6.68612,-1.7344 9.01938,0.16234c3.65697,2.97281 2.49106,12.15725 1.57642,16.43306c-0.28586,1.33638 -0.65613,2.65312 -0.99992,3.97609c0.75947,-0.37346 1.52047,-0.74397 2.27739,-1.12239c3.46888,-1.89209 11.38914,-7.36598 15.47308,-4.00791c5.66102,4.65483 3.64993,9.8848 2.44361,15.00782c2.66792,-0.89295 8.80251,-2.92948 9.88189,-3.2881l0.25567,0.03385l-0.02412,-0.09648l2.70686,-0.67673c0.52618,-0.14382 1.08005,-0.22061 1.65185,-0.22061c3.45178,0 6.25,2.79822 6.25,6.25c0,0.92347 -0.20028,1.80015 -0.55977,2.589l-2.07771,4.84798l-0.2236,-0.09583c-0.10245,0.38228 -0.217,0.7617 -0.34564,1.13777c-0.61703,1.80381 -2.74227,2.65759 -3.97743,4.10979c-4.69896,5.52467 -9.8497,10.78753 -14.38516,16.47552c-1.54313,1.93526 -3.96805,7.07507 -6.03643,7.60008c-3.19624,0.81129 -6.73055,-0.16207 -9.79667,-1.37577c-1.57203,-0.62228 -6.13026,-6.02499 -7.5938,-7.63919c-7.99471,-8.8177 -15.01971,-18.92982 -20.91062,-29.29202c-1.01644,-1.46478 -2.03288,-2.92956 -3.04933,-4.39434v-0.00001v0l-0.33304,-0.48106c-1.05198,0.32119 -5.89211,1.47678 -7.84274,-3.72473z" fill="#fffa00" stroke="#000000" stroke-width="2.5" stroke-linecap="butt"/><path d="M493.85701,-5.98597v295.84119h-504v-295.84118z" data-paper-data="{&quot;index&quot;:null}" fill="#00eaff" stroke="none" stroke-width="NaN" stroke-linecap="butt"/><path d="M261.89557,297.34271c0,33.58488 -66.21279,29.81081 -147.89039,29.81081c-81.6776,0 -147.89039,3.77407 -147.89039,-29.81081c0,-33.58488 66.21279,-91.81081 147.89039,-91.81081c81.67761,0 147.89039,58.22593 147.89039,91.81081z" fill="#00800b" stroke="none" stroke-width="0" stroke-linecap="butt"/><path d="M515.89555,297.34271c0,33.58488 -62.85492,37.81081 -140.39039,37.81081c-77.53547,0 -140.39039,-4.22593 -140.39039,-37.81081c0,-33.58488 62.85492,-83.81081 140.39039,-83.81081c77.53547,0 140.39039,50.22593 140.39039,83.81081z" fill="#00b30f" stroke="none" stroke-width="0" stroke-linecap="butt"/><path d="M194.49625,300.34271c0,33.58488 -62.85492,60.81081 -140.39039,60.81081c-77.53547,0 -140.39039,-27.22593 -140.39039,-60.81081c0,-33.58488 62.85492,-60.81081 140.39039,-60.81081c77.53547,0 140.39039,27.22593 140.39039,60.81081z" fill="#00e613" stroke="none" stroke-width="0" stroke-linecap="butt"/><path d="M593.89556,300.34271c0,33.58488 -62.85492,60.81081 -140.39039,60.81081c-77.53547,0 -140.39039,-27.22593 -140.39039,-60.81081c0,-33.58488 62.85492,-60.81081 140.39039,-60.81081c77.53547,0 140.39039,27.22593 140.39039,60.81081z" fill="#00e613" stroke="none" stroke-width="0" stroke-linecap="butt"/><path d="M380.68244,300.34271c0,33.58489 -62.85492,60.81082 -140.39039,60.81082c-77.53547,0 -140.39039,-27.22593 -140.39039,-60.81082c0,-33.58488 62.85492,-60.81081 140.39039,-60.81081c77.53547,0 140.39039,27.22593 140.39039,60.81081z" fill="#00ff15" stroke="none" stroke-width="0" stroke-linecap="butt"/><g fill="#ffffff" stroke="none" stroke-width="0" stroke-linecap="butt"><path d="M117.06266,51.45576c0,8.65246 -15.81927,15.66667 -35.33333,15.66667c-19.51406,0 -35.33334,-7.01421 -35.33334,-15.66667c0,-8.65246 15.81928,-15.66667 35.33334,-15.66667c19.51406,0 35.33333,7.01421 35.33333,15.66667z"/><path d="M73.72925,58.62242c0,3.95804 -8.28273,7.16666 -18.5,7.16666c-10.21727,0 -18.5,-3.20862 -18.5,-7.16666c0,-3.95804 8.28273,-7.16667 18.5,-7.16667c10.21727,0 18.5,3.20863 18.5,7.16667z"/><path d="M112.896,55.45576c9.1127,0 16.5,2.68629 16.5,6c0,3.31371 -7.3873,6 -16.5,6c-9.1127,0 -16.5,-2.68629 -16.5,-6c0,-3.31371 7.3873,-6 16.5,-6z"/><path d="M81.72925,69.78908c-27.24605,0 -49.33334,-1.64161 -49.33334,-3.66666c0,-2.02505 22.08729,-3.66667 49.33334,-3.66667c27.24605,0 49.33333,1.64162 49.33333,3.66667c0,2.02504 -22.08728,3.66666 -49.33333,3.66666z"/></g><g fill="#ffffff" stroke="none" stroke-width="0" stroke-linecap="butt"><path d="M436.85435,46.70315c0,7.13224 -16.83829,12.91406 -37.60937,12.91406c-20.77108,0 -37.60938,-5.78182 -37.60938,-12.91406c0,-7.13224 16.83829,-12.91406 37.60938,-12.91406c20.77108,0 37.60938,5.78182 37.60938,12.91406z"/><path d="M369.56531,59.16409c-12.38758,0 -22.42969,-2.33302 -22.42969,-5.21094c0,-2.87792 10.04211,-5.21094 22.42969,-5.21094c12.38758,0 22.42969,2.33302 22.42969,5.21094c0,2.87792 -10.04211,5.21094 -22.42969,5.21094z"/><path d="M419.18252,52.36721c0,-3.75381 5.57895,-6.79687 12.46094,-6.79687c6.88199,0 12.46094,3.04307 12.46094,6.79688c0,3.75381 -5.57895,6.79688 -12.46094,6.79688c-6.88199,0 -12.46094,-3.04307 -12.46094,-6.79687z"/><path d="M445.46377,58.03127c0,2.62766 -24.14165,4.75781 -53.92188,4.75781c-29.78024,0 -53.92188,-2.13014 -53.92188,-4.75781c0,-2.62766 24.14165,-4.75781 53.92188,-4.75781c29.78023,0 53.92187,2.13014 53.92187,4.75781z"/></g><path d="M176.82138,320.03397v-267.22501h123.18203v267.22501z" fill-opacity="0.01" fill="#000000" stroke="none" stroke-width="0" stroke-linecap="butt"/><path d="M204.2877,313.92145l15.14285,-131.8421l37.78325,-0.15789l13.57389,132z" fill="#0b00ff" stroke="#000000" stroke-width="2" stroke-linecap="butt"/><path d="M129.10982,199.16277l3.12142,-26.32765l35.83075,-0.14203l2.76735,26.1059c0,0 -7.51543,4.19603 -21.55904,4.50964c-12.48458,0.27879 -20.16049,-4.14586 -20.16049,-4.14586z" fill="#e46300" stroke="#000000" stroke-width="0" stroke-linecap="butt"/><path d="M116.15959,302.5501l15.14285,-131.8421l37.78325,-0.15789l13.57389,132z" fill="#ff6f00" stroke="#000000" stroke-width="2" stroke-linecap="butt"/><path d="M104.39374,155.77144c0,-33.30185 20.37837,-60.29833 45.51636,-60.29833c25.13799,0 45.51636,26.99648 45.51636,60.29833c0,13.26154 -2.28686,25.52317 -7.76377,35.47823c-8.27649,15.0437 -22.6251,23.57011 -37.75259,23.57011c-15.46207,0 -30.06819,-8.96367 -38.29421,-24.57601c-5.14771,-9.76995 -7.22215,-21.65405 -7.22215,-34.47233z" fill="#ff6f00" stroke="#000000" stroke-width="2" stroke-linecap="butt"/><path d="M107.24424,121.7846c0,-33.30185 20.37838,-60.29833 45.51637,-60.29833c25.13799,0 45.51636,26.99648 45.51636,60.29833c0,13.26154 -2.28685,25.52317 -7.76377,35.47823c-8.27649,15.0437 -22.6251,23.57011 -37.75259,23.57011c-15.46207,0 -30.06819,-8.96367 -38.29421,-24.57601c-5.14771,-9.76995 -7.22215,-21.65405 -7.22215,-34.47233z" fill="#ff6f00" stroke="#000000" stroke-width="2" stroke-linecap="butt"/><path d="M102.94814,98.38303c0,-8.72531 4.75914,-16.33907 11.82319,-20.38706c3.4349,-1.96833 7.41477,-3.09359 11.65745,-3.09359c12.968,0 23.48065,10.51265 23.48065,23.48065c0,12.968 -10.51265,23.48065 -23.48065,23.48065c-12.968,0 -23.48065,-10.51265 -23.48065,-23.48065z" fill="#ffffff" stroke="#000000" stroke-width="2" stroke-linecap="butt"/><path d="M109.59867,99.35192c0,-9.12808 7.39976,-16.52784 16.52783,-16.52784c9.12808,0 16.52784,7.39977 16.52784,16.52784c0,9.12808 -7.39977,16.52784 -16.52784,16.52784c-9.12808,0 -16.52783,-7.39977 -16.52783,-16.52784z" fill="#000000" stroke="none" stroke-width="0" stroke-linecap="butt"/><path d="M178.19821,123.93788c-12.968,0 -23.48065,-10.51265 -23.48065,-23.48065c0,-12.968 10.51265,-23.48065 23.48065,-23.48065c12.968,0 23.48065,10.51265 23.48065,23.48065c0,12.968 -10.51265,23.48065 -23.48065,23.48065z" data-paper-data="{&quot;index&quot;:null}" fill="#ffffff" stroke="#000000" stroke-width="2" stroke-linecap="butt"/><path d="M185.01742,122.09842c-3.48782,0 -5.39738,2.67638 -8.06415,0.83205c-4.3125,-2.98252 -8.46368,-11.71964 -8.46368,-17.35989c0,-9.12808 7.39977,-16.52784 16.52783,-16.52784c9.12807,0 16.52783,7.39977 16.52783,16.52784c0,9.12808 -7.39977,16.52784 -16.52783,16.52784z" data-paper-data="{&quot;index&quot;:null}" fill="#000000" stroke="none" stroke-width="0" stroke-linecap="butt"/><path d="M114.96717,79.68911c10.35308,-7.80915 25.07648,-5.74688 32.88563,4.60621c7.80915,10.35308 5.74688,25.07648 -4.6062,32.88563c0,0 -1.82413,-2.58392 -7.39119,-9.70254c-8.32859,-10.6498 -21.47755,-27.3448 -20.88824,-27.7893z" fill="#ff6f00" stroke="#000000" stroke-width="2" stroke-linecap="butt"/><path d="M157.43737,108.82168c-5.31891,-12.31652 0.35379,-26.61289 12.67031,-31.93179c12.31653,-5.31891 26.61289,0.35379 31.93179,12.67032c0.49785,1.15282 -44.60212,19.26148 -44.60212,19.26148z" data-paper-data="{&quot;index&quot;:null}" fill="#ff6f00" stroke="#000000" stroke-width="2" stroke-linecap="butt"/><path d="M138.50541,152.39146c0,-1.38071 1.11929,-2.5 2.5,-2.5c1.38071,0 2.5,1.11929 2.5,2.5c0,1.38071 -1.11929,2.5 -2.5,2.5c-1.38071,0 -2.5,-1.11929 -2.5,-2.5z" fill="#e46300" stroke="none" stroke-width="0.5" stroke-linecap="butt"/><path d="M173.37762,143.26761c0,-33.30185 28.7599,-60.29833 64.23702,-60.29833c35.47712,0 64.23702,26.99649 64.23702,60.29833c0,33.30185 -28.7599,60.29833 -64.23702,60.29833c-35.47712,0 -64.23702,-26.99649 -64.23702,-60.29833z" fill="#0b00ff" stroke="#000000" stroke-width="2" stroke-linecap="butt"/><path d="M174.10068,143.32145c0,-0.72799 5.20666,55.91939 63.36046,56.93429c55.56352,0.9697 63.51358,-57.95314 63.51358,-56.93429c0,32.80479 -28.40173,59.39833 -63.43702,59.39833c-35.03529,0 -63.43702,-26.59354 -63.43702,-59.39833z" fill="#0b00e6" stroke="#000000" stroke-width="0" stroke-linecap="butt"/><path d="M186.92783,143.69708c0,-12.968 10.51265,-23.48065 23.48065,-23.48065c12.968,0 23.48065,10.51265 23.48065,23.48065c0,12.968 -10.51265,23.48065 -23.48065,23.48065c-12.968,0 -23.48065,-10.51265 -23.48065,-23.48065z" fill="#ffffff" stroke="#000000" stroke-width="2" stroke-linecap="butt"/><path d="M193.99321,143.42145c0,-9.12808 7.39976,-16.52784 16.52783,-16.52784c9.12808,0 16.52784,7.39977 16.52784,16.52784c0,9.12808 -7.39977,16.52784 -16.52784,16.52784c-9.12808,0 -16.52783,-7.39977 -16.52783,-16.52784z" fill="#000000" stroke="none" stroke-width="0" stroke-linecap="butt"/><path d="M225.0447,183.07788c0,0 7.87204,-0.49798 12.15094,-0.49798c4.08165,0 12.95865,0.49798 12.95865,0.49798" fill="none" stroke="#000000" stroke-width="2" stroke-linecap="round"/><path d="M264.66691,167.17772c-12.968,0 -23.48065,-10.51265 -23.48065,-23.48065c0,-12.968 10.51265,-23.48065 23.48065,-23.48065c12.968,0 23.48065,10.51265 23.48065,23.48065c0,12.968 -10.51265,23.48065 -23.48065,23.48065z" data-paper-data="{&quot;index&quot;:null}" fill="#ffffff" stroke="#000000" stroke-width="2" stroke-linecap="butt"/><path d="M264.55431,159.94929c-9.12807,0 -16.52783,-7.39977 -16.52783,-16.52784c0,-9.12808 7.39977,-16.52784 16.52783,-16.52784c9.12807,0 16.52783,7.39977 16.52783,16.52784c0,9.12808 -7.39977,16.52784 -16.52783,16.52784z" data-paper-data="{&quot;index&quot;:null}" fill="#000000" stroke="none" stroke-width="0" stroke-linecap="butt"/><path d="M186.92783,143.69708c0,-12.968 10.51265,-23.48065 23.48065,-23.48065c12.968,0 23.48065,10.51265 23.48065,23.48065c0,0 -46.96131,1.23155 -46.96131,0z" fill="#0900cc" stroke="#000000" stroke-width="2" stroke-linecap="butt"/><path d="M241.18628,143.69708c0,-12.968 10.51265,-23.48065 23.48065,-23.48065c12.968,0 23.48065,10.51265 23.48065,23.48065c0,1.2138 -46.96131,0 -46.96131,0z" data-paper-data="{&quot;index&quot;:null}" fill="#0900cc" stroke="#000000" stroke-width="2" stroke-linecap="butt"/><path d="M396.39917,64.75095l-13.57389,132l-37.78325,-0.15789l-15.14285,-131.8421z" data-paper-data="{&quot;index&quot;:null}" fill="#4dff5b" stroke="#000000" stroke-width="2" stroke-linecap="butt"/><path d="M329.72785,326.35885l15.14285,-131.8421l37.78325,-0.15789l13.57389,132z" fill="#4dff5b" stroke="#000000" stroke-width="2" stroke-linecap="butt"/><path d="M312.99848,123.24278c0,-12.968 10.51265,-23.48065 23.48065,-23.48065c12.968,0 23.48065,10.51265 23.48065,23.48065c0,12.968 -10.51265,23.48065 -23.48065,23.48065c-12.968,0 -23.48065,-10.51265 -23.48065,-23.48065z" fill="#ffffff" stroke="#000000" stroke-width="2" stroke-linecap="butt"/><path d="M311.86278,124.83107c0,-9.12808 7.39976,-16.52784 16.52783,-16.52784c9.12808,0 16.52784,7.39977 16.52784,16.52784c0,9.12808 -7.39977,16.52784 -16.52784,16.52784c-9.12808,0 -16.52783,-7.39977 -16.52783,-16.52784z" fill="#000000" stroke="none" stroke-width="0" stroke-linecap="butt"/><path d="M395.08795,142.99564c-12.968,0 -23.48065,-10.51265 -23.48065,-23.48065c0,-12.968 10.51265,-23.48065 23.48065,-23.48065c12.968,0 23.48065,10.51265 23.48065,23.48065c0,12.968 -10.51265,23.48065 -23.48065,23.48065z" data-paper-data="{&quot;index&quot;:null}" fill="#ffffff" stroke="#000000" stroke-width="2" stroke-linecap="butt"/><path d="M395.0982,133.53051c-9.12807,0 -16.52783,-7.39977 -16.52783,-16.52784c0,-9.12808 7.39977,-16.52784 16.52783,-16.52784c9.12807,0 16.52783,7.39977 16.52783,16.52784c0,9.12808 -7.39977,16.52784 -16.52783,16.52784z" data-paper-data="{&quot;index&quot;:null}" fill="#000000" stroke="none" stroke-width="0" stroke-linecap="butt"/><path d="M312.91514,123.98842c0,-12.968 10.51265,-23.48065 23.48065,-23.48065c12.968,0 23.48065,10.51265 23.48065,23.48065c0,0 -46.96131,1.23155 -46.96131,0z" fill="#00cc11" stroke="#000000" stroke-width="2" stroke-linecap="butt"/><path d="M372.47579,116.90559c0,-12.968 10.51265,-23.48065 23.48065,-23.48065c12.968,0 23.48065,10.51265 23.48065,23.48065c0,1.2138 -46.96131,0 -46.96131,0z" data-paper-data="{&quot;index&quot;:null}" fill="#00cc11" stroke="#000000" stroke-width="2" stroke-linecap="butt"/><path d="M388.82562,158.46824c0,0 -5.208,4.8892 -13.68694,8.94107c-8.47894,4.05188 -15.46274,4.52685 -15.46274,4.52685" fill="none" stroke="#000000" stroke-width="2" stroke-linecap="round"/><path d="M356.62,183.41464v-26.09451h34.29565v26.09451z" fill="#000000" stroke="#000000" stroke-width="3" stroke-linecap="butt"/><path d="M381.5962,191.80222c0,12.04398 -2.83727,21.80756 -6.33722,21.80756c-3.49995,0 -6.33722,-9.76358 -6.33722,-21.80756c0,-12.04398 2.83727,-21.80756 6.33722,-21.80756c3.49995,0 6.33722,9.76358 6.33722,21.80756z" fill="#ff0000" stroke="#000000" stroke-width="3" stroke-linecap="butt"/><path d="M387.18787,177.45026c0,4.1176 -6.34215,7.45557 -14.16559,7.45557c-7.82344,0 -14.16559,-3.33797 -14.16559,-7.45557c0,-4.1176 6.34215,-7.45557 14.16559,-7.45557c7.82344,0 14.16559,3.33797 14.16559,7.45557z" fill="#ff0000" stroke="#000000" stroke-width="3" stroke-linecap="butt"/><path d="M199.13559,112.43702c0,0 7.59834,-3.74113 12.82228,-3.90615c5.22395,-0.16501 11.95254,3.12355 11.95254,3.12355c0,0 -7.86762,-1.64791 -11.9019,-1.52047c-4.21598,0.13318 -12.87293,2.30307 -12.87293,2.30307z" fill="#000000" stroke="none" stroke-width="0" stroke-linecap="butt"/><path d="M263.16184,110.15149c-4.03603,0.04644 -11.82537,2.03168 -11.82537,2.03168c0,0 6.58071,-3.57532 11.80692,-3.63546c5.2262,-0.06014 12.97862,3.35026 12.97862,3.35026c0,0 -8.74237,-1.79502 -12.96017,-1.74649z" data-paper-data="{&quot;index&quot;:null}" fill="#000000" stroke="none" stroke-width="0" stroke-linecap="butt"/><path d="M298.56444,105.31847c0.03577,-0.34802 0.09678,-0.70118 0.17619,-1.05802c-0.12083,0.24876 -0.25768,0.4883 -0.4092,0.71728c0.07538,0.11507 0.15312,0.22861 0.23301,0.34074zM257.41367,88.09218c-2.19459,-5.85203 3.65744,-8.04662 3.65744,-8.04662c5.96317,-2.11692 11.29228,-7.11491 16.64976,-10.46393c0.66376,-0.41492 5.66034,-3.60837 6.31262,-3.6976c2.9792,-0.40756 6.68612,-1.7344 9.01938,0.16234c3.65697,2.97281 2.49106,12.15725 1.57642,16.43306c-0.28586,1.33638 -0.65613,2.65312 -0.99992,3.97609c0.75947,-0.37346 1.52047,-0.74397 2.27739,-1.12239c3.46888,-1.89209 11.38914,-7.36598 15.47308,-4.00791c5.66102,4.65483 3.64993,9.8848 2.44361,15.00782c2.66792,-0.89295 8.80251,-2.92948 9.88189,-3.2881l0.25567,0.03385l-0.02412,-0.09648l2.70686,-0.67673c0.52618,-0.14382 1.08005,-0.22061 1.65185,-0.22061c3.45178,0 6.25,2.79822 6.25,6.25c0,0.92347 -0.20028,1.80015 -0.55977,2.589l-2.07771,4.84798l-0.2236,-0.09583c-0.10245,0.38228 -0.217,0.7617 -0.34564,1.13777c-0.61703,1.80381 -2.74227,2.65759 -3.97743,4.10979c-4.69896,5.52467 -9.8497,10.78753 -14.38516,16.47552c-1.54313,1.93526 -3.96805,7.07507 -6.03643,7.60008c-3.19624,0.81129 -6.73055,-0.16207 -9.79667,-1.37577c-1.57203,-0.62228 -6.13026,-6.02499 -7.5938,-7.63919c-7.99471,-8.8177 -15.01971,-18.92982 -20.91062,-29.29202c-1.01644,-1.46478 -2.03288,-2.92956 -3.04933,-4.39434v-0.00001v0l-0.33304,-0.48106c-1.05198,0.32119 -5.89211,1.47678 -7.84274,-3.72473z" fill="#fffa00" stroke="#000000" stroke-width="2.5" stroke-linecap="butt"/><g fill="#ffffff" stroke="none" stroke-width="0" stroke-linecap="butt"><path d="M300.81953,31.17462c0,6.90356 -16.11775,12.5 -36,12.5c-19.88225,0 -36,-5.59644 -36,-12.5c0,-6.90356 16.11775,-12.5 36,-12.5c19.88225,0 36,5.59644 36,12.5z"/><path d="M253.31959,36.42462c0,3.45178 -6.71573,6.25 -15,6.25c-8.28427,0 -15,-2.79822 -15,-6.25c0,-3.45178 6.71573,-6.25 15,-6.25c8.28427,0 15,2.79822 15,6.25z"/><path d="M291.06953,30.17462c7.31777,0 13.25,2.46243 13.25,5.5c0,3.03757 -5.93223,5.5 -13.25,5.5c-7.31778,0 -13.25,-2.46243 -13.25,-5.5c0,-3.03757 5.93223,-5.5 13.25,-5.5z"/><path d="M256.81953,45.17462c-24.57667,0 -44.5,-1.90279 -44.5,-4.25c0,-2.34721 19.92333,-4.25 44.5,-4.25c24.57667,0 44.5,1.90279 44.5,4.25c0,2.34721 -19.92333,4.25 -44.5,4.25z"/></g><path d="M-60.75903,449.75411v-148.64865c0,0 202.07988,-4.5045 303.3033,-4.5045c100.47269,0 301.8018,4.5045 301.8018,4.5045v148.64865z" fill="#00ff15" stroke="none" stroke-width="0" stroke-linecap="butt"/><path d="M-13.15217,373.02655v-376.87688h493.99399v376.87688z" fill="url(#color-1)" stroke="none" stroke-width="0" stroke-linecap="butt"/><path d="M-1.35126,337.72972v-72.07207h536.03604v72.07207z" fill="url(#color-2)" stroke="none" stroke-width="NaN" stroke-linecap="butt"/><path d="M-31.50004,404.91034v-79h544v79z" fill="#ffffff" stroke="none" stroke-width="0" stroke-linecap="butt"/><g data-paper-data="{&quot;index&quot;:null}" stroke="#000000"><g fill="#ffe900" stroke-width="1" stroke-linecap="butt"><path d="M194.75699,277.99214l5.80636,-0.27217c4.20356,-0.18144 7.42428,-1.99593 9.66216,-5.44346c2.14714,-3.29631 3.22072,-7.78718 3.22072,-13.47255c0,-1.6028 -0.54434,-2.94855 -1.63306,-4.03723c-1.05843,-1.08868 -2.54027,-1.64817 -4.44547,-1.67839c-1.90523,-0.03026 -3.97678,-0.06048 -6.21463,-0.09073zM192.86689,254.01828c-0.96773,0 -1.90519,0 -2.81244,0c-0.90725,0 -1.54232,-0.25706 -1.90523,-0.77115c-0.36291,-0.54434 -0.45364,-1.16431 -0.2722,-1.85986l0.45364,-1.95056c0.12099,-0.54434 0.40827,-0.98284 0.86188,-1.31549c0.45361,-0.36291 0.87699,-0.54434 1.27012,-0.54434h15.78605c4.26403,0 7.68133,1.07357 10.25186,3.22072c2.5705,2.11689 3.85576,5.26202 3.85576,9.43535c0,4.17333 -0.8014,8.08958 -2.40417,11.74879c-1.57255,3.65922 -3.31145,6.27511 -5.21665,7.84766c-1.87497,1.54232 -3.31145,2.57053 -4.3094,3.08462c-0.99798,0.48386 -2.08667,0.92236 -3.26608,1.31549l4.26403,27.4441c0.33265,2.11689 -0.34779,3.17535 -2.0413,3.17535h-3.17535c-0.81651,0 -1.40622,-0.24191 -1.76913,-0.72578c-0.33265,-0.48386 -0.57457,-1.33063 -0.72578,-2.54027l-3.49289,-26.21935l-5.80636,0.09073l-6.98578,27.3534c-0.36291,1.36086 -1.28526,2.0413 -2.76711,2.0413h-2.67634c-0.75607,0 -1.30041,-0.27217 -1.63306,-0.81651c-0.33265,-0.5746 -0.40821,-1.25501 -0.22668,-2.0413z"/></g><path d="M103.04917,329.50564h271.5" fill="none" stroke-width="4" stroke-linecap="round"/><path d="M310.04918,336.50565h-140" fill="none" stroke-width="2" stroke-linecap="round"/></g><path d="M251.45863,261.49856c0.02454,5.65038 0.08855,11.30571 0.09921,16.95897c0.74591,-0.35485 1.55095,-0.65531 2.2083,-1.09997c3.50687,-2.37218 6.9868,-4.75038 10.35012,-7.33c1.74759,-1.34037 2.28944,-1.47233 3.34498,-3.00771c0.3469,-0.5046 0.5646,-1.87929 0.9865,-1.71246c-1.00482,-0.67987 -1.62235,-1.88248 -2.75853,-2.35259c-2.72632,-1.12804 -5.66763,-1.72243 -8.58985,-2.08382c-1.88261,-0.23282 -3.4742,-0.95256 -4.9511,0.26989zM251.43237,292.09407c-0.05717,2.61996 -0.11302,5.24221 -0.32143,7.85383c-0.24309,3.04634 -2.2296,8.3458 2.4653,8.42195c0.70507,0.01144 1.41508,0.13231 2.115,0.04518c0.52406,-0.06524 0.99974,-0.34651 1.50678,-0.49605c1.61097,-0.4751 2.73348,-1.10628 4.17996,-1.9536c1.91387,-4.42037 3.60649,-7.05709 -0.78688,-10.31938c-0.78312,-0.5815 -1.6452,-1.048 -2.50354,-1.50705c-0.69961,-0.37416 -1.41529,-0.72776 -2.16303,-0.98872c-1.32436,-0.46219 -2.9855,-0.6108 -4.49217,-1.05617zM245.45286,251.55793c0.3641,-0.25559 0.6157,-0.38338 0.6157,-0.38338l0.37262,-0.1792c1.22213,-0.63427 2.33058,-1.58311 3.66639,-1.90282c2.39118,-0.5723 5.88234,-0.1448 8.38715,0.17963c5.4572,0.70684 10.95263,1.62789 15.37505,5.26738c2.38626,1.9638 3.3565,3.64621 5.22662,6.17808c0.26187,1.81108 0.8434,3.60366 0.78561,5.43323c-0.23585,7.46675 -7.61928,12.55993 -12.92702,16.31462c-0.84892,0.60053 -1.69455,1.20761 -2.54524,1.80701c2.75621,1.54321 5.31348,3.525 7.27586,5.90889c6.16645,7.49097 2.58163,16.4305 -1.77314,23.61854c-7.3269,5.65 -16.97562,9.31291 -25.29873,3.14045c-1.18991,-0.88244 -2.44864,-1.77437 -3.27871,-3.0108c-0.93509,-1.39286 -1.45948,-3.05169 -1.88525,-4.68119c-1.46079,-5.59072 0.36991,-12.39871 0.4991,-18.15056c0.25206,-11.22224 -0.0028,-22.47527 -0.0028,-33.70091c0,0 0,-5.67564 5.50679,-5.83896z" fill="#005dff" stroke="#000000" stroke-width="1" stroke-linecap="butt"/></g></g></svg>