<svg version="1.1" xmlns="http://www.w3.org/2000/svg" xmlns:xlink="http://www.w3.org/1999/xlink" width="123.18203" height="267.22501" viewBox="0,0,123.18203,267.22501"><g transform="translate(-179.28377,-46.38752)"><g data-paper-data="{&quot;isPaintingLayer&quot;:true}" fill-rule="nonzero" stroke-linecap="butt" stroke-linejoin="miter" stroke-miterlimit="10" stroke-dasharray="" stroke-dashoffset="0" style="mix-blend-mode: normal"><path d="M219.70031,204.11265l3.12142,-26.32765l35.83075,-0.14203l2.76735,26.1059c0,0 -7.51543,4.19603 -21.55904,4.50964c-12.48458,0.27879 -20.16049,-4.14586 -20.16049,-4.14586z" fill="#e46300" stroke="#000000" stroke-width="0"/><path d="M206.75009,307.50001l15.14285,-131.8421l37.78325,-0.15789l13.57389,132z" fill="#ff6f00" stroke="#000000" stroke-width="2"/><path d="M204.90078,144.67588c0,-33.30185 4.69911,-61.12804 40.17623,-61.12804c35.47712,0 45.98403,22.84809 45.98403,56.14993c0,33.30185 -10.50691,64.44673 -45.98403,64.44673c-35.47712,0 -40.17623,-26.16678 -40.17623,-59.46862z" fill="#ff6f00" stroke="#000000" stroke-width="2"/><path d="M179.28377,313.61253v-267.22501h123.18203v267.22501z" fill-opacity="0.01" fill="#000000" stroke="none" stroke-width="0"/><path d="M204.04916,129.30488c0,-33.30185 4.69911,-61.12804 40.17623,-61.12804c35.47712,0 45.98403,22.84808 45.98403,56.14992c0,33.30185 -10.50691,64.44674 -45.98403,64.44674c-35.47712,0 -40.17623,-26.16678 -40.17623,-59.46862z" fill="#ff6f00" stroke="#000000" stroke-width="2"/><path d="M192.70894,96.54707c0,-12.968 10.51265,-23.48065 23.48065,-23.48065c12.968,0 23.48065,10.51265 23.48065,23.48065c0,12.968 -10.51265,23.48065 -23.48065,23.48065c-12.968,0 -23.48065,-10.51265 -23.48065,-23.48065z" fill="#ffffff" stroke="#000000" stroke-width="2"/><path d="M201.15847,103.07771c0,-9.12808 7.39976,-16.52784 16.52783,-16.52784c9.12808,0 16.52784,7.39977 16.52784,16.52784c0,9.12808 -7.39977,16.52784 -16.52784,16.52784c-9.12808,0 -16.52783,-7.39977 -16.52783,-16.52784z" fill="#000000" stroke="none" stroke-width="0"/><path d="M269.61833,122.1019c-12.968,0 -23.48065,-10.51265 -23.48065,-23.48065c0,-12.968 10.51265,-23.48065 23.48065,-23.48065c12.968,0 23.48065,10.51265 23.48065,23.48065c0,12.968 -10.51265,23.48065 -23.48065,23.48065z" data-paper-data="{&quot;index&quot;:null}" fill="#ffffff" stroke="#000000" stroke-width="2"/><path d="M277.12353,117.51341c-9.12807,0 -16.52783,-7.39977 -16.52783,-16.52784c0,-9.12808 7.39977,-16.52784 16.52783,-16.52784c9.12807,0 16.52783,7.39977 16.52783,16.52784c0,9.12808 -7.39977,16.52784 -16.52783,16.52784z" data-paper-data="{&quot;index&quot;:null}" fill="#000000" stroke="none" stroke-width="0"/><path d="M193.34361,92.93388c0,-12.968 10.51265,-23.48065 23.48065,-23.48065c12.968,0 23.48065,10.51265 23.48065,23.48065c0,0 -12.07985,1.81679 -23.98627,1.96836c-11.5694,0.14729 -22.97504,-1.36143 -22.97504,-1.96836z" data-paper-data="{&quot;index&quot;:null}" fill="#ff6f00" stroke="#000000" stroke-width="2"/><path d="M245.16836,97.73085c0,-12.968 10.51265,-23.48065 23.48065,-23.48065c12.968,0 23.48065,10.51265 23.48065,23.48065c0,0.62059 -12.2758,2.10659 -24.27477,1.94468c-11.46974,-0.15477 -22.68654,-1.94468 -22.68654,-1.94468z" data-paper-data="{&quot;index&quot;:null}" fill="#ff6f00" stroke="#000000" stroke-width="2"/><path d="M202.02788,105.13384c0,0 6.70895,-5.16922 11.79721,-6.36355c5.08827,-1.19433 12.33413,0.69937 12.33413,0.69937c0,0 -8.03812,-0.06028 -11.96762,0.86207c-4.10648,0.96389 -12.16372,4.80211 -12.16372,4.80211z" fill="#000000" stroke="none" stroke-width="0"/><path d="M265.96236,100.33174c-3.9295,-0.92235 -11.96762,-0.86207 -11.96762,-0.86207c0,0 7.24586,-1.8937 12.33413,-0.69937c5.08826,1.19433 11.79721,6.36355 11.79721,6.36355c0,0 -8.05724,-3.83822 -12.16372,-4.80211z" data-paper-data="{&quot;index&quot;:null}" fill="#000000" stroke="none" stroke-width="0"/></g></g></svg>